<svg xmlns="http://www.w3.org/2000/svg" xmlns:xlink="http://www.w3.org/1999/xlink" width="260" zoomAndPan="magnify" viewBox="0 0 194.87999 74.999997" height="100" preserveAspectRatio="xMidYMid meet" version="1.0"><defs><g/><clipPath id="2d4a60f84a"><path d="M 59 0.0234375 L 136 0.0234375 L 136 74.976562 L 59 74.976562 Z M 59 0.0234375 " clip-rule="nonzero"/></clipPath><clipPath id="bdcb17e1dd"><path d="M 1.203125 0.265625 L 75.675781 0.265625 L 75.675781 74.734375 L 1.203125 74.734375 Z M 1.203125 0.265625 " clip-rule="nonzero"/></clipPath><clipPath id="1ad3d50a3c"><path d="M 38.441406 0.265625 C 17.875 0.265625 1.203125 16.933594 1.203125 37.5 C 1.203125 58.066406 17.875 74.734375 38.441406 74.734375 C 59.003906 74.734375 75.675781 58.066406 75.675781 37.5 C 75.675781 16.933594 59.003906 0.265625 38.441406 0.265625 Z M 38.441406 0.265625 " clip-rule="nonzero"/></clipPath><clipPath id="69a8b57ca3"><path d="M 0.203125 0.265625 L 74.675781 0.265625 L 74.675781 74.734375 L 0.203125 74.734375 Z M 0.203125 0.265625 " clip-rule="nonzero"/></clipPath><clipPath id="9e52564c45"><path d="M 37.441406 0.265625 C 16.875 0.265625 0.203125 16.933594 0.203125 37.5 C 0.203125 58.066406 16.875 74.734375 37.441406 74.734375 C 58.003906 74.734375 74.675781 58.066406 74.675781 37.5 C 74.675781 16.933594 58.003906 0.265625 37.441406 0.265625 Z M 37.441406 0.265625 " clip-rule="nonzero"/></clipPath><clipPath id="6e97832d34"><rect x="0" width="75" y="0" height="75"/></clipPath><clipPath id="148d5abcaf"><path d="M 0.964844 0.0234375 L 75.917969 0.0234375 L 75.917969 74.976562 L 0.964844 74.976562 Z M 0.964844 0.0234375 " clip-rule="nonzero"/></clipPath><clipPath id="96d94f6f6b"><path d="M 20.195312 43 L 39 43 L 39 56 L 20.195312 56 Z M 20.195312 43 " clip-rule="nonzero"/></clipPath><clipPath id="694437e060"><path d="M 38 43 L 55.796875 43 L 55.796875 56 L 38 56 Z M 38 43 " clip-rule="nonzero"/></clipPath><clipPath id="77f7bf8db2"><path d="M 38 49 L 55 49 L 55 56.3125 L 38 56.3125 Z M 38 49 " clip-rule="nonzero"/></clipPath><clipPath id="aea8354af9"><path d="M 22 49 L 39 49 L 39 56.3125 L 22 56.3125 Z M 22 49 " clip-rule="nonzero"/></clipPath><clipPath id="b904f614da"><path d="M 9 0.0234375 L 68 0.0234375 L 68 23 L 9 23 Z M 9 0.0234375 " clip-rule="nonzero"/></clipPath><clipPath id="025de1f90d"><rect x="0" width="59" y="0" height="23"/></clipPath><clipPath id="31958d513f"><path d="M 34 18.417969 L 43 18.417969 L 43 27 L 34 27 Z M 34 18.417969 " clip-rule="nonzero"/></clipPath><clipPath id="6a0499eff6"><path d="M 43 22 L 50.621094 22 L 50.621094 27.785156 L 43 27.785156 Z M 43 22 " clip-rule="nonzero"/></clipPath><clipPath id="d896d43d82"><path d="M 26.261719 22 L 33 22 L 33 27.785156 L 26.261719 27.785156 Z M 26.261719 22 " clip-rule="nonzero"/></clipPath><clipPath id="e7d04e0132"><path d="M 5 48 L 72 48 L 72 74.976562 L 5 74.976562 Z M 5 48 " clip-rule="nonzero"/></clipPath><clipPath id="97cddd334a"><rect x="0" width="67" y="0" height="27"/></clipPath><clipPath id="c959a1a000"><rect x="0" width="77" y="0" height="75"/></clipPath></defs><g clip-path="url(#2d4a60f84a)"><g transform="matrix(1, 0, 0, 1, 59, 0.000000000000010644)"><g clip-path="url(#c959a1a000)"><g clip-path="url(#bdcb17e1dd)"><g clip-path="url(#1ad3d50a3c)"><g transform="matrix(1, 0, 0, 1, 1, 0.000000000000010658)"><g clip-path="url(#6e97832d34)"><g clip-path="url(#69a8b57ca3)"><g clip-path="url(#9e52564c45)"><path fill="#622069" d="M 0.203125 0.265625 L 74.675781 0.265625 L 74.675781 74.734375 L 0.203125 74.734375 Z M 0.203125 0.265625 " fill-opacity="1" fill-rule="nonzero"/></g></g></g></g></g></g><g clip-path="url(#148d5abcaf)"><path fill="#622069" d="M 38.4375 74.96875 C 28.425781 74.96875 19.015625 71.074219 11.9375 63.996094 C 4.859375 56.917969 0.964844 47.507812 0.964844 37.496094 C 0.964844 27.488281 4.859375 18.078125 11.9375 11 C 19.015625 3.921875 28.425781 0.0234375 38.4375 0.0234375 C 48.445312 0.0234375 57.855469 3.921875 64.933594 11 C 72.011719 18.078125 75.910156 27.488281 75.910156 37.496094 C 75.910156 47.507812 72.011719 56.917969 64.933594 63.996094 C 57.855469 71.074219 48.445312 74.96875 38.4375 74.96875 Z M 38.4375 0.332031 C 28.507812 0.332031 19.175781 4.199219 12.15625 11.21875 C 5.136719 18.238281 1.269531 27.570312 1.269531 37.496094 C 1.269531 47.425781 5.136719 56.757812 12.15625 63.777344 C 19.175781 70.796875 28.507812 74.664062 38.4375 74.664062 C 48.363281 74.664062 57.695312 70.796875 64.714844 63.777344 C 71.738281 56.757812 75.601562 47.425781 75.601562 37.496094 C 75.601562 27.570312 71.738281 18.238281 64.714844 11.21875 C 57.695312 4.199219 48.363281 0.332031 38.4375 0.332031 Z M 38.4375 0.332031 " fill-opacity="1" fill-rule="nonzero"/></g><path fill="#ffffff" d="M 38.4375 62.152344 C 24.839844 62.152344 13.78125 51.09375 13.78125 37.496094 C 13.78125 23.902344 24.839844 12.839844 38.4375 12.839844 C 52.03125 12.839844 63.09375 23.902344 63.09375 37.496094 C 63.09375 51.09375 52.03125 62.152344 38.4375 62.152344 Z M 38.4375 13.148438 C 25.011719 13.148438 14.089844 24.070312 14.089844 37.496094 C 14.089844 50.921875 25.011719 61.84375 38.4375 61.84375 C 51.863281 61.84375 62.785156 50.921875 62.785156 37.496094 C 62.785156 24.070312 51.863281 13.148438 38.4375 13.148438 Z M 38.4375 13.148438 " fill-opacity="1" fill-rule="nonzero"/><path fill="#622069" d="M 8.273438 37.496094 C 8.273438 37.988281 7.875 38.386719 7.382812 38.386719 C 6.894531 38.386719 6.496094 37.988281 6.496094 37.496094 C 6.496094 37.007812 6.894531 36.609375 7.382812 36.609375 C 7.875 36.609375 8.273438 37.007812 8.273438 37.496094 Z M 69.488281 36.609375 C 69 36.609375 68.601562 37.007812 68.601562 37.496094 C 68.601562 37.988281 69 38.386719 69.488281 38.386719 C 69.980469 38.386719 70.378906 37.988281 70.378906 37.496094 C 70.378906 37.007812 69.980469 36.609375 69.488281 36.609375 Z M 69.488281 36.609375 " fill-opacity="1" fill-rule="nonzero"/><path fill="#ffffff" d="M 29.46875 39.195312 C 29.660156 39.335938 29.894531 39.386719 30.109375 39.351562 L 30.769531 41.878906 C 30.492188 41.972656 30.230469 42.148438 30.042969 42.40625 C 29.574219 43.058594 29.71875 43.960938 30.363281 44.429688 C 31.011719 44.898438 31.914062 44.75 32.382812 44.109375 C 32.382812 44.109375 32.390625 44.097656 32.390625 44.097656 L 37.632812 47.371094 C 37.347656 47.917969 37.484375 48.601562 37.996094 48.976562 C 38.5625 49.382812 39.339844 49.253906 39.75 48.695312 C 40.085938 48.238281 40.054688 47.621094 39.714844 47.1875 L 42.316406 44.855469 C 42.359375 44.898438 42.402344 44.941406 42.449219 44.976562 C 43.011719 45.382812 43.792969 45.253906 44.199219 44.699219 C 44.417969 44.394531 44.476562 44.03125 44.40625 43.691406 L 46.828125 42.980469 C 46.890625 43.128906 46.984375 43.257812 47.125 43.351562 C 47.515625 43.628906 48.050781 43.542969 48.339844 43.160156 C 48.617188 42.773438 48.527344 42.234375 48.148438 41.949219 C 48 41.84375 47.828125 41.78125 47.660156 41.78125 L 47.253906 36.492188 C 47.53125 36.445312 47.792969 36.300781 47.972656 36.046875 C 48.328125 35.5625 48.214844 34.875 47.730469 34.519531 C 47.246094 34.164062 46.558594 34.277344 46.203125 34.765625 C 46.152344 34.832031 46.117188 34.902344 46.082031 34.980469 L 40.667969 33.175781 C 40.746094 32.835938 40.617188 32.464844 40.320312 32.246094 C 39.921875 31.953125 39.359375 32.046875 39.0625 32.449219 C 38.949219 32.605469 38.890625 32.792969 38.890625 32.976562 L 35.636719 33.289062 C 35.601562 33.125 35.507812 32.976562 35.367188 32.871094 C 35.054688 32.648438 34.613281 32.714844 34.378906 33.027344 C 34.1875 33.289062 34.207031 33.636719 34.394531 33.878906 L 30.519531 37.828125 C 30.507812 37.816406 30.5 37.808594 30.484375 37.800781 C 30.09375 37.523438 29.554688 37.609375 29.269531 37.992188 C 28.992188 38.371094 29.078125 38.910156 29.46875 39.195312 Z M 34.535156 34 C 34.605469 34.050781 34.675781 34.078125 34.753906 34.105469 L 34.1875 37.523438 C 34.03125 37.523438 33.882812 37.59375 33.789062 37.722656 C 33.726562 37.800781 33.703125 37.886719 33.695312 37.984375 L 30.820312 38.304688 C 30.796875 38.164062 30.734375 38.042969 30.640625 37.929688 L 34.519531 33.984375 C 34.527344 33.992188 34.527344 34 34.535156 34 Z M 32.660156 43.222656 C 32.652344 42.789062 32.445312 42.355469 32.0625 42.078125 C 32.046875 42.058594 32.019531 42.050781 32 42.035156 L 34.023438 38.484375 C 34.117188 38.519531 34.230469 38.519531 34.328125 38.496094 L 36.398438 42.726562 C 36.304688 42.789062 36.226562 42.859375 36.15625 42.953125 C 36.070312 43.074219 36.027344 43.207031 36 43.34375 Z M 34.585938 38.320312 C 34.613281 38.285156 34.628906 38.242188 34.648438 38.199219 L 37.277344 38.695312 C 37.171875 39.421875 37.46875 40.1875 38.109375 40.65625 C 38.152344 40.6875 38.203125 40.714844 38.257812 40.75 L 37.199219 42.683594 C 36.992188 42.597656 36.765625 42.589844 36.554688 42.667969 L 34.484375 38.433594 C 34.519531 38.398438 34.5625 38.363281 34.585938 38.320312 Z M 37.363281 42.773438 C 37.355469 42.761719 37.347656 42.761719 37.347656 42.761719 L 38.40625 40.828125 C 38.628906 40.941406 38.863281 41 39.097656 41.027344 L 38.734375 46.691406 C 38.59375 46.691406 38.464844 46.71875 38.335938 46.761719 L 37.269531 44.238281 C 37.378906 44.175781 37.476562 44.097656 37.554688 43.984375 C 37.839844 43.597656 37.753906 43.058594 37.363281 42.773438 Z M 39.480469 46.925781 C 39.308594 46.796875 39.105469 46.726562 38.90625 46.703125 L 39.273438 41.035156 C 39.714844 41.046875 40.148438 40.914062 40.511719 40.65625 L 42.351562 43.003906 C 42.292969 43.066406 42.230469 43.128906 42.179688 43.207031 C 41.839844 43.671875 41.875 44.289062 42.214844 44.714844 L 39.609375 47.046875 C 39.566406 47.003906 39.523438 46.960938 39.480469 46.925781 Z M 42.492188 42.902344 L 40.652344 40.550781 C 40.773438 40.445312 40.886719 40.324219 40.980469 40.195312 C 41.300781 39.753906 41.414062 39.230469 41.355469 38.730469 L 44.296875 38.234375 C 44.320312 38.292969 44.363281 38.355469 44.425781 38.398438 C 44.441406 38.40625 44.460938 38.417969 44.476562 38.425781 L 43.410156 42.710938 C 43.097656 42.648438 42.769531 42.71875 42.492188 42.902344 Z M 44.269531 38.0625 L 41.328125 38.554688 C 41.222656 38.070312 40.957031 37.625 40.519531 37.316406 C 40.226562 37.097656 39.898438 36.976562 39.558594 36.941406 L 39.800781 33.863281 C 39.992188 33.863281 40.183594 33.792969 40.339844 33.671875 L 44.339844 37.871094 C 44.296875 37.929688 44.277344 38 44.269531 38.0625 Z M 39.183594 33.628906 C 39.210938 33.652344 39.230469 33.671875 39.261719 33.695312 C 39.375 33.785156 39.507812 33.828125 39.636719 33.851562 L 39.394531 36.933594 C 38.734375 36.90625 38.074219 37.203125 37.648438 37.78125 C 37.484375 38.015625 37.371094 38.269531 37.3125 38.527344 L 34.683594 38.035156 C 34.683594 37.9375 34.65625 37.84375 34.605469 37.765625 Z M 30.273438 39.300781 C 30.429688 39.242188 30.570312 39.144531 30.675781 38.996094 C 30.789062 38.839844 30.839844 38.660156 30.839844 38.476562 L 33.710938 38.15625 C 33.738281 38.25 33.789062 38.328125 33.867188 38.398438 L 31.84375 41.949219 C 31.550781 41.800781 31.230469 41.765625 30.925781 41.824219 Z M 32.488281 43.941406 C 32.582031 43.769531 32.636719 43.585938 32.652344 43.394531 L 35.984375 43.527344 C 36 43.777344 36.113281 44.019531 36.339844 44.175781 C 36.566406 44.34375 36.851562 44.375 37.101562 44.296875 L 38.171875 46.824219 C 37.996094 46.910156 37.839844 47.03125 37.71875 47.203125 Z M 44.375 43.507812 C 44.285156 43.285156 44.140625 43.082031 43.929688 42.925781 C 43.816406 42.847656 43.707031 42.796875 43.582031 42.753906 L 44.652344 38.476562 C 44.703125 38.476562 44.746094 38.46875 44.789062 38.449219 L 47.097656 41.964844 C 47.035156 42.007812 46.984375 42.058594 46.941406 42.128906 C 46.792969 42.328125 46.75 42.570312 46.792969 42.796875 Z M 47.488281 41.78125 C 47.402344 41.800781 47.324219 41.824219 47.238281 41.871094 L 44.929688 38.355469 C 44.9375 38.347656 44.953125 38.328125 44.964844 38.3125 C 45.058594 38.171875 45.058594 38 44.964844 37.859375 L 46.414062 36.257812 C 46.421875 36.265625 46.429688 36.273438 46.4375 36.273438 C 46.628906 36.414062 46.855469 36.480469 47.082031 36.480469 Z M 46.023438 35.136719 C 45.933594 35.492188 46.03125 35.875 46.289062 36.152344 L 44.84375 37.757812 C 44.71875 37.6875 44.574219 37.695312 44.460938 37.757812 L 40.460938 33.550781 C 40.476562 33.53125 40.496094 33.515625 40.511719 33.488281 C 40.546875 33.4375 40.582031 33.382812 40.609375 33.324219 Z M 38.90625 33.132812 C 38.933594 33.261719 38.984375 33.382812 39.074219 33.496094 L 34.5 37.636719 C 34.492188 37.636719 34.492188 37.625 34.492188 37.625 C 34.449219 37.601562 34.40625 37.574219 34.363281 37.566406 L 34.925781 34.148438 C 35.152344 34.15625 35.386719 34.050781 35.523438 33.851562 C 35.609375 33.730469 35.652344 33.59375 35.652344 33.453125 Z M 38.90625 33.132812 " fill-opacity="1" fill-rule="nonzero"/><g clip-path="url(#96d94f6f6b)"><path fill="#ffffff" d="M 30.839844 48.011719 C 27.835938 45.894531 24.246094 44.386719 20.332031 43.855469 L 20.195312 48.351562 C 23.308594 48.105469 26.632812 48.664062 29.753906 49.980469 C 32.878906 51.28125 35.863281 53.191406 38.429688 55.613281 C 36.425781 52.695312 33.859375 50.121094 30.839844 48.011719 Z M 30.839844 48.011719 " fill-opacity="1" fill-rule="nonzero"/></g><g clip-path="url(#694437e060)"><path fill="#ffffff" d="M 56.535156 43.855469 C 52.625 44.394531 49.03125 45.902344 46.03125 48.011719 C 43.019531 50.109375 40.441406 52.695312 38.4375 55.613281 C 41.007812 53.191406 43.992188 51.28125 47.113281 49.980469 C 50.238281 48.652344 53.550781 48.105469 56.675781 48.351562 Z M 56.535156 43.855469 " fill-opacity="1" fill-rule="nonzero"/></g><g clip-path="url(#77f7bf8db2)"><path fill="#ffffff" d="M 45.03125 51.828125 C 42.414062 53.242188 40.183594 54.988281 38.429688 56.957031 C 40.660156 55.324219 43.253906 54.042969 45.96875 53.15625 C 48.683594 52.261719 51.566406 51.890625 54.28125 52.054688 L 54.160156 49.027344 C 50.765625 49.390625 47.644531 50.40625 45.03125 51.828125 Z M 45.03125 51.828125 " fill-opacity="1" fill-rule="nonzero"/></g><g clip-path="url(#aea8354af9)"><path fill="#ffffff" d="M 31.835938 51.828125 C 29.226562 50.40625 26.101562 49.382812 22.703125 49.027344 L 22.578125 52.054688 C 25.285156 51.890625 28.175781 52.261719 30.890625 53.15625 C 33.605469 54.03125 36.199219 55.324219 38.429688 56.957031 C 36.6875 54.996094 34.457031 53.25 31.835938 51.828125 Z M 31.835938 51.828125 " fill-opacity="1" fill-rule="nonzero"/></g><g clip-path="url(#b904f614da)"><g transform="matrix(1, 0, 0, 1, 9, 0.000000000000010644)"><g clip-path="url(#025de1f90d)"><g fill="#ffffff" fill-opacity="1"><g transform="translate(6.742776, 17.664781)"><g><path d="M 1.921875 -3.3125 C 2.054688 -3.15625 2.148438 -2.984375 2.203125 -2.796875 C 2.253906 -2.609375 2.257812 -2.421875 2.21875 -2.234375 C 2.1875 -2.046875 2.113281 -1.863281 2 -1.6875 C 1.894531 -1.507812 1.757812 -1.347656 1.59375 -1.203125 C 1.457031 -1.085938 1.34375 -1.003906 1.25 -0.953125 C 1.15625 -0.910156 1.066406 -0.878906 0.984375 -0.859375 C 0.898438 -0.847656 0.828125 -0.832031 0.765625 -0.8125 C 0.710938 -0.789062 0.65625 -0.757812 0.59375 -0.71875 C 0.53125 -0.664062 0.492188 -0.601562 0.484375 -0.53125 C 0.472656 -0.457031 0.476562 -0.378906 0.5 -0.296875 L 0.3125 -0.125 L -0.796875 -1.46875 L -0.59375 -1.640625 C -0.488281 -1.523438 -0.351562 -1.421875 -0.1875 -1.328125 C -0.03125 -1.242188 0.132812 -1.1875 0.3125 -1.15625 C 0.5 -1.132812 0.679688 -1.144531 0.859375 -1.1875 C 1.046875 -1.226562 1.226562 -1.320312 1.40625 -1.46875 C 1.476562 -1.53125 1.539062 -1.597656 1.59375 -1.671875 C 1.65625 -1.753906 1.691406 -1.835938 1.703125 -1.921875 C 1.722656 -2.015625 1.722656 -2.101562 1.703125 -2.1875 C 1.679688 -2.28125 1.644531 -2.363281 1.59375 -2.4375 C 1.5 -2.539062 1.394531 -2.613281 1.28125 -2.65625 C 1.164062 -2.695312 1.03125 -2.710938 0.875 -2.703125 C 0.726562 -2.703125 0.570312 -2.6875 0.40625 -2.65625 C 0.238281 -2.625 0.078125 -2.585938 -0.078125 -2.546875 C -0.242188 -2.503906 -0.410156 -2.472656 -0.578125 -2.453125 C -0.753906 -2.441406 -0.921875 -2.441406 -1.078125 -2.453125 C -1.234375 -2.460938 -1.382812 -2.5 -1.53125 -2.5625 C -1.675781 -2.625 -1.800781 -2.722656 -1.90625 -2.859375 C -2.03125 -3.003906 -2.117188 -3.160156 -2.171875 -3.328125 C -2.222656 -3.503906 -2.234375 -3.675781 -2.203125 -3.84375 C -2.171875 -4.007812 -2.109375 -4.175781 -2.015625 -4.34375 C -1.921875 -4.507812 -1.796875 -4.65625 -1.640625 -4.78125 C -1.523438 -4.882812 -1.414062 -4.960938 -1.3125 -5.015625 C -1.207031 -5.066406 -1.109375 -5.101562 -1.015625 -5.125 C -0.921875 -5.144531 -0.835938 -5.160156 -0.765625 -5.171875 C -0.703125 -5.191406 -0.648438 -5.222656 -0.609375 -5.265625 C -0.554688 -5.304688 -0.535156 -5.359375 -0.546875 -5.421875 C -0.566406 -5.484375 -0.597656 -5.550781 -0.640625 -5.625 L -0.4375 -5.796875 L 0.65625 -4.484375 L 0.4375 -4.296875 C 0.28125 -4.441406 0.117188 -4.554688 -0.046875 -4.640625 C -0.210938 -4.722656 -0.378906 -4.769531 -0.546875 -4.78125 C -0.710938 -4.800781 -0.867188 -4.789062 -1.015625 -4.75 C -1.171875 -4.71875 -1.304688 -4.648438 -1.421875 -4.546875 C -1.484375 -4.492188 -1.535156 -4.429688 -1.578125 -4.359375 C -1.628906 -4.285156 -1.660156 -4.207031 -1.671875 -4.125 C -1.691406 -4.039062 -1.6875 -3.957031 -1.65625 -3.875 C -1.632812 -3.789062 -1.59375 -3.710938 -1.53125 -3.640625 C -1.457031 -3.546875 -1.363281 -3.484375 -1.25 -3.453125 C -1.144531 -3.429688 -1.019531 -3.425781 -0.875 -3.4375 C -0.726562 -3.445312 -0.570312 -3.472656 -0.40625 -3.515625 C -0.25 -3.554688 -0.0859375 -3.59375 0.078125 -3.625 C 0.242188 -3.65625 0.410156 -3.6875 0.578125 -3.71875 C 0.753906 -3.75 0.921875 -3.753906 1.078125 -3.734375 C 1.242188 -3.722656 1.394531 -3.679688 1.53125 -3.609375 C 1.675781 -3.546875 1.804688 -3.445312 1.921875 -3.3125 Z M 1.921875 -3.3125 "/></g></g></g><g fill="#ffffff" fill-opacity="1"><g transform="translate(9.579348, 15.211021)"><g><path d="M 2.515625 -1.578125 L 2.375 -1.796875 C 2.476562 -1.859375 2.546875 -1.921875 2.578125 -1.984375 C 2.609375 -2.054688 2.609375 -2.113281 2.578125 -2.15625 C 2.554688 -2.195312 2.523438 -2.234375 2.484375 -2.265625 C 2.453125 -2.296875 2.40625 -2.328125 2.34375 -2.359375 L 0.59375 -2.8125 L 0.5625 -2.65625 L 1.109375 -1.78125 C 1.171875 -1.675781 1.226562 -1.585938 1.28125 -1.515625 C 1.34375 -1.453125 1.398438 -1.414062 1.453125 -1.40625 C 1.515625 -1.394531 1.582031 -1.390625 1.65625 -1.390625 C 1.726562 -1.398438 1.816406 -1.441406 1.921875 -1.515625 L 2.0625 -1.296875 L 0.125 -0.078125 L -0.015625 -0.296875 C 0.0976562 -0.367188 0.179688 -0.441406 0.234375 -0.515625 C 0.296875 -0.585938 0.335938 -0.648438 0.359375 -0.703125 C 0.378906 -0.765625 0.367188 -0.835938 0.328125 -0.921875 C 0.296875 -1.003906 0.25 -1.097656 0.1875 -1.203125 L -1.296875 -3.578125 C -1.359375 -3.671875 -1.414062 -3.75 -1.46875 -3.8125 C -1.53125 -3.875 -1.59375 -3.914062 -1.65625 -3.9375 C -1.726562 -3.957031 -1.804688 -3.953125 -1.890625 -3.921875 C -1.972656 -3.890625 -2.070312 -3.835938 -2.1875 -3.765625 L -2.328125 -4 L -0.40625 -5.203125 L -0.265625 -4.96875 C -0.367188 -4.90625 -0.441406 -4.847656 -0.484375 -4.796875 C -0.535156 -4.742188 -0.566406 -4.6875 -0.578125 -4.625 C -0.585938 -4.5625 -0.570312 -4.488281 -0.53125 -4.40625 C -0.488281 -4.332031 -0.4375 -4.25 -0.375 -4.15625 L 0.203125 -3.21875 C 0.304688 -3.582031 0.390625 -3.914062 0.453125 -4.21875 C 0.492188 -4.332031 0.523438 -4.453125 0.546875 -4.578125 C 0.578125 -4.703125 0.601562 -4.8125 0.625 -4.90625 C 0.644531 -5.007812 0.65625 -5.097656 0.65625 -5.171875 C 0.664062 -5.253906 0.664062 -5.300781 0.65625 -5.3125 C 0.601562 -5.394531 0.539062 -5.421875 0.46875 -5.390625 C 0.394531 -5.367188 0.296875 -5.320312 0.171875 -5.25 L 0.03125 -5.484375 L 1.671875 -6.515625 L 1.8125 -6.28125 C 1.726562 -6.21875 1.65625 -6.164062 1.59375 -6.125 C 1.539062 -6.082031 1.492188 -6.035156 1.453125 -5.984375 C 1.421875 -5.929688 1.390625 -5.875 1.359375 -5.8125 C 1.335938 -5.757812 1.3125 -5.6875 1.28125 -5.59375 L 0.875 -3.71875 L 3.390625 -3.09375 C 3.523438 -3.050781 3.65625 -3.023438 3.78125 -3.015625 C 3.90625 -3.015625 4.015625 -3.019531 4.109375 -3.03125 C 4.203125 -3.039062 4.285156 -3.054688 4.359375 -3.078125 C 4.429688 -3.097656 4.488281 -3.117188 4.53125 -3.140625 L 4.671875 -2.921875 Z M 2.515625 -1.578125 "/></g></g></g><g fill="#ffffff" fill-opacity="1"><g transform="translate(14.111481, 12.460679)"><g><path d="M 0.125 -0.0625 L 0.015625 -0.296875 C 0.140625 -0.347656 0.234375 -0.40625 0.296875 -0.46875 C 0.367188 -0.53125 0.414062 -0.585938 0.4375 -0.640625 C 0.457031 -0.703125 0.457031 -0.769531 0.4375 -0.84375 C 0.425781 -0.925781 0.394531 -1.023438 0.34375 -1.140625 L -0.875 -3.703125 C -0.914062 -3.804688 -0.960938 -3.890625 -1.015625 -3.953125 C -1.066406 -4.023438 -1.125 -4.078125 -1.1875 -4.109375 C -1.25 -4.140625 -1.320312 -4.140625 -1.40625 -4.109375 C -1.5 -4.085938 -1.609375 -4.050781 -1.734375 -4 L -1.84375 -4.25 L 0.328125 -5.265625 L 0.4375 -5.015625 C 0.300781 -4.953125 0.195312 -4.894531 0.125 -4.84375 C 0.0625 -4.789062 0.0195312 -4.726562 0 -4.65625 C -0.0195312 -4.59375 -0.0195312 -4.519531 0 -4.4375 C 0.03125 -4.351562 0.0664062 -4.257812 0.109375 -4.15625 L 1.328125 -1.59375 C 1.378906 -1.476562 1.425781 -1.390625 1.46875 -1.328125 C 1.507812 -1.265625 1.5625 -1.222656 1.625 -1.203125 C 1.6875 -1.179688 1.757812 -1.175781 1.84375 -1.1875 C 1.9375 -1.207031 2.050781 -1.25 2.1875 -1.3125 L 2.296875 -1.078125 Z M 0.125 -0.0625 "/></g></g></g><g fill="#ffffff" fill-opacity="1"><g transform="translate(16.394021, 11.319972)"><g><path d="M 3.78125 -1.3125 L 0.140625 -0.046875 L 0.046875 -0.296875 C 0.171875 -0.335938 0.269531 -0.382812 0.34375 -0.4375 C 0.425781 -0.5 0.476562 -0.554688 0.5 -0.609375 C 0.53125 -0.671875 0.535156 -0.738281 0.515625 -0.8125 C 0.503906 -0.894531 0.476562 -1 0.4375 -1.125 L -0.484375 -3.765625 C -0.523438 -3.867188 -0.5625 -3.957031 -0.59375 -4.03125 C -0.632812 -4.113281 -0.679688 -4.171875 -0.734375 -4.203125 C -0.796875 -4.242188 -0.867188 -4.257812 -0.953125 -4.25 C -1.046875 -4.238281 -1.15625 -4.210938 -1.28125 -4.171875 L -1.375 -4.421875 L 0.90625 -5.21875 L 1 -4.96875 C 0.875 -4.914062 0.769531 -4.863281 0.6875 -4.8125 C 0.613281 -4.769531 0.554688 -4.710938 0.515625 -4.640625 C 0.472656 -4.566406 0.453125 -4.488281 0.453125 -4.40625 C 0.460938 -4.320312 0.488281 -4.226562 0.53125 -4.125 L 1.453125 -1.484375 C 1.484375 -1.378906 1.515625 -1.296875 1.546875 -1.234375 C 1.585938 -1.179688 1.640625 -1.144531 1.703125 -1.125 C 1.765625 -1.101562 1.84375 -1.101562 1.9375 -1.125 C 2.039062 -1.144531 2.175781 -1.1875 2.34375 -1.25 L 2.671875 -1.375 C 2.785156 -1.40625 2.890625 -1.453125 2.984375 -1.515625 C 3.078125 -1.585938 3.160156 -1.679688 3.234375 -1.796875 C 3.304688 -1.921875 3.359375 -2.078125 3.390625 -2.265625 C 3.429688 -2.453125 3.457031 -2.671875 3.46875 -2.921875 L 3.71875 -3 Z M 3.78125 -1.3125 "/></g></g></g><g fill="#ffffff" fill-opacity="1"><g transform="translate(20.600161, 9.850055)"><g><path d="M 3.921875 -0.796875 L 0.140625 -0.03125 L 0.09375 -0.296875 C 0.226562 -0.316406 0.332031 -0.347656 0.40625 -0.390625 C 0.488281 -0.441406 0.546875 -0.488281 0.578125 -0.53125 C 0.617188 -0.582031 0.632812 -0.648438 0.625 -0.734375 C 0.625 -0.828125 0.609375 -0.9375 0.578125 -1.0625 L 0.03125 -3.796875 C 0.0078125 -3.910156 -0.0078125 -4.003906 -0.03125 -4.078125 C -0.0625 -4.160156 -0.101562 -4.222656 -0.15625 -4.265625 C -0.21875 -4.316406 -0.289062 -4.335938 -0.375 -4.328125 C -0.46875 -4.328125 -0.582031 -4.316406 -0.71875 -4.296875 L -0.765625 -4.5625 L 1.609375 -5.03125 L 1.65625 -4.765625 C 1.519531 -4.742188 1.410156 -4.710938 1.328125 -4.671875 C 1.242188 -4.640625 1.179688 -4.59375 1.140625 -4.53125 C 1.097656 -4.46875 1.070312 -4.394531 1.0625 -4.3125 C 1.0625 -4.226562 1.070312 -4.128906 1.09375 -4.015625 L 1.640625 -1.28125 C 1.660156 -1.175781 1.6875 -1.085938 1.71875 -1.015625 C 1.75 -0.953125 1.789062 -0.90625 1.84375 -0.875 C 1.894531 -0.851562 1.972656 -0.84375 2.078125 -0.84375 C 2.179688 -0.851562 2.320312 -0.875 2.5 -0.90625 L 2.84375 -0.984375 C 2.957031 -1.003906 3.0625 -1.039062 3.15625 -1.09375 C 3.257812 -1.15625 3.351562 -1.238281 3.4375 -1.34375 C 3.519531 -1.457031 3.59375 -1.601562 3.65625 -1.78125 C 3.726562 -1.957031 3.785156 -2.175781 3.828125 -2.4375 L 4.078125 -2.484375 Z M 3.921875 -0.796875 "/></g></g></g><g fill="#ffffff" fill-opacity="1"><g transform="translate(25.008435, 9.014585)"><g/></g></g><g fill="#ffffff" fill-opacity="1"><g transform="translate(27.215438, 8.758393)"><g><path d="M 3.59375 -1.328125 C 3.601562 -1.117188 3.566406 -0.925781 3.484375 -0.75 C 3.398438 -0.570312 3.285156 -0.421875 3.140625 -0.296875 C 2.992188 -0.179688 2.820312 -0.0859375 2.625 -0.015625 C 2.425781 0.046875 2.21875 0.078125 2 0.078125 C 1.820312 0.078125 1.679688 0.0625 1.578125 0.03125 C 1.472656 0.0078125 1.382812 -0.015625 1.3125 -0.046875 C 1.238281 -0.078125 1.171875 -0.101562 1.109375 -0.125 C 1.054688 -0.15625 0.992188 -0.171875 0.921875 -0.171875 C 0.835938 -0.171875 0.769531 -0.144531 0.71875 -0.09375 C 0.664062 -0.0390625 0.617188 0.0195312 0.578125 0.09375 L 0.328125 0.09375 L 0.3125 -1.640625 L 0.578125 -1.640625 C 0.585938 -1.484375 0.628906 -1.316406 0.703125 -1.140625 C 0.773438 -0.972656 0.867188 -0.820312 0.984375 -0.6875 C 1.109375 -0.550781 1.253906 -0.441406 1.421875 -0.359375 C 1.585938 -0.273438 1.785156 -0.234375 2.015625 -0.234375 C 2.109375 -0.234375 2.203125 -0.242188 2.296875 -0.265625 C 2.390625 -0.296875 2.472656 -0.335938 2.546875 -0.390625 C 2.617188 -0.453125 2.675781 -0.523438 2.71875 -0.609375 C 2.757812 -0.691406 2.78125 -0.78125 2.78125 -0.875 C 2.78125 -1.007812 2.742188 -1.128906 2.671875 -1.234375 C 2.597656 -1.335938 2.503906 -1.4375 2.390625 -1.53125 C 2.273438 -1.625 2.144531 -1.707031 2 -1.78125 C 1.851562 -1.863281 1.703125 -1.941406 1.546875 -2.015625 C 1.398438 -2.097656 1.253906 -2.179688 1.109375 -2.265625 C 0.972656 -2.359375 0.847656 -2.457031 0.734375 -2.5625 C 0.617188 -2.675781 0.523438 -2.800781 0.453125 -2.9375 C 0.378906 -3.082031 0.34375 -3.242188 0.34375 -3.421875 C 0.34375 -3.609375 0.375 -3.78125 0.4375 -3.9375 C 0.507812 -4.101562 0.609375 -4.242188 0.734375 -4.359375 C 0.867188 -4.472656 1.023438 -4.566406 1.203125 -4.640625 C 1.378906 -4.710938 1.570312 -4.75 1.78125 -4.75 C 1.9375 -4.75 2.066406 -4.734375 2.171875 -4.703125 C 2.285156 -4.671875 2.382812 -4.632812 2.46875 -4.59375 C 2.550781 -4.550781 2.625 -4.515625 2.6875 -4.484375 C 2.757812 -4.453125 2.828125 -4.4375 2.890625 -4.4375 C 2.953125 -4.4375 2.992188 -4.46875 3.015625 -4.53125 C 3.046875 -4.59375 3.070312 -4.664062 3.09375 -4.75 L 3.359375 -4.75 L 3.375 -3.03125 L 3.078125 -3.03125 C 3.054688 -3.238281 3.003906 -3.425781 2.921875 -3.59375 C 2.835938 -3.769531 2.738281 -3.914062 2.625 -4.03125 C 2.507812 -4.15625 2.378906 -4.25 2.234375 -4.3125 C 2.097656 -4.382812 1.953125 -4.421875 1.796875 -4.421875 C 1.710938 -4.421875 1.628906 -4.40625 1.546875 -4.375 C 1.460938 -4.34375 1.390625 -4.296875 1.328125 -4.234375 C 1.265625 -4.179688 1.210938 -4.113281 1.171875 -4.03125 C 1.140625 -3.957031 1.128906 -3.875 1.140625 -3.78125 C 1.140625 -3.664062 1.171875 -3.5625 1.234375 -3.46875 C 1.304688 -3.382812 1.398438 -3.300781 1.515625 -3.21875 C 1.628906 -3.132812 1.757812 -3.054688 1.90625 -2.984375 C 2.0625 -2.910156 2.210938 -2.832031 2.359375 -2.75 C 2.515625 -2.664062 2.664062 -2.578125 2.8125 -2.484375 C 2.96875 -2.398438 3.101562 -2.300781 3.21875 -2.1875 C 3.332031 -2.070312 3.421875 -1.941406 3.484375 -1.796875 C 3.554688 -1.660156 3.59375 -1.503906 3.59375 -1.328125 Z M 3.59375 -1.328125 "/></g></g></g><g fill="#ffffff" fill-opacity="1"><g transform="translate(30.979515, 8.716528)"><g><path d="M 4.390625 -2.90625 C 4.378906 -2.726562 4.328125 -2.5625 4.234375 -2.40625 C 4.148438 -2.25 4.023438 -2.113281 3.859375 -2 C 3.703125 -1.894531 3.503906 -1.820312 3.265625 -1.78125 C 3.023438 -1.738281 2.738281 -1.734375 2.40625 -1.765625 C 2.363281 -1.773438 2.320312 -1.78125 2.28125 -1.78125 C 2.25 -1.78125 2.21875 -1.789062 2.1875 -1.8125 C 2.15625 -1.8125 2.125 -1.8125 2.09375 -1.8125 L 1.953125 -0.609375 C 1.941406 -0.492188 1.9375 -0.398438 1.9375 -0.328125 C 1.945312 -0.265625 1.972656 -0.207031 2.015625 -0.15625 C 2.054688 -0.113281 2.117188 -0.078125 2.203125 -0.046875 C 2.285156 -0.015625 2.394531 0.00390625 2.53125 0.015625 L 2.5 0.28125 L 0.15625 0.015625 L 0.1875 -0.25 C 0.332031 -0.226562 0.445312 -0.222656 0.53125 -0.234375 C 0.613281 -0.242188 0.675781 -0.269531 0.71875 -0.3125 C 0.769531 -0.351562 0.804688 -0.410156 0.828125 -0.484375 C 0.859375 -0.554688 0.878906 -0.648438 0.890625 -0.765625 L 1.234375 -3.734375 C 1.242188 -3.847656 1.242188 -3.9375 1.234375 -4 C 1.234375 -4.070312 1.210938 -4.125 1.171875 -4.15625 C 1.128906 -4.195312 1.066406 -4.226562 0.984375 -4.25 C 0.910156 -4.269531 0.800781 -4.289062 0.65625 -4.3125 L 0.6875 -4.578125 L 2.890625 -4.328125 C 3.148438 -4.296875 3.378906 -4.238281 3.578125 -4.15625 C 3.773438 -4.070312 3.9375 -3.96875 4.0625 -3.84375 C 4.195312 -3.71875 4.289062 -3.570312 4.34375 -3.40625 C 4.40625 -3.25 4.421875 -3.082031 4.390625 -2.90625 Z M 3.265625 -3.03125 C 3.285156 -3.15625 3.285156 -3.269531 3.265625 -3.375 C 3.253906 -3.476562 3.21875 -3.570312 3.15625 -3.65625 C 3.101562 -3.738281 3.019531 -3.804688 2.90625 -3.859375 C 2.800781 -3.910156 2.664062 -3.945312 2.5 -3.96875 C 2.476562 -3.976562 2.457031 -3.976562 2.4375 -3.96875 C 2.414062 -3.96875 2.398438 -3.96875 2.390625 -3.96875 C 2.367188 -3.96875 2.347656 -3.960938 2.328125 -3.953125 L 2.140625 -2.203125 C 2.160156 -2.203125 2.175781 -2.203125 2.1875 -2.203125 C 2.195312 -2.191406 2.210938 -2.1875 2.234375 -2.1875 C 2.253906 -2.1875 2.273438 -2.179688 2.296875 -2.171875 C 2.460938 -2.148438 2.601562 -2.160156 2.71875 -2.203125 C 2.84375 -2.242188 2.941406 -2.300781 3.015625 -2.375 C 3.085938 -2.457031 3.144531 -2.550781 3.1875 -2.65625 C 3.226562 -2.769531 3.253906 -2.894531 3.265625 -3.03125 Z M 3.265625 -3.03125 "/></g></g></g><g fill="#ffffff" fill-opacity="1"><g transform="translate(35.066086, 9.129289)"><g><path d="M 2.828125 0.734375 L 2.890625 0.484375 C 3.023438 0.523438 3.140625 0.539062 3.234375 0.53125 C 3.328125 0.53125 3.40625 0.507812 3.46875 0.46875 C 3.53125 0.4375 3.578125 0.382812 3.609375 0.3125 C 3.640625 0.238281 3.671875 0.140625 3.703125 0.015625 L 4 -1.125 L 2.328125 -1.5625 L 2.03125 -0.421875 C 2 -0.296875 1.976562 -0.191406 1.96875 -0.109375 C 1.96875 -0.0234375 1.984375 0.0390625 2.015625 0.09375 C 2.054688 0.15625 2.113281 0.207031 2.1875 0.25 C 2.257812 0.300781 2.363281 0.347656 2.5 0.390625 L 2.4375 0.640625 L 0.140625 0.03125 L 0.203125 -0.21875 C 0.328125 -0.175781 0.4375 -0.15625 0.53125 -0.15625 C 0.632812 -0.164062 0.710938 -0.1875 0.765625 -0.21875 C 0.816406 -0.257812 0.859375 -0.316406 0.890625 -0.390625 C 0.921875 -0.460938 0.953125 -0.5625 0.984375 -0.6875 L 1.6875 -3.390625 C 1.71875 -3.503906 1.738281 -3.601562 1.75 -3.6875 C 1.757812 -3.769531 1.75 -3.84375 1.71875 -3.90625 C 1.695312 -3.96875 1.644531 -4.019531 1.5625 -4.0625 C 1.476562 -4.101562 1.375 -4.144531 1.25 -4.1875 L 1.3125 -4.4375 L 3.609375 -3.828125 L 3.546875 -3.578125 C 3.410156 -3.617188 3.296875 -3.640625 3.203125 -3.640625 C 3.117188 -3.640625 3.046875 -3.617188 2.984375 -3.578125 C 2.921875 -3.535156 2.867188 -3.476562 2.828125 -3.40625 C 2.796875 -3.332031 2.765625 -3.238281 2.734375 -3.125 L 2.4375 -1.984375 L 4.109375 -1.546875 L 4.40625 -2.6875 C 4.4375 -2.800781 4.457031 -2.898438 4.46875 -2.984375 C 4.476562 -3.066406 4.460938 -3.140625 4.421875 -3.203125 C 4.390625 -3.265625 4.332031 -3.316406 4.25 -3.359375 C 4.175781 -3.398438 4.070312 -3.441406 3.9375 -3.484375 L 4 -3.734375 L 6.3125 -3.125 L 6.25 -2.875 C 6.113281 -2.90625 6 -2.921875 5.90625 -2.921875 C 5.820312 -2.929688 5.75 -2.914062 5.6875 -2.875 C 5.625 -2.832031 5.570312 -2.773438 5.53125 -2.703125 C 5.5 -2.628906 5.46875 -2.535156 5.4375 -2.421875 L 4.734375 0.28125 C 4.703125 0.40625 4.679688 0.507812 4.671875 0.59375 C 4.671875 0.675781 4.6875 0.742188 4.71875 0.796875 C 4.757812 0.859375 4.816406 0.914062 4.890625 0.96875 C 4.960938 1.019531 5.066406 1.0625 5.203125 1.09375 L 5.140625 1.34375 Z M 2.828125 0.734375 "/></g></g></g><g fill="#ffffff" fill-opacity="1"><g transform="translate(40.169698, 10.483854)"><g><path d="M 3.5 1.484375 L 0.140625 0.0625 L 0.25 -0.1875 C 0.375 -0.132812 0.484375 -0.0976562 0.578125 -0.078125 C 0.671875 -0.0664062 0.75 -0.078125 0.8125 -0.109375 C 0.875 -0.140625 0.929688 -0.195312 0.984375 -0.28125 C 1.035156 -0.363281 1.085938 -0.472656 1.140625 -0.609375 L 2.171875 -3.03125 C 2.234375 -3.164062 2.273438 -3.28125 2.296875 -3.375 C 2.316406 -3.46875 2.316406 -3.546875 2.296875 -3.609375 C 2.285156 -3.671875 2.238281 -3.726562 2.15625 -3.78125 C 2.082031 -3.84375 1.976562 -3.898438 1.84375 -3.953125 L 1.953125 -4.1875 L 5.34375 -2.734375 L 4.921875 -1.59375 L 4.671875 -1.703125 C 4.703125 -1.835938 4.71875 -1.960938 4.71875 -2.078125 C 4.71875 -2.191406 4.707031 -2.289062 4.6875 -2.375 C 4.664062 -2.46875 4.613281 -2.546875 4.53125 -2.609375 C 4.457031 -2.679688 4.335938 -2.75 4.171875 -2.8125 L 3.375 -3.15625 L 2.71875 -1.625 L 3.09375 -1.46875 C 3.226562 -1.40625 3.34375 -1.367188 3.4375 -1.359375 C 3.539062 -1.359375 3.628906 -1.378906 3.703125 -1.421875 C 3.773438 -1.460938 3.84375 -1.523438 3.90625 -1.609375 C 3.96875 -1.691406 4.03125 -1.789062 4.09375 -1.90625 L 4.34375 -1.796875 L 3.59375 -0.015625 L 3.34375 -0.125 C 3.382812 -0.257812 3.410156 -0.375 3.421875 -0.46875 C 3.429688 -0.5625 3.421875 -0.644531 3.390625 -0.71875 C 3.367188 -0.789062 3.320312 -0.851562 3.25 -0.90625 C 3.175781 -0.96875 3.070312 -1.03125 2.9375 -1.09375 L 2.5625 -1.25 L 2.09375 -0.140625 C 2.050781 -0.0546875 2.019531 0.015625 2 0.078125 C 1.976562 0.140625 1.972656 0.195312 1.984375 0.25 C 1.992188 0.300781 2.015625 0.347656 2.046875 0.390625 C 2.078125 0.441406 2.140625 0.488281 2.234375 0.53125 L 2.578125 0.671875 C 2.765625 0.753906 2.925781 0.804688 3.0625 0.828125 C 3.195312 0.847656 3.320312 0.835938 3.4375 0.796875 C 3.550781 0.765625 3.664062 0.707031 3.78125 0.625 C 3.90625 0.550781 4.046875 0.453125 4.203125 0.328125 L 4.46875 0.4375 Z M 3.5 1.484375 "/></g></g></g><g fill="#ffffff" fill-opacity="1"><g transform="translate(44.273878, 12.204992)"><g><path d="M 3.03125 1.84375 L 2.828125 -0.734375 C 2.804688 -0.734375 2.773438 -0.75 2.734375 -0.78125 C 2.722656 -0.78125 2.707031 -0.785156 2.6875 -0.796875 C 2.675781 -0.816406 2.660156 -0.832031 2.640625 -0.84375 L 2.015625 0.203125 C 1.953125 0.304688 1.910156 0.394531 1.890625 0.46875 C 1.867188 0.539062 1.863281 0.609375 1.875 0.671875 C 1.894531 0.734375 1.9375 0.796875 2 0.859375 C 2.0625 0.921875 2.148438 0.984375 2.265625 1.046875 L 2.125 1.28125 L 0.109375 0.0625 L 0.25 -0.171875 C 0.363281 -0.0976562 0.460938 -0.046875 0.546875 -0.015625 C 0.640625 0.015625 0.710938 0.0195312 0.765625 0 C 0.828125 -0.03125 0.882812 -0.078125 0.9375 -0.140625 C 1 -0.203125 1.0625 -0.285156 1.125 -0.390625 L 2.625 -2.875 C 2.6875 -2.96875 2.726562 -3.046875 2.75 -3.109375 C 2.769531 -3.171875 2.773438 -3.226562 2.765625 -3.28125 C 2.753906 -3.34375 2.710938 -3.40625 2.640625 -3.46875 C 2.578125 -3.53125 2.488281 -3.597656 2.375 -3.671875 L 2.5 -3.890625 L 4.140625 -2.890625 C 4.359375 -2.753906 4.570312 -2.613281 4.78125 -2.46875 C 4.988281 -2.320312 5.15625 -2.160156 5.28125 -1.984375 C 5.40625 -1.816406 5.476562 -1.632812 5.5 -1.4375 C 5.519531 -1.238281 5.460938 -1.023438 5.328125 -0.796875 C 5.234375 -0.640625 5.128906 -0.507812 5.015625 -0.40625 C 4.898438 -0.3125 4.78125 -0.238281 4.65625 -0.1875 C 4.53125 -0.144531 4.398438 -0.125 4.265625 -0.125 C 4.140625 -0.132812 4.019531 -0.164062 3.90625 -0.21875 L 4.15625 1.3125 C 4.164062 1.5 4.1875 1.648438 4.21875 1.765625 C 4.257812 1.890625 4.300781 2 4.34375 2.09375 C 4.382812 2.195312 4.4375 2.285156 4.5 2.359375 C 4.5625 2.429688 4.632812 2.492188 4.71875 2.546875 L 4.578125 2.78125 Z M 4.328125 -1.328125 C 4.378906 -1.410156 4.425781 -1.5 4.46875 -1.59375 C 4.507812 -1.695312 4.523438 -1.796875 4.515625 -1.890625 C 4.503906 -1.984375 4.460938 -2.082031 4.390625 -2.1875 C 4.316406 -2.300781 4.195312 -2.410156 4.03125 -2.515625 C 3.988281 -2.535156 3.945312 -2.550781 3.90625 -2.5625 C 3.875 -2.582031 3.84375 -2.601562 3.8125 -2.625 C 3.789062 -2.632812 3.765625 -2.640625 3.734375 -2.640625 L 2.859375 -1.1875 C 2.878906 -1.15625 2.921875 -1.117188 2.984375 -1.078125 C 3.046875 -1.035156 3.109375 -0.992188 3.171875 -0.953125 C 3.253906 -0.910156 3.347656 -0.878906 3.453125 -0.859375 C 3.554688 -0.847656 3.660156 -0.851562 3.765625 -0.875 C 3.878906 -0.90625 3.984375 -0.957031 4.078125 -1.03125 C 4.171875 -1.113281 4.253906 -1.210938 4.328125 -1.328125 Z M 4.328125 -1.328125 "/></g></g></g><g fill="#ffffff" fill-opacity="1"><g transform="translate(48.448312, 14.739933)"><g><path d="M 2.9375 2.40625 L 0.125 0.09375 L 0.296875 -0.109375 C 0.398438 -0.015625 0.492188 0.046875 0.578125 0.078125 C 0.660156 0.109375 0.734375 0.117188 0.796875 0.109375 C 0.867188 0.0976562 0.941406 0.0625 1.015625 0 C 1.085938 -0.0625 1.171875 -0.148438 1.265625 -0.265625 L 2.9375 -2.296875 C 3.019531 -2.410156 3.085938 -2.507812 3.140625 -2.59375 C 3.191406 -2.675781 3.21875 -2.75 3.21875 -2.8125 C 3.21875 -2.882812 3.191406 -2.957031 3.140625 -3.03125 C 3.085938 -3.101562 3.003906 -3.1875 2.890625 -3.28125 L 3.0625 -3.484375 L 5.90625 -1.140625 L 5.15625 -0.15625 L 4.953125 -0.3125 C 5.015625 -0.457031 5.066406 -0.578125 5.109375 -0.671875 C 5.148438 -0.773438 5.171875 -0.875 5.171875 -0.96875 C 5.171875 -1.0625 5.144531 -1.148438 5.09375 -1.234375 C 5.039062 -1.328125 4.941406 -1.429688 4.796875 -1.546875 L 4.140625 -2.09375 L 3.078125 -0.796875 L 3.390625 -0.546875 C 3.503906 -0.453125 3.601562 -0.390625 3.6875 -0.359375 C 3.78125 -0.328125 3.867188 -0.320312 3.953125 -0.34375 C 4.035156 -0.363281 4.117188 -0.398438 4.203125 -0.453125 C 4.285156 -0.503906 4.367188 -0.582031 4.453125 -0.6875 L 4.671875 -0.5 L 3.453125 1 L 3.234375 0.8125 C 3.316406 0.707031 3.375 0.609375 3.40625 0.515625 C 3.445312 0.421875 3.460938 0.332031 3.453125 0.25 C 3.453125 0.175781 3.425781 0.0976562 3.375 0.015625 C 3.320312 -0.0546875 3.238281 -0.140625 3.125 -0.234375 L 2.8125 -0.484375 L 2.0625 0.453125 C 2 0.523438 1.945312 0.585938 1.90625 0.640625 C 1.875 0.703125 1.847656 0.757812 1.828125 0.8125 C 1.816406 0.863281 1.820312 0.914062 1.84375 0.96875 C 1.863281 1.019531 1.914062 1.078125 2 1.140625 L 2.28125 1.359375 C 2.4375 1.492188 2.578125 1.585938 2.703125 1.640625 C 2.828125 1.691406 2.953125 1.71875 3.078125 1.71875 C 3.210938 1.726562 3.34375 1.707031 3.46875 1.65625 C 3.601562 1.613281 3.757812 1.554688 3.9375 1.484375 L 4.15625 1.671875 Z M 2.9375 2.40625 "/></g></g></g></g></g></g><g clip-path="url(#31958d513f)"><path fill="#ffffff" d="M 38.425781 18.417969 L 39.765625 21.132812 L 42.761719 21.566406 L 40.59375 23.679688 L 41.105469 26.660156 L 38.425781 25.253906 L 35.75 26.660156 L 36.257812 23.679688 L 34.09375 21.566406 L 37.085938 21.132812 Z M 38.425781 18.417969 " fill-opacity="1" fill-rule="nonzero"/></g><g clip-path="url(#6a0499eff6)"><path fill="#ffffff" d="M 47.585938 22.019531 L 48.308594 24.25 L 50.554688 24.917969 L 48.65625 26.292969 L 48.710938 28.636719 L 46.820312 27.257812 L 44.609375 28.035156 L 45.335938 25.808594 L 43.914062 23.945312 L 46.257812 23.949219 Z M 47.585938 22.019531 " fill-opacity="1" fill-rule="nonzero"/></g><g clip-path="url(#d896d43d82)"><path fill="#ffffff" d="M 29.265625 22.019531 L 28.546875 24.25 L 26.300781 24.917969 L 28.199219 26.292969 L 28.140625 28.636719 L 30.035156 27.257812 L 32.246094 28.035156 L 31.519531 25.808594 L 32.941406 23.945312 L 30.597656 23.949219 Z M 29.265625 22.019531 " fill-opacity="1" fill-rule="nonzero"/></g><g clip-path="url(#e7d04e0132)"><g transform="matrix(1, 0, 0, 1, 5, 48)"><g clip-path="url(#97cddd334a)"><g fill="#ffffff" fill-opacity="1"><g transform="translate(4.858538, 4.112998)"><g><path d="M 1.4375 2.703125 L 0.0625 0.109375 L 0.25 0 C 0.300781 0.101562 0.351562 0.179688 0.40625 0.234375 C 0.457031 0.285156 0.507812 0.316406 0.5625 0.328125 C 0.613281 0.335938 0.675781 0.332031 0.75 0.3125 C 0.832031 0.289062 0.925781 0.253906 1.03125 0.203125 L 2.90625 -0.796875 C 3.007812 -0.859375 3.09375 -0.910156 3.15625 -0.953125 C 3.21875 -1.003906 3.257812 -1.050781 3.28125 -1.09375 C 3.300781 -1.144531 3.300781 -1.207031 3.28125 -1.28125 C 3.257812 -1.351562 3.222656 -1.441406 3.171875 -1.546875 L 3.359375 -1.640625 L 4.765625 1 L 3.890625 1.484375 L 3.78125 1.3125 C 3.875 1.21875 3.953125 1.132812 4.015625 1.0625 C 4.078125 1 4.117188 0.9375 4.140625 0.875 C 4.171875 0.8125 4.175781 0.738281 4.15625 0.65625 C 4.144531 0.570312 4.101562 0.460938 4.03125 0.328125 L 3.71875 -0.265625 L 2.53125 0.375 L 2.6875 0.65625 C 2.738281 0.757812 2.789062 0.832031 2.84375 0.875 C 2.90625 0.925781 2.96875 0.957031 3.03125 0.96875 C 3.101562 0.988281 3.179688 0.988281 3.265625 0.96875 C 3.347656 0.945312 3.4375 0.921875 3.53125 0.890625 L 3.640625 1.078125 L 2.25 1.8125 L 2.140625 1.625 C 2.242188 1.550781 2.320312 1.488281 2.375 1.4375 C 2.425781 1.382812 2.460938 1.328125 2.484375 1.265625 C 2.515625 1.203125 2.523438 1.132812 2.515625 1.0625 C 2.503906 0.988281 2.472656 0.898438 2.421875 0.796875 L 2.265625 0.515625 L 1.390625 0.984375 C 1.328125 1.015625 1.269531 1.039062 1.21875 1.0625 C 1.175781 1.09375 1.140625 1.125 1.109375 1.15625 C 1.085938 1.195312 1.078125 1.238281 1.078125 1.28125 C 1.078125 1.332031 1.097656 1.394531 1.140625 1.46875 L 1.28125 1.734375 C 1.351562 1.867188 1.425781 1.976562 1.5 2.0625 C 1.582031 2.144531 1.671875 2.203125 1.765625 2.234375 C 1.859375 2.273438 1.960938 2.300781 2.078125 2.3125 C 2.191406 2.320312 2.320312 2.332031 2.46875 2.34375 L 2.578125 2.546875 Z M 1.4375 2.703125 "/></g></g></g><g fill="#ffffff" fill-opacity="1"><g transform="translate(6.685992, 7.445007)"><g><path d="M 0.90625 -0.46875 L 1.375 -0.765625 L 2.3125 0.671875 L 1.84375 0.96875 Z M 0.90625 -0.46875 "/></g></g></g><g fill="#ffffff" fill-opacity="1"><g transform="translate(7.7711, 9.157015)"><g><path d="M 2.015625 2.53125 L 0.0625 0.078125 L 0.234375 -0.0625 C 0.304688 0.03125 0.367188 0.0976562 0.421875 0.140625 C 0.484375 0.179688 0.539062 0.203125 0.59375 0.203125 C 0.65625 0.210938 0.71875 0.203125 0.78125 0.171875 C 0.84375 0.140625 0.910156 0.0976562 0.984375 0.046875 L 2.75 -1.375 C 2.820312 -1.4375 2.878906 -1.492188 2.921875 -1.546875 C 2.960938 -1.597656 2.984375 -1.648438 2.984375 -1.703125 C 2.992188 -1.753906 2.984375 -1.8125 2.953125 -1.875 C 2.929688 -1.945312 2.882812 -2.03125 2.8125 -2.125 L 2.984375 -2.25 L 4.21875 -0.703125 L 4.046875 -0.578125 C 3.972656 -0.671875 3.90625 -0.738281 3.84375 -0.78125 C 3.78125 -0.820312 3.71875 -0.847656 3.65625 -0.859375 C 3.601562 -0.878906 3.546875 -0.875 3.484375 -0.84375 C 3.421875 -0.8125 3.351562 -0.765625 3.28125 -0.703125 L 1.515625 0.71875 C 1.441406 0.769531 1.390625 0.816406 1.359375 0.859375 C 1.328125 0.898438 1.3125 0.945312 1.3125 1 C 1.3125 1.050781 1.332031 1.109375 1.375 1.171875 C 1.414062 1.242188 1.476562 1.332031 1.5625 1.4375 L 1.75 1.671875 C 1.8125 1.742188 1.878906 1.804688 1.953125 1.859375 C 2.023438 1.921875 2.117188 1.957031 2.234375 1.96875 C 2.347656 1.976562 2.476562 1.972656 2.625 1.953125 C 2.78125 1.941406 2.957031 1.90625 3.15625 1.84375 L 3.296875 2.015625 Z M 2.015625 2.53125 "/></g></g></g><g fill="#ffffff" fill-opacity="1"><g transform="translate(10.171495, 12.144106)"><g><path d="M 2.1875 2.140625 L 0.09375 0.09375 L 0.25 -0.0625 C 0.332031 0.0078125 0.40625 0.0625 0.46875 0.09375 C 0.53125 0.125 0.585938 0.132812 0.640625 0.125 C 0.691406 0.125 0.75 0.101562 0.8125 0.0625 C 0.882812 0.0195312 0.957031 -0.0390625 1.03125 -0.125 L 2.515625 -1.640625 C 2.597656 -1.722656 2.664062 -1.796875 2.71875 -1.859375 C 2.769531 -1.921875 2.796875 -1.976562 2.796875 -2.03125 C 2.796875 -2.09375 2.773438 -2.15625 2.734375 -2.21875 C 2.691406 -2.28125 2.628906 -2.347656 2.546875 -2.421875 L 2.703125 -2.578125 L 4.828125 -0.5 L 4.15625 0.25 L 4 0.09375 C 4.0625 -0.0078125 4.113281 -0.101562 4.15625 -0.1875 C 4.195312 -0.269531 4.21875 -0.34375 4.21875 -0.40625 C 4.226562 -0.476562 4.210938 -0.550781 4.171875 -0.625 C 4.128906 -0.707031 4.054688 -0.796875 3.953125 -0.890625 L 3.453125 -1.375 L 2.515625 -0.40625 L 2.75 -0.1875 C 2.832031 -0.101562 2.910156 -0.046875 2.984375 -0.015625 C 3.054688 0.00390625 3.125 0.015625 3.1875 0.015625 C 3.257812 0.015625 3.332031 -0.0078125 3.40625 -0.0625 C 3.476562 -0.113281 3.554688 -0.171875 3.640625 -0.234375 L 3.796875 -0.078125 L 2.703125 1.046875 L 2.546875 0.890625 C 2.617188 0.796875 2.671875 0.71875 2.703125 0.65625 C 2.742188 0.59375 2.765625 0.523438 2.765625 0.453125 C 2.773438 0.390625 2.757812 0.320312 2.71875 0.25 C 2.675781 0.1875 2.613281 0.113281 2.53125 0.03125 L 2.296875 -0.1875 L 1.609375 0.515625 C 1.554688 0.566406 1.507812 0.609375 1.46875 0.640625 C 1.4375 0.679688 1.414062 0.722656 1.40625 0.765625 C 1.394531 0.816406 1.394531 0.863281 1.40625 0.90625 C 1.425781 0.945312 1.46875 1 1.53125 1.0625 L 1.734375 1.265625 C 1.847656 1.378906 1.953125 1.457031 2.046875 1.5 C 2.148438 1.550781 2.253906 1.582031 2.359375 1.59375 C 2.460938 1.613281 2.566406 1.609375 2.671875 1.578125 C 2.785156 1.546875 2.910156 1.515625 3.046875 1.484375 L 3.21875 1.65625 Z M 2.1875 2.140625 "/></g></g></g><g fill="#ffffff" fill-opacity="1"><g transform="translate(12.91403, 14.831016)"><g><path d="M 1.734375 1.3125 L 1.859375 1.140625 C 1.992188 1.234375 2.09375 1.289062 2.15625 1.3125 C 2.21875 1.332031 2.269531 1.316406 2.3125 1.265625 C 2.320312 1.242188 2.332031 1.21875 2.34375 1.1875 C 2.351562 1.164062 2.367188 1.128906 2.390625 1.078125 C 2.421875 1.023438 2.445312 0.953125 2.46875 0.859375 C 2.5 0.765625 2.53125 0.644531 2.5625 0.5 L 1.609375 -0.203125 C 1.515625 -0.148438 1.425781 -0.101562 1.34375 -0.0625 C 1.28125 -0.0078125 1.21875 0.03125 1.15625 0.0625 C 1.101562 0.101562 1.070312 0.132812 1.0625 0.15625 C 1 0.226562 0.984375 0.304688 1.015625 0.390625 C 1.054688 0.472656 1.140625 0.570312 1.265625 0.6875 L 1.140625 0.859375 L 0.03125 0.03125 L 0.15625 -0.140625 C 0.21875 -0.117188 0.269531 -0.0976562 0.3125 -0.078125 C 0.363281 -0.0664062 0.421875 -0.0625 0.484375 -0.0625 C 0.554688 -0.0703125 0.628906 -0.09375 0.703125 -0.125 C 0.773438 -0.15625 0.863281 -0.195312 0.96875 -0.25 L 3.78125 -1.921875 L 3.953125 -1.796875 L 3.15625 1.5625 C 3.132812 1.65625 3.125 1.734375 3.125 1.796875 C 3.132812 1.867188 3.148438 1.929688 3.171875 1.984375 C 3.191406 2.046875 3.21875 2.097656 3.25 2.140625 C 3.28125 2.191406 3.316406 2.234375 3.359375 2.265625 L 3.234375 2.4375 Z M 2.921875 -1.015625 L 1.890625 -0.390625 L 2.640625 0.171875 Z M 2.921875 -1.015625 "/></g></g></g><g fill="#ffffff" fill-opacity="1"><g transform="translate(16.283101, 17.362399)"><g><path d="M 2.484375 1.40625 L 2.25 -0.65625 C 2.25 -0.664062 2.226562 -0.679688 2.1875 -0.703125 C 2.175781 -0.703125 2.164062 -0.707031 2.15625 -0.71875 C 2.144531 -0.726562 2.132812 -0.734375 2.125 -0.734375 L 1.640625 0.125 C 1.597656 0.207031 1.566406 0.273438 1.546875 0.328125 C 1.523438 0.378906 1.519531 0.429688 1.53125 0.484375 C 1.539062 0.546875 1.570312 0.597656 1.625 0.640625 C 1.675781 0.679688 1.753906 0.734375 1.859375 0.796875 L 1.75 0.984375 L 0.09375 0.046875 L 0.203125 -0.140625 C 0.296875 -0.0859375 0.375 -0.0507812 0.4375 -0.03125 C 0.5 -0.0078125 0.554688 -0.0078125 0.609375 -0.03125 C 0.660156 -0.0507812 0.707031 -0.0859375 0.75 -0.140625 C 0.800781 -0.191406 0.847656 -0.257812 0.890625 -0.34375 L 2.046875 -2.390625 C 2.085938 -2.460938 2.113281 -2.523438 2.125 -2.578125 C 2.144531 -2.628906 2.144531 -2.675781 2.125 -2.71875 C 2.113281 -2.757812 2.082031 -2.804688 2.03125 -2.859375 C 1.976562 -2.910156 1.90625 -2.960938 1.8125 -3.015625 L 1.921875 -3.203125 L 3.265625 -2.4375 C 3.453125 -2.332031 3.628906 -2.222656 3.796875 -2.109375 C 3.972656 -2.003906 4.113281 -1.878906 4.21875 -1.734375 C 4.320312 -1.597656 4.378906 -1.445312 4.390625 -1.28125 C 4.410156 -1.125 4.367188 -0.957031 4.265625 -0.78125 C 4.191406 -0.644531 4.109375 -0.535156 4.015625 -0.453125 C 3.929688 -0.367188 3.835938 -0.304688 3.734375 -0.265625 C 3.640625 -0.234375 3.539062 -0.21875 3.4375 -0.21875 C 3.34375 -0.21875 3.238281 -0.226562 3.125 -0.25 L 3.375 0.96875 C 3.40625 1.09375 3.429688 1.207031 3.453125 1.3125 C 3.484375 1.414062 3.515625 1.503906 3.546875 1.578125 C 3.585938 1.648438 3.632812 1.71875 3.6875 1.78125 C 3.738281 1.84375 3.800781 1.894531 3.875 1.9375 L 3.765625 2.125 Z M 3.453125 -1.171875 C 3.492188 -1.242188 3.523438 -1.316406 3.546875 -1.390625 C 3.578125 -1.472656 3.585938 -1.550781 3.578125 -1.625 C 3.566406 -1.707031 3.53125 -1.789062 3.46875 -1.875 C 3.414062 -1.957031 3.320312 -2.039062 3.1875 -2.125 C 3.144531 -2.132812 3.109375 -2.144531 3.078125 -2.15625 C 3.054688 -2.175781 3.035156 -2.191406 3.015625 -2.203125 C 2.992188 -2.222656 2.976562 -2.226562 2.96875 -2.21875 L 2.28125 -1.015625 C 2.300781 -1.003906 2.332031 -0.976562 2.375 -0.9375 C 2.425781 -0.90625 2.472656 -0.878906 2.515625 -0.859375 C 2.585938 -0.816406 2.664062 -0.789062 2.75 -0.78125 C 2.84375 -0.78125 2.929688 -0.789062 3.015625 -0.8125 C 3.109375 -0.832031 3.191406 -0.867188 3.265625 -0.921875 C 3.335938 -0.984375 3.398438 -1.066406 3.453125 -1.171875 Z M 3.453125 -1.171875 "/></g></g></g><g fill="#ffffff" fill-opacity="1"><g transform="translate(19.942192, 19.410098)"><g><path d="M 4.875 -1.828125 C 4.800781 -1.859375 4.734375 -1.878906 4.671875 -1.890625 C 4.617188 -1.898438 4.570312 -1.894531 4.53125 -1.875 C 4.488281 -1.863281 4.453125 -1.832031 4.421875 -1.78125 C 4.390625 -1.738281 4.359375 -1.679688 4.328125 -1.609375 L 3.15625 1.34375 L 2.859375 1.21875 L 1.890625 -2.21875 L 1.09375 -0.234375 C 1.0625 -0.160156 1.039062 -0.09375 1.03125 -0.03125 C 1.03125 0.0195312 1.039062 0.0664062 1.0625 0.109375 C 1.09375 0.148438 1.132812 0.1875 1.1875 0.21875 C 1.238281 0.257812 1.304688 0.296875 1.390625 0.328125 L 1.3125 0.53125 L 0.09375 0.03125 L 0.171875 -0.171875 C 0.242188 -0.140625 0.3125 -0.113281 0.375 -0.09375 C 0.4375 -0.0820312 0.488281 -0.0820312 0.53125 -0.09375 C 0.582031 -0.113281 0.625 -0.144531 0.65625 -0.1875 C 0.6875 -0.238281 0.71875 -0.300781 0.75 -0.375 L 1.703125 -2.765625 C 1.691406 -2.847656 1.675781 -2.914062 1.65625 -2.96875 C 1.644531 -3.019531 1.628906 -3.0625 1.609375 -3.09375 C 1.585938 -3.125 1.5625 -3.148438 1.53125 -3.171875 C 1.5 -3.191406 1.457031 -3.210938 1.40625 -3.234375 L 1.484375 -3.4375 L 2.609375 -2.984375 L 3.40625 -0.21875 L 4.015625 -1.75 C 4.046875 -1.820312 4.0625 -1.882812 4.0625 -1.9375 C 4.070312 -1.988281 4.066406 -2.035156 4.046875 -2.078125 C 4.023438 -2.117188 3.988281 -2.15625 3.9375 -2.1875 C 3.882812 -2.21875 3.816406 -2.253906 3.734375 -2.296875 L 3.8125 -2.5 L 4.953125 -2.03125 Z M 4.875 -1.828125 "/></g></g></g><g fill="#ffffff" fill-opacity="1"><g transform="translate(23.713475, 20.871397)"><g><path d="M 0.109375 0.03125 L 0.171875 -0.171875 C 0.273438 -0.140625 0.363281 -0.117188 0.4375 -0.109375 C 0.507812 -0.109375 0.566406 -0.117188 0.609375 -0.140625 C 0.660156 -0.171875 0.695312 -0.21875 0.71875 -0.28125 C 0.75 -0.34375 0.78125 -0.414062 0.8125 -0.5 L 1.4375 -2.703125 C 1.46875 -2.796875 1.488281 -2.875 1.5 -2.9375 C 1.507812 -3.007812 1.5 -3.066406 1.46875 -3.109375 C 1.445312 -3.148438 1.40625 -3.191406 1.34375 -3.234375 C 1.28125 -3.273438 1.195312 -3.3125 1.09375 -3.34375 L 1.15625 -3.5625 L 3 -3.03125 L 2.9375 -2.8125 C 2.832031 -2.84375 2.742188 -2.851562 2.671875 -2.84375 C 2.597656 -2.84375 2.535156 -2.832031 2.484375 -2.8125 C 2.441406 -2.789062 2.40625 -2.75 2.375 -2.6875 C 2.34375 -2.625 2.3125 -2.546875 2.28125 -2.453125 L 1.65625 -0.25 C 1.625 -0.164062 1.601562 -0.0859375 1.59375 -0.015625 C 1.59375 0.046875 1.601562 0.0976562 1.625 0.140625 C 1.65625 0.191406 1.703125 0.234375 1.765625 0.265625 C 1.828125 0.296875 1.910156 0.328125 2.015625 0.359375 L 1.953125 0.5625 Z M 0.109375 0.03125 "/></g></g></g><g fill="#ffffff" fill-opacity="1"><g transform="translate(25.86433, 21.536215)"><g><path d="M 4.421875 -2.75 C 4.335938 -2.769531 4.265625 -2.78125 4.203125 -2.78125 C 4.140625 -2.78125 4.085938 -2.765625 4.046875 -2.734375 C 4.015625 -2.710938 3.988281 -2.675781 3.96875 -2.625 C 3.945312 -2.582031 3.929688 -2.519531 3.921875 -2.4375 L 3.34375 0.6875 L 3.03125 0.625 L 1.40625 -2.546875 L 1.015625 -0.4375 C 1.003906 -0.351562 1 -0.285156 1 -0.234375 C 1.007812 -0.191406 1.03125 -0.148438 1.0625 -0.109375 C 1.101562 -0.0664062 1.15625 -0.0351562 1.21875 -0.015625 C 1.28125 0.00390625 1.351562 0.0195312 1.4375 0.03125 L 1.390625 0.25 L 0.09375 0.015625 L 0.140625 -0.203125 C 0.222656 -0.179688 0.296875 -0.171875 0.359375 -0.171875 C 0.421875 -0.171875 0.46875 -0.179688 0.5 -0.203125 C 0.539062 -0.234375 0.570312 -0.269531 0.59375 -0.3125 C 0.625 -0.351562 0.644531 -0.414062 0.65625 -0.5 L 1.125 -3.046875 C 1.082031 -3.117188 1.050781 -3.175781 1.03125 -3.21875 C 1.019531 -3.269531 1 -3.3125 0.96875 -3.34375 C 0.945312 -3.375 0.914062 -3.394531 0.875 -3.40625 C 0.84375 -3.414062 0.796875 -3.425781 0.734375 -3.4375 L 0.765625 -3.65625 L 1.96875 -3.4375 L 3.296875 -0.875 L 3.59375 -2.5 C 3.601562 -2.582031 3.601562 -2.648438 3.59375 -2.703125 C 3.59375 -2.753906 3.578125 -2.796875 3.546875 -2.828125 C 3.515625 -2.867188 3.472656 -2.898438 3.421875 -2.921875 C 3.367188 -2.941406 3.296875 -2.960938 3.203125 -2.984375 L 3.234375 -3.203125 L 4.453125 -2.96875 Z M 4.421875 -2.75 "/></g></g></g><g fill="#ffffff" fill-opacity="1"><g transform="translate(29.88282, 22.282331)"><g><path d="M 4.390625 -1.625 C 4.296875 -1.632812 4.21875 -1.628906 4.15625 -1.609375 C 4.101562 -1.585938 4.0625 -1.554688 4.03125 -1.515625 C 4 -1.484375 3.972656 -1.4375 3.953125 -1.375 C 3.941406 -1.3125 3.9375 -1.226562 3.9375 -1.125 L 3.890625 -0.140625 C 3.648438 -0.015625 3.394531 0.0703125 3.125 0.125 C 2.863281 0.175781 2.570312 0.195312 2.25 0.1875 C 1.90625 0.164062 1.609375 0.0976562 1.359375 -0.015625 C 1.109375 -0.140625 0.898438 -0.296875 0.734375 -0.484375 C 0.566406 -0.679688 0.445312 -0.894531 0.375 -1.125 C 0.3125 -1.363281 0.285156 -1.609375 0.296875 -1.859375 C 0.304688 -2.097656 0.363281 -2.332031 0.46875 -2.5625 C 0.582031 -2.800781 0.726562 -3.003906 0.90625 -3.171875 C 1.082031 -3.347656 1.300781 -3.484375 1.5625 -3.578125 C 1.820312 -3.679688 2.113281 -3.722656 2.4375 -3.703125 C 2.59375 -3.703125 2.726562 -3.6875 2.84375 -3.65625 C 2.96875 -3.625 3.078125 -3.585938 3.171875 -3.546875 C 3.273438 -3.503906 3.359375 -3.46875 3.421875 -3.4375 C 3.484375 -3.40625 3.535156 -3.390625 3.578125 -3.390625 C 3.609375 -3.390625 3.628906 -3.398438 3.640625 -3.421875 C 3.660156 -3.441406 3.675781 -3.46875 3.6875 -3.5 C 3.695312 -3.53125 3.703125 -3.5625 3.703125 -3.59375 C 3.710938 -3.625 3.71875 -3.648438 3.71875 -3.671875 L 3.9375 -3.65625 L 3.984375 -2.3125 L 3.765625 -2.3125 C 3.734375 -2.476562 3.675781 -2.628906 3.59375 -2.765625 C 3.519531 -2.898438 3.429688 -3.015625 3.328125 -3.109375 C 3.222656 -3.203125 3.109375 -3.273438 2.984375 -3.328125 C 2.859375 -3.378906 2.726562 -3.410156 2.59375 -3.421875 C 2.375 -3.429688 2.1875 -3.394531 2.03125 -3.3125 C 1.875 -3.238281 1.738281 -3.128906 1.625 -2.984375 C 1.519531 -2.835938 1.4375 -2.664062 1.375 -2.46875 C 1.320312 -2.269531 1.289062 -2.054688 1.28125 -1.828125 C 1.269531 -1.609375 1.273438 -1.394531 1.296875 -1.1875 C 1.328125 -0.988281 1.378906 -0.804688 1.453125 -0.640625 C 1.535156 -0.484375 1.65625 -0.351562 1.8125 -0.25 C 1.96875 -0.15625 2.164062 -0.101562 2.40625 -0.09375 C 2.539062 -0.0820312 2.65625 -0.0859375 2.75 -0.109375 C 2.84375 -0.140625 2.929688 -0.179688 3.015625 -0.234375 L 3.0625 -1.15625 C 3.0625 -1.257812 3.054688 -1.34375 3.046875 -1.40625 C 3.046875 -1.46875 3.023438 -1.519531 2.984375 -1.5625 C 2.953125 -1.613281 2.90625 -1.648438 2.84375 -1.671875 C 2.78125 -1.691406 2.703125 -1.707031 2.609375 -1.71875 L 2.625 -1.9375 L 4.40625 -1.84375 Z M 4.390625 -1.625 "/></g></g></g><g fill="#ffffff" fill-opacity="1"><g transform="translate(34.373137, 22.416671)"><g/></g></g><g fill="#ffffff" fill-opacity="1"><g transform="translate(36.330572, 22.334829)"><g><path d="M 2.84375 -3.15625 C 2.863281 -3.007812 2.851562 -2.867188 2.8125 -2.734375 C 2.78125 -2.597656 2.707031 -2.472656 2.59375 -2.359375 C 2.488281 -2.242188 2.347656 -2.144531 2.171875 -2.0625 C 2.003906 -1.976562 1.785156 -1.914062 1.515625 -1.875 C 1.472656 -1.875 1.4375 -1.867188 1.40625 -1.859375 C 1.382812 -1.859375 1.363281 -1.859375 1.34375 -1.859375 C 1.3125 -1.847656 1.285156 -1.847656 1.265625 -1.859375 L 1.40625 -0.890625 C 1.414062 -0.796875 1.429688 -0.71875 1.453125 -0.65625 C 1.472656 -0.601562 1.503906 -0.5625 1.546875 -0.53125 C 1.585938 -0.507812 1.640625 -0.492188 1.703125 -0.484375 C 1.773438 -0.484375 1.867188 -0.492188 1.984375 -0.515625 L 2.015625 -0.296875 L 0.125 -0.015625 L 0.09375 -0.234375 C 0.207031 -0.253906 0.296875 -0.273438 0.359375 -0.296875 C 0.429688 -0.328125 0.484375 -0.359375 0.515625 -0.390625 C 0.546875 -0.429688 0.5625 -0.484375 0.5625 -0.546875 C 0.5625 -0.609375 0.554688 -0.6875 0.546875 -0.78125 L 0.1875 -3.171875 C 0.175781 -3.265625 0.160156 -3.335938 0.140625 -3.390625 C 0.128906 -3.441406 0.101562 -3.476562 0.0625 -3.5 C 0.0195312 -3.519531 -0.03125 -3.53125 -0.09375 -3.53125 C -0.164062 -3.53125 -0.257812 -3.519531 -0.375 -3.5 L -0.40625 -3.71875 L 1.375 -3.984375 C 1.582031 -4.015625 1.769531 -4.015625 1.9375 -3.984375 C 2.101562 -3.960938 2.25 -3.914062 2.375 -3.84375 C 2.5 -3.769531 2.601562 -3.675781 2.6875 -3.5625 C 2.769531 -3.445312 2.820312 -3.3125 2.84375 -3.15625 Z M 1.921875 -3.03125 C 1.910156 -3.132812 1.882812 -3.222656 1.84375 -3.296875 C 1.8125 -3.378906 1.769531 -3.445312 1.71875 -3.5 C 1.664062 -3.5625 1.585938 -3.597656 1.484375 -3.609375 C 1.390625 -3.628906 1.273438 -3.628906 1.140625 -3.609375 C 1.117188 -3.609375 1.097656 -3.601562 1.078125 -3.59375 C 1.066406 -3.59375 1.054688 -3.59375 1.046875 -3.59375 C 1.035156 -3.59375 1.023438 -3.585938 1.015625 -3.578125 L 1.21875 -2.171875 C 1.226562 -2.171875 1.238281 -2.171875 1.25 -2.171875 C 1.257812 -2.160156 1.269531 -2.15625 1.28125 -2.15625 C 1.300781 -2.164062 1.320312 -2.171875 1.34375 -2.171875 C 1.476562 -2.191406 1.585938 -2.226562 1.671875 -2.28125 C 1.765625 -2.34375 1.828125 -2.40625 1.859375 -2.46875 C 1.898438 -2.539062 1.921875 -2.625 1.921875 -2.71875 C 1.929688 -2.820312 1.929688 -2.925781 1.921875 -3.03125 Z M 1.921875 -3.03125 "/></g></g></g><g fill="#ffffff" fill-opacity="1"><g transform="translate(39.843886, 21.826565)"><g><path d="M 3.125 -0.828125 L 0.109375 -0.03125 L 0.046875 -0.25 C 0.148438 -0.28125 0.234375 -0.3125 0.296875 -0.34375 C 0.359375 -0.375 0.40625 -0.410156 0.4375 -0.453125 C 0.46875 -0.503906 0.476562 -0.566406 0.46875 -0.640625 C 0.46875 -0.710938 0.457031 -0.789062 0.4375 -0.875 L -0.15625 -3.0625 C -0.175781 -3.15625 -0.203125 -3.234375 -0.234375 -3.296875 C -0.265625 -3.359375 -0.300781 -3.398438 -0.34375 -3.421875 C -0.394531 -3.453125 -0.457031 -3.46875 -0.53125 -3.46875 C -0.601562 -3.46875 -0.691406 -3.453125 -0.796875 -3.421875 L -0.859375 -3.640625 L 1.03125 -4.140625 L 1.09375 -3.921875 C 0.988281 -3.890625 0.898438 -3.859375 0.828125 -3.828125 C 0.765625 -3.796875 0.71875 -3.753906 0.6875 -3.703125 C 0.65625 -3.660156 0.640625 -3.601562 0.640625 -3.53125 C 0.640625 -3.457031 0.648438 -3.375 0.671875 -3.28125 L 1.265625 -1.09375 C 1.285156 -1.019531 1.304688 -0.957031 1.328125 -0.90625 C 1.359375 -0.851562 1.394531 -0.816406 1.4375 -0.796875 C 1.476562 -0.773438 1.539062 -0.769531 1.625 -0.78125 C 1.71875 -0.789062 1.828125 -0.816406 1.953125 -0.859375 L 2.25 -0.9375 C 2.332031 -0.957031 2.410156 -0.988281 2.484375 -1.03125 C 2.566406 -1.082031 2.632812 -1.160156 2.6875 -1.265625 C 2.75 -1.367188 2.800781 -1.488281 2.84375 -1.625 C 2.894531 -1.757812 2.929688 -1.929688 2.953125 -2.140625 L 3.15625 -2.203125 Z M 3.125 -0.828125 "/></g></g></g><g fill="#ffffff" fill-opacity="1"><g transform="translate(43.554051, 20.838853)"><g><path d="M 2.015625 -0.828125 L 1.9375 -1.03125 C 2.082031 -1.09375 2.179688 -1.144531 2.234375 -1.1875 C 2.285156 -1.238281 2.300781 -1.289062 2.28125 -1.34375 C 2.269531 -1.363281 2.253906 -1.382812 2.234375 -1.40625 C 2.222656 -1.4375 2.195312 -1.472656 2.15625 -1.515625 C 2.125 -1.566406 2.070312 -1.625 2 -1.6875 C 1.925781 -1.757812 1.835938 -1.847656 1.734375 -1.953125 L 0.625 -1.5 C 0.632812 -1.382812 0.640625 -1.28125 0.640625 -1.1875 C 0.640625 -1.101562 0.644531 -1.023438 0.65625 -0.953125 C 0.664062 -0.890625 0.671875 -0.851562 0.671875 -0.84375 C 0.710938 -0.75 0.773438 -0.691406 0.859375 -0.671875 C 0.941406 -0.660156 1.070312 -0.6875 1.25 -0.75 L 1.328125 -0.546875 L 0.046875 -0.015625 L -0.03125 -0.21875 C 0.0078125 -0.25 0.0507812 -0.285156 0.09375 -0.328125 C 0.132812 -0.367188 0.164062 -0.410156 0.1875 -0.453125 C 0.21875 -0.503906 0.238281 -0.570312 0.25 -0.65625 C 0.257812 -0.738281 0.269531 -0.835938 0.28125 -0.953125 L 0.28125 -4.234375 L 0.484375 -4.3125 L 2.953125 -1.921875 C 3.015625 -1.847656 3.078125 -1.796875 3.140625 -1.765625 C 3.210938 -1.742188 3.28125 -1.722656 3.34375 -1.703125 C 3.40625 -1.691406 3.460938 -1.6875 3.515625 -1.6875 C 3.566406 -1.695312 3.617188 -1.710938 3.671875 -1.734375 L 3.75 -1.53125 Z M 0.625 -3.03125 L 0.625 -1.828125 L 1.484375 -2.171875 Z M 0.625 -3.03125 "/></g></g></g><g fill="#ffffff" fill-opacity="1"><g transform="translate(47.440991, 19.226711)"><g><path d="M 1.640625 -3.9375 C 1.484375 -4.175781 1.3125 -4.3125 1.125 -4.34375 C 0.945312 -4.382812 0.75 -4.34375 0.53125 -4.21875 L 0.328125 -4.09375 L 1.671875 -1.75 C 1.710938 -1.664062 1.75 -1.597656 1.78125 -1.546875 C 1.820312 -1.503906 1.867188 -1.476562 1.921875 -1.46875 C 1.984375 -1.457031 2.046875 -1.460938 2.109375 -1.484375 C 2.179688 -1.503906 2.265625 -1.539062 2.359375 -1.59375 L 2.46875 -1.40625 L 0.78125 -0.453125 L 0.671875 -0.640625 C 0.773438 -0.691406 0.851562 -0.742188 0.90625 -0.796875 C 0.957031 -0.847656 0.988281 -0.898438 1 -0.953125 C 1.019531 -1.003906 1.019531 -1.054688 1 -1.109375 C 0.976562 -1.160156 0.945312 -1.226562 0.90625 -1.3125 L -0.4375 -3.65625 L -0.671875 -3.53125 C -0.785156 -3.46875 -0.875 -3.398438 -0.9375 -3.328125 C -1.007812 -3.265625 -1.054688 -3.1875 -1.078125 -3.09375 C -1.109375 -3.007812 -1.113281 -2.910156 -1.09375 -2.796875 C -1.082031 -2.691406 -1.050781 -2.570312 -1 -2.4375 L -1.1875 -2.328125 L -1.6875 -3.328125 L 1.25 -5.015625 L 1.828125 -4.046875 Z M 1.640625 -3.9375 "/></g></g></g><g fill="#ffffff" fill-opacity="1"><g transform="translate(50.803939, 17.294069)"><g><path d="M 0.734375 -3.953125 C 0.648438 -4.023438 0.566406 -4.082031 0.484375 -4.125 C 0.410156 -4.175781 0.335938 -4.207031 0.265625 -4.21875 C 0.203125 -4.238281 0.128906 -4.234375 0.046875 -4.203125 C -0.0351562 -4.171875 -0.128906 -4.117188 -0.234375 -4.046875 L -0.796875 -3.640625 L 0 -2.5625 L 0.28125 -2.765625 C 0.363281 -2.828125 0.425781 -2.890625 0.46875 -2.953125 C 0.507812 -3.015625 0.53125 -3.078125 0.53125 -3.140625 C 0.539062 -3.210938 0.523438 -3.285156 0.484375 -3.359375 C 0.453125 -3.441406 0.410156 -3.53125 0.359375 -3.625 L 0.53125 -3.75 L 1.46875 -2.5 L 1.296875 -2.375 C 1.203125 -2.445312 1.128906 -2.507812 1.078125 -2.5625 C 1.023438 -2.613281 0.960938 -2.644531 0.890625 -2.65625 C 0.828125 -2.675781 0.765625 -2.671875 0.703125 -2.640625 C 0.640625 -2.617188 0.5625 -2.578125 0.46875 -2.515625 L 0.1875 -2.3125 L 0.78125 -1.5 C 0.832031 -1.425781 0.882812 -1.363281 0.9375 -1.3125 C 0.988281 -1.269531 1.035156 -1.238281 1.078125 -1.21875 C 1.128906 -1.207031 1.191406 -1.210938 1.265625 -1.234375 C 1.335938 -1.265625 1.421875 -1.316406 1.515625 -1.390625 L 1.640625 -1.21875 L 0.09375 -0.0625 L -0.03125 -0.234375 C 0.0507812 -0.304688 0.113281 -0.367188 0.15625 -0.421875 C 0.195312 -0.472656 0.222656 -0.523438 0.234375 -0.578125 C 0.242188 -0.640625 0.234375 -0.703125 0.203125 -0.765625 C 0.171875 -0.828125 0.128906 -0.894531 0.078125 -0.96875 L -1.265625 -2.796875 C -1.316406 -2.867188 -1.367188 -2.925781 -1.421875 -2.96875 C -1.472656 -3.019531 -1.523438 -3.046875 -1.578125 -3.046875 C -1.628906 -3.054688 -1.6875 -3.050781 -1.75 -3.03125 C -1.820312 -3.007812 -1.898438 -2.960938 -1.984375 -2.890625 L -2.125 -3.0625 L 0.28125 -4.84375 L 0.90625 -4.0625 Z M 0.734375 -3.953125 "/></g></g></g><g fill="#ffffff" fill-opacity="1"><g transform="translate(53.685237, 15.197934)"><g><path d="M 1.71875 -4.25 C 1.90625 -4.050781 2.046875 -3.832031 2.140625 -3.59375 C 2.234375 -3.351562 2.28125 -3.113281 2.28125 -2.875 C 2.289062 -2.632812 2.242188 -2.390625 2.140625 -2.140625 C 2.035156 -1.890625 1.867188 -1.660156 1.640625 -1.453125 C 1.421875 -1.242188 1.1875 -1.09375 0.9375 -1 C 0.6875 -0.90625 0.4375 -0.859375 0.1875 -0.859375 C -0.0625 -0.867188 -0.300781 -0.925781 -0.53125 -1.03125 C -0.757812 -1.144531 -0.96875 -1.300781 -1.15625 -1.5 C -1.332031 -1.6875 -1.46875 -1.898438 -1.5625 -2.140625 C -1.65625 -2.378906 -1.695312 -2.625 -1.6875 -2.875 C -1.675781 -3.132812 -1.617188 -3.378906 -1.515625 -3.609375 C -1.421875 -3.835938 -1.269531 -4.054688 -1.0625 -4.265625 C -0.84375 -4.472656 -0.609375 -4.625 -0.359375 -4.71875 C -0.109375 -4.8125 0.140625 -4.851562 0.390625 -4.84375 C 0.640625 -4.832031 0.878906 -4.773438 1.109375 -4.671875 C 1.335938 -4.578125 1.539062 -4.4375 1.71875 -4.25 Z M 1.015625 -3.515625 C 0.929688 -3.609375 0.835938 -3.703125 0.734375 -3.796875 C 0.628906 -3.890625 0.523438 -3.96875 0.421875 -4.03125 C 0.316406 -4.101562 0.207031 -4.160156 0.09375 -4.203125 C -0.0195312 -4.242188 -0.128906 -4.269531 -0.234375 -4.28125 C -0.347656 -4.289062 -0.457031 -4.273438 -0.5625 -4.234375 C -0.664062 -4.203125 -0.765625 -4.144531 -0.859375 -4.0625 C -0.953125 -3.96875 -1.019531 -3.867188 -1.0625 -3.765625 C -1.101562 -3.671875 -1.117188 -3.566406 -1.109375 -3.453125 C -1.109375 -3.335938 -1.085938 -3.222656 -1.046875 -3.109375 C -1.003906 -3.003906 -0.953125 -2.894531 -0.890625 -2.78125 C -0.828125 -2.675781 -0.753906 -2.570312 -0.671875 -2.46875 C -0.597656 -2.363281 -0.523438 -2.269531 -0.453125 -2.1875 C -0.378906 -2.113281 -0.289062 -2.035156 -0.1875 -1.953125 C -0.0820312 -1.867188 0.0195312 -1.789062 0.125 -1.71875 C 0.226562 -1.65625 0.335938 -1.597656 0.453125 -1.546875 C 0.566406 -1.492188 0.679688 -1.460938 0.796875 -1.453125 C 0.910156 -1.441406 1.019531 -1.445312 1.125 -1.46875 C 1.238281 -1.5 1.34375 -1.5625 1.4375 -1.65625 C 1.570312 -1.78125 1.648438 -1.925781 1.671875 -2.09375 C 1.691406 -2.257812 1.671875 -2.425781 1.609375 -2.59375 C 1.554688 -2.757812 1.472656 -2.925781 1.359375 -3.09375 C 1.253906 -3.257812 1.140625 -3.398438 1.015625 -3.515625 Z M 1.015625 -3.515625 "/></g></g></g><g fill="#ffffff" fill-opacity="1"><g transform="translate(56.931567, 12.065828)"><g><path d="M 1.78125 -2.234375 L -0.3125 -2.328125 C -0.3125 -2.328125 -0.328125 -2.304688 -0.359375 -2.265625 C -0.367188 -2.265625 -0.375 -2.253906 -0.375 -2.234375 C -0.382812 -2.222656 -0.394531 -2.210938 -0.40625 -2.203125 L 0.375 -1.59375 C 0.445312 -1.53125 0.503906 -1.488281 0.546875 -1.46875 C 0.597656 -1.445312 0.65625 -1.4375 0.71875 -1.4375 C 0.78125 -1.445312 0.835938 -1.472656 0.890625 -1.515625 C 0.941406 -1.554688 1 -1.617188 1.0625 -1.703125 L 1.234375 -1.5625 L 0.0625 -0.078125 L -0.109375 -0.21875 C -0.0351562 -0.300781 0.015625 -0.375 0.046875 -0.4375 C 0.078125 -0.507812 0.0820312 -0.570312 0.0625 -0.625 C 0.0507812 -0.675781 0.0234375 -0.726562 -0.015625 -0.78125 C -0.0664062 -0.832031 -0.128906 -0.882812 -0.203125 -0.9375 L -2.03125 -2.390625 C -2.101562 -2.441406 -2.160156 -2.476562 -2.203125 -2.5 C -2.253906 -2.53125 -2.300781 -2.539062 -2.34375 -2.53125 C -2.394531 -2.53125 -2.445312 -2.503906 -2.5 -2.453125 C -2.550781 -2.410156 -2.613281 -2.347656 -2.6875 -2.265625 L -2.859375 -2.390625 L -1.890625 -3.609375 C -1.765625 -3.773438 -1.632812 -3.929688 -1.5 -4.078125 C -1.363281 -4.222656 -1.21875 -4.335938 -1.0625 -4.421875 C -0.90625 -4.515625 -0.742188 -4.554688 -0.578125 -4.546875 C -0.421875 -4.546875 -0.265625 -4.476562 -0.109375 -4.34375 C 0.015625 -4.25 0.109375 -4.148438 0.171875 -4.046875 C 0.234375 -3.953125 0.273438 -3.851562 0.296875 -3.75 C 0.328125 -3.644531 0.332031 -3.539062 0.3125 -3.4375 C 0.300781 -3.34375 0.273438 -3.242188 0.234375 -3.140625 L 1.46875 -3.171875 C 1.613281 -3.179688 1.738281 -3.191406 1.84375 -3.203125 C 1.945312 -3.210938 2.035156 -3.234375 2.109375 -3.265625 C 2.191406 -3.296875 2.265625 -3.332031 2.328125 -3.375 C 2.398438 -3.414062 2.460938 -3.46875 2.515625 -3.53125 L 2.6875 -3.390625 Z M -0.609375 -3.59375 C -0.679688 -3.644531 -0.753906 -3.691406 -0.828125 -3.734375 C -0.898438 -3.773438 -0.976562 -3.796875 -1.0625 -3.796875 C -1.144531 -3.796875 -1.226562 -3.769531 -1.3125 -3.71875 C -1.40625 -3.675781 -1.5 -3.59375 -1.59375 -3.46875 C -1.625 -3.4375 -1.644531 -3.40625 -1.65625 -3.375 C -1.675781 -3.351562 -1.695312 -3.335938 -1.71875 -3.328125 C -1.726562 -3.296875 -1.734375 -3.273438 -1.734375 -3.265625 L -0.65625 -2.40625 C -0.632812 -2.414062 -0.601562 -2.441406 -0.5625 -2.484375 C -0.519531 -2.535156 -0.484375 -2.582031 -0.453125 -2.625 C -0.398438 -2.695312 -0.363281 -2.769531 -0.34375 -2.84375 C -0.320312 -2.925781 -0.316406 -3.015625 -0.328125 -3.109375 C -0.335938 -3.203125 -0.363281 -3.285156 -0.40625 -3.359375 C -0.457031 -3.441406 -0.523438 -3.519531 -0.609375 -3.59375 Z M -0.609375 -3.59375 "/></g></g></g><g fill="#ffffff" fill-opacity="1"><g transform="translate(59.580025, 8.777777)"><g><path d="M 1.578125 -2.78125 L 1.390625 -2.890625 C 1.453125 -2.992188 1.492188 -3.078125 1.515625 -3.140625 C 1.546875 -3.210938 1.554688 -3.273438 1.546875 -3.328125 C 1.546875 -3.390625 1.523438 -3.441406 1.484375 -3.484375 C 1.441406 -3.523438 1.378906 -3.570312 1.296875 -3.625 L -0.78125 -4.8125 L 1.203125 -2.125 L 1.125 -1.96875 L -2.296875 -2.359375 L -0.125 -1.125 C -0.0390625 -1.070312 0.03125 -1.039062 0.09375 -1.03125 C 0.164062 -1.019531 0.222656 -1.03125 0.265625 -1.0625 C 0.316406 -1.09375 0.363281 -1.132812 0.40625 -1.1875 C 0.445312 -1.238281 0.488281 -1.304688 0.53125 -1.390625 L 0.71875 -1.28125 L 0.015625 -0.046875 L -0.171875 -0.15625 C -0.128906 -0.226562 -0.09375 -0.296875 -0.0625 -0.359375 C -0.0390625 -0.421875 -0.03125 -0.472656 -0.03125 -0.515625 C -0.03125 -0.566406 -0.0507812 -0.613281 -0.09375 -0.65625 C -0.144531 -0.707031 -0.210938 -0.757812 -0.296875 -0.8125 L -2.359375 -1.984375 C -2.441406 -2.023438 -2.507812 -2.0625 -2.5625 -2.09375 C -2.613281 -2.125 -2.660156 -2.132812 -2.703125 -2.125 C -2.753906 -2.125 -2.800781 -2.097656 -2.84375 -2.046875 C -2.894531 -2.003906 -2.953125 -1.929688 -3.015625 -1.828125 L -3.203125 -1.9375 L -2.453125 -3.25 L 0.1875 -2.90625 L -1.40625 -5.09375 L -0.6875 -6.375 L -0.5 -6.265625 C -0.550781 -6.160156 -0.582031 -6.078125 -0.59375 -6.015625 C -0.613281 -5.953125 -0.617188 -5.890625 -0.609375 -5.828125 C -0.597656 -5.773438 -0.566406 -5.726562 -0.515625 -5.6875 C -0.472656 -5.644531 -0.410156 -5.601562 -0.328125 -5.5625 L 1.734375 -4.390625 C 1.816406 -4.335938 1.882812 -4.300781 1.9375 -4.28125 C 2 -4.269531 2.050781 -4.273438 2.09375 -4.296875 C 2.144531 -4.316406 2.191406 -4.351562 2.234375 -4.40625 C 2.273438 -4.457031 2.320312 -4.535156 2.375 -4.640625 L 2.5625 -4.53125 Z M 1.578125 -2.78125 "/></g></g></g></g></g></g></g></g></g></svg>