<svg xmlns="http://www.w3.org/2000/svg" xmlns:xlink="http://www.w3.org/1999/xlink" width="140" zoomAndPan="magnify" viewBox="0 0 104.88 30.000001" height="40" preserveAspectRatio="xMidYMid meet" version="1.0"><defs><g/><clipPath id="713f6e4b8c"><path d="M 38.015625 0.09375 L 66.863281 0.09375 L 66.863281 28.9375 L 38.015625 28.9375 Z M 38.015625 0.09375 " clip-rule="nonzero"/></clipPath><clipPath id="d060175482"><path d="M 52.441406 0.09375 C 44.472656 0.09375 38.015625 6.550781 38.015625 14.515625 C 38.015625 22.480469 44.472656 28.9375 52.441406 28.9375 C 60.40625 28.9375 66.863281 22.480469 66.863281 14.515625 C 66.863281 6.550781 60.40625 0.09375 52.441406 0.09375 Z M 52.441406 0.09375 " clip-rule="nonzero"/></clipPath><clipPath id="fb1bcd71fd"><path d="M 0.015625 0.09375 L 28.863281 0.09375 L 28.863281 28.9375 L 0.015625 28.9375 Z M 0.015625 0.09375 " clip-rule="nonzero"/></clipPath><clipPath id="dfd5ee430d"><path d="M 14.441406 0.09375 C 6.472656 0.09375 0.015625 6.550781 0.015625 14.515625 C 0.015625 22.480469 6.472656 28.9375 14.441406 28.9375 C 22.40625 28.9375 28.863281 22.480469 28.863281 14.515625 C 28.863281 6.550781 22.40625 0.09375 14.441406 0.09375 Z M 14.441406 0.09375 " clip-rule="nonzero"/></clipPath><clipPath id="14716364aa"><rect x="0" width="29" y="0" height="29"/></clipPath><clipPath id="76ec914ee8"><path d="M 37.925781 0 L 66.957031 0 L 66.957031 29.03125 L 37.925781 29.03125 Z M 37.925781 0 " clip-rule="nonzero"/></clipPath><clipPath id="a2e76c9ebd"><path d="M 48 12.367188 L 57 12.367188 L 57 20 L 48 20 Z M 48 12.367188 " clip-rule="nonzero"/></clipPath><clipPath id="4ccf2c93c4"><path d="M 45.371094 16 L 53 16 L 53 21.804688 L 45.371094 21.804688 Z M 45.371094 16 " clip-rule="nonzero"/></clipPath><clipPath id="630e5b21bb"><path d="M 52 16 L 59.164062 16 L 59.164062 21.804688 L 52 21.804688 Z M 52 16 " clip-rule="nonzero"/></clipPath><clipPath id="824f6e8ddc"><path d="M 52 18 L 59 18 L 59 21.804688 L 52 21.804688 Z M 52 18 " clip-rule="nonzero"/></clipPath><clipPath id="9dc2cf3369"><path d="M 46 18 L 53 18 L 53 21.804688 L 46 21.804688 Z M 46 18 " clip-rule="nonzero"/></clipPath><clipPath id="06537ac45d"><rect x="0" width="23" y="0" height="9"/></clipPath><clipPath id="daac334a45"><path d="M 50 7.125 L 55 7.125 L 55 10.753906 L 50 10.753906 Z M 50 7.125 " clip-rule="nonzero"/></clipPath><clipPath id="ddff7294b7"><path d="M 54 8 L 57.160156 8 L 57.160156 10.753906 L 54 10.753906 Z M 54 8 " clip-rule="nonzero"/></clipPath><clipPath id="0028beffda"><path d="M 47.722656 8 L 51 8 L 51 10.753906 L 47.722656 10.753906 Z M 47.722656 8 " clip-rule="nonzero"/></clipPath><clipPath id="26ebf452bc"><path d="M 39 18 L 66 18 L 66 29.03125 L 39 29.03125 Z M 39 18 " clip-rule="nonzero"/></clipPath><clipPath id="2b4864c647"><rect x="0" width="27" y="0" height="12"/></clipPath></defs><g clip-path="url(#713f6e4b8c)"><g clip-path="url(#d060175482)"><g transform="matrix(1, 0, 0, 1, 38, 0.000000000000005692)"><g clip-path="url(#14716364aa)"><g clip-path="url(#fb1bcd71fd)"><g clip-path="url(#dfd5ee430d)"><path fill="#ffffff" d="M 0.015625 0.09375 L 28.863281 0.09375 L 28.863281 28.9375 L 0.015625 28.9375 Z M 0.015625 0.09375 " fill-opacity="1" fill-rule="nonzero"/></g></g></g></g></g></g><g clip-path="url(#76ec914ee8)"><path fill="#622069" d="M 52.4375 29.03125 C 48.5625 29.03125 44.917969 27.519531 42.175781 24.777344 C 39.433594 22.035156 37.925781 18.390625 37.925781 14.515625 C 37.925781 10.636719 39.433594 6.992188 42.175781 4.25 C 44.917969 1.511719 48.5625 0 52.4375 0 C 56.316406 0 59.960938 1.511719 62.703125 4.25 C 65.445312 6.992188 66.953125 10.636719 66.953125 14.515625 C 66.953125 18.390625 65.445312 22.035156 62.703125 24.777344 C 59.960938 27.519531 56.316406 29.03125 52.4375 29.03125 Z M 52.4375 0.121094 C 48.59375 0.121094 44.980469 1.617188 42.257812 4.335938 C 39.539062 7.054688 38.042969 10.667969 38.042969 14.515625 C 38.042969 18.359375 39.539062 21.976562 42.257812 24.695312 C 44.980469 27.414062 48.59375 28.910156 52.4375 28.910156 C 56.285156 28.910156 59.898438 27.414062 62.617188 24.695312 C 65.335938 21.976562 66.835938 18.359375 66.835938 14.515625 C 66.835938 10.667969 65.335938 7.054688 62.617188 4.335938 C 59.898438 1.617188 56.285156 0.121094 52.4375 0.121094 Z M 52.4375 0.121094 " fill-opacity="1" fill-rule="nonzero"/></g><path fill="#ffffff" d="M 52.4375 24.066406 C 47.171875 24.066406 42.890625 19.78125 42.890625 14.515625 C 42.890625 9.25 47.171875 4.964844 52.4375 4.964844 C 57.703125 4.964844 61.988281 9.25 61.988281 14.515625 C 61.988281 19.78125 57.703125 24.066406 52.4375 24.066406 Z M 52.4375 5.085938 C 47.238281 5.085938 43.007812 9.316406 43.007812 14.515625 C 43.007812 19.714844 47.238281 23.945312 52.4375 23.945312 C 57.640625 23.945312 61.871094 19.714844 61.871094 14.515625 C 61.871094 9.316406 57.640625 5.085938 52.4375 5.085938 Z M 52.4375 5.085938 " fill-opacity="1" fill-rule="nonzero"/><path fill="#622069" d="M 40.753906 14.515625 C 40.753906 14.703125 40.601562 14.859375 40.410156 14.859375 C 40.222656 14.859375 40.066406 14.703125 40.066406 14.515625 C 40.066406 14.324219 40.222656 14.171875 40.410156 14.171875 C 40.601562 14.171875 40.753906 14.324219 40.753906 14.515625 Z M 64.464844 14.171875 C 64.277344 14.171875 64.121094 14.324219 64.121094 14.515625 C 64.121094 14.703125 64.277344 14.859375 64.464844 14.859375 C 64.65625 14.859375 64.8125 14.703125 64.8125 14.515625 C 64.8125 14.324219 64.65625 14.171875 64.464844 14.171875 Z M 64.464844 14.171875 " fill-opacity="1" fill-rule="nonzero"/><g clip-path="url(#a2e76c9ebd)"><path fill="#622069" d="M 48.964844 15.171875 C 49.039062 15.226562 49.128906 15.246094 49.214844 15.234375 L 49.46875 16.210938 C 49.363281 16.25 49.261719 16.316406 49.1875 16.417969 C 49.003906 16.667969 49.0625 17.019531 49.3125 17.199219 C 49.5625 17.382812 49.914062 17.324219 50.09375 17.074219 C 50.09375 17.074219 50.097656 17.070312 50.097656 17.070312 L 52.128906 18.339844 C 52.015625 18.550781 52.070312 18.816406 52.269531 18.960938 C 52.488281 19.117188 52.789062 19.066406 52.945312 18.851562 C 53.078125 18.675781 53.066406 18.4375 52.933594 18.269531 L 53.941406 17.363281 C 53.957031 17.382812 53.976562 17.398438 53.992188 17.410156 C 54.210938 17.570312 54.511719 17.519531 54.671875 17.304688 C 54.753906 17.1875 54.777344 17.046875 54.75 16.914062 L 55.6875 16.636719 C 55.710938 16.695312 55.75 16.746094 55.804688 16.78125 C 55.953125 16.890625 56.164062 16.855469 56.273438 16.710938 C 56.382812 16.558594 56.347656 16.351562 56.199219 16.238281 C 56.144531 16.199219 56.074219 16.175781 56.011719 16.175781 L 55.855469 14.125 C 55.960938 14.109375 56.0625 14.050781 56.132812 13.953125 C 56.269531 13.765625 56.226562 13.5 56.039062 13.363281 C 55.851562 13.222656 55.585938 13.269531 55.445312 13.457031 C 55.425781 13.484375 55.414062 13.511719 55.398438 13.539062 L 53.304688 12.839844 C 53.332031 12.710938 53.28125 12.566406 53.167969 12.480469 C 53.015625 12.367188 52.796875 12.40625 52.679688 12.558594 C 52.636719 12.621094 52.613281 12.695312 52.613281 12.765625 L 51.355469 12.886719 C 51.339844 12.820312 51.304688 12.765625 51.25 12.722656 C 51.128906 12.636719 50.957031 12.664062 50.867188 12.785156 C 50.792969 12.886719 50.800781 13.019531 50.875 13.113281 L 49.371094 14.640625 C 49.367188 14.640625 49.363281 14.636719 49.359375 14.632812 C 49.207031 14.523438 49 14.558594 48.886719 14.707031 C 48.78125 14.855469 48.8125 15.0625 48.964844 15.171875 Z M 50.925781 13.160156 C 50.953125 13.179688 50.980469 13.191406 51.011719 13.199219 L 50.792969 14.523438 C 50.734375 14.523438 50.675781 14.550781 50.636719 14.601562 C 50.613281 14.632812 50.605469 14.667969 50.601562 14.703125 L 49.488281 14.828125 C 49.480469 14.773438 49.457031 14.726562 49.417969 14.683594 L 50.921875 13.152344 C 50.925781 13.15625 50.925781 13.160156 50.925781 13.160156 Z M 50.203125 16.734375 C 50.199219 16.566406 50.117188 16.398438 49.96875 16.289062 C 49.964844 16.28125 49.953125 16.277344 49.945312 16.273438 L 50.730469 14.898438 C 50.765625 14.910156 50.808594 14.910156 50.847656 14.902344 L 51.648438 16.542969 C 51.613281 16.566406 51.582031 16.589844 51.554688 16.628906 C 51.523438 16.675781 51.503906 16.726562 51.496094 16.78125 Z M 50.949219 14.835938 C 50.957031 14.820312 50.964844 14.804688 50.972656 14.785156 L 51.988281 14.980469 C 51.949219 15.261719 52.0625 15.554688 52.3125 15.738281 C 52.328125 15.75 52.347656 15.761719 52.367188 15.773438 L 51.960938 16.523438 C 51.878906 16.492188 51.792969 16.488281 51.710938 16.519531 L 50.90625 14.878906 C 50.921875 14.863281 50.9375 14.851562 50.949219 14.835938 Z M 52.023438 16.558594 C 52.019531 16.554688 52.015625 16.554688 52.015625 16.554688 L 52.425781 15.804688 C 52.511719 15.847656 52.605469 15.871094 52.695312 15.882812 L 52.554688 18.078125 C 52.5 18.078125 52.449219 18.085938 52.398438 18.105469 L 51.984375 17.125 C 52.03125 17.101562 52.066406 17.070312 52.097656 17.027344 C 52.207031 16.878906 52.175781 16.667969 52.023438 16.558594 Z M 52.84375 18.167969 C 52.777344 18.117188 52.699219 18.089844 52.621094 18.082031 L 52.761719 15.886719 C 52.933594 15.890625 53.101562 15.839844 53.242188 15.738281 L 53.957031 16.648438 C 53.933594 16.671875 53.90625 16.695312 53.886719 16.726562 C 53.757812 16.90625 53.769531 17.144531 53.902344 17.3125 L 52.894531 18.214844 C 52.875 18.199219 52.859375 18.179688 52.84375 18.167969 Z M 54.007812 16.609375 L 53.296875 15.699219 C 53.34375 15.65625 53.386719 15.609375 53.425781 15.558594 C 53.546875 15.386719 53.59375 15.1875 53.570312 14.992188 L 54.707031 14.800781 C 54.71875 14.824219 54.734375 14.847656 54.757812 14.863281 C 54.765625 14.867188 54.773438 14.871094 54.777344 14.875 L 54.363281 16.535156 C 54.246094 16.511719 54.117188 16.539062 54.007812 16.609375 Z M 54.699219 14.734375 L 53.558594 14.925781 C 53.519531 14.738281 53.414062 14.566406 53.246094 14.445312 C 53.132812 14.359375 53.003906 14.3125 52.875 14.300781 L 52.96875 13.105469 C 53.042969 13.105469 53.113281 13.078125 53.175781 13.03125 L 54.726562 14.660156 C 54.707031 14.683594 54.703125 14.710938 54.699219 14.734375 Z M 52.730469 13.015625 C 52.738281 13.027344 52.746094 13.03125 52.757812 13.042969 C 52.800781 13.078125 52.851562 13.09375 52.902344 13.101562 L 52.808594 14.296875 C 52.554688 14.285156 52.296875 14.402344 52.132812 14.625 C 52.070312 14.714844 52.027344 14.8125 52.003906 14.914062 L 50.984375 14.722656 C 50.984375 14.6875 50.972656 14.648438 50.953125 14.617188 Z M 49.277344 15.214844 C 49.339844 15.191406 49.390625 15.152344 49.433594 15.097656 C 49.476562 15.035156 49.496094 14.964844 49.496094 14.894531 L 50.609375 14.769531 C 50.617188 14.808594 50.636719 14.835938 50.667969 14.863281 L 49.886719 16.238281 C 49.773438 16.179688 49.648438 16.167969 49.53125 16.191406 Z M 50.132812 17.011719 C 50.171875 16.945312 50.191406 16.875 50.199219 16.800781 L 51.488281 16.851562 C 51.496094 16.949219 51.539062 17.042969 51.625 17.101562 C 51.714844 17.167969 51.824219 17.179688 51.921875 17.148438 L 52.335938 18.128906 C 52.269531 18.160156 52.207031 18.207031 52.160156 18.273438 Z M 54.738281 16.84375 C 54.703125 16.757812 54.648438 16.679688 54.566406 16.617188 C 54.523438 16.589844 54.480469 16.566406 54.433594 16.550781 L 54.847656 14.894531 C 54.867188 14.894531 54.882812 14.890625 54.898438 14.882812 L 55.792969 16.246094 C 55.769531 16.261719 55.75 16.28125 55.734375 16.308594 C 55.675781 16.386719 55.660156 16.480469 55.675781 16.566406 Z M 55.945312 16.175781 C 55.910156 16.179688 55.878906 16.191406 55.847656 16.207031 L 54.953125 14.847656 C 54.957031 14.84375 54.964844 14.835938 54.964844 14.832031 C 55.003906 14.777344 55.003906 14.710938 54.964844 14.65625 L 55.527344 14.035156 C 55.53125 14.039062 55.535156 14.042969 55.539062 14.042969 C 55.613281 14.09375 55.699219 14.121094 55.785156 14.121094 Z M 55.375 13.601562 C 55.34375 13.738281 55.378906 13.886719 55.480469 13.992188 L 54.917969 14.617188 C 54.871094 14.589844 54.816406 14.59375 54.773438 14.617188 L 53.222656 12.984375 C 53.230469 12.980469 53.234375 12.972656 53.242188 12.960938 C 53.257812 12.941406 53.269531 12.921875 53.28125 12.898438 Z M 52.621094 12.824219 C 52.632812 12.875 52.652344 12.921875 52.683594 12.964844 L 50.914062 14.570312 C 50.910156 14.570312 50.910156 14.566406 50.910156 14.566406 C 50.894531 14.554688 50.878906 14.546875 50.859375 14.542969 L 51.078125 13.21875 C 51.167969 13.222656 51.257812 13.179688 51.3125 13.101562 C 51.34375 13.054688 51.359375 13.003906 51.359375 12.949219 Z M 52.621094 12.824219 " fill-opacity="1" fill-rule="nonzero"/></g><g clip-path="url(#4ccf2c93c4)"><path fill="#622069" d="M 49.496094 18.585938 C 48.332031 17.769531 46.941406 17.183594 45.425781 16.976562 L 45.371094 18.71875 C 46.578125 18.625 47.867188 18.839844 49.074219 19.351562 C 50.285156 19.855469 51.441406 20.59375 52.4375 21.53125 C 51.660156 20.402344 50.664062 19.402344 49.496094 18.585938 Z M 49.496094 18.585938 " fill-opacity="1" fill-rule="nonzero"/></g><g clip-path="url(#630e5b21bb)"><path fill="#622069" d="M 59.449219 16.976562 C 57.933594 17.1875 56.542969 17.769531 55.378906 18.585938 C 54.214844 19.402344 53.214844 20.402344 52.441406 21.53125 C 53.433594 20.59375 54.589844 19.855469 55.800781 19.351562 C 57.011719 18.835938 58.292969 18.625 59.503906 18.71875 Z M 59.449219 16.976562 " fill-opacity="1" fill-rule="nonzero"/></g><g clip-path="url(#824f6e8ddc)"><path fill="#622069" d="M 54.992188 20.066406 C 53.980469 20.613281 53.113281 21.289062 52.4375 22.050781 C 53.300781 21.421875 54.304688 20.921875 55.355469 20.582031 C 56.410156 20.234375 57.523438 20.089844 58.574219 20.152344 L 58.527344 18.980469 C 57.214844 19.121094 56.003906 19.515625 54.992188 20.066406 Z M 54.992188 20.066406 " fill-opacity="1" fill-rule="nonzero"/></g><g clip-path="url(#9dc2cf3369)"><path fill="#622069" d="M 49.882812 20.066406 C 48.871094 19.515625 47.660156 19.117188 46.34375 18.980469 L 46.296875 20.152344 C 47.34375 20.089844 48.464844 20.234375 49.515625 20.582031 C 50.566406 20.917969 51.574219 21.421875 52.4375 22.050781 C 51.761719 21.292969 50.898438 20.617188 49.882812 20.066406 Z M 49.882812 20.066406 " fill-opacity="1" fill-rule="nonzero"/></g><g transform="matrix(1, 0, 0, 1, 41, 0.000000000000005692)"><g clip-path="url(#06537ac45d)"><g fill="#622069" fill-opacity="1"><g transform="translate(2.648571, 6.833254)"><g><path d="M 0.75 -1.296875 C 0.800781 -1.234375 0.832031 -1.160156 0.84375 -1.078125 C 0.863281 -1.003906 0.867188 -0.929688 0.859375 -0.859375 C 0.847656 -0.796875 0.816406 -0.726562 0.765625 -0.65625 C 0.722656 -0.582031 0.671875 -0.515625 0.609375 -0.453125 C 0.554688 -0.421875 0.507812 -0.394531 0.46875 -0.375 C 0.4375 -0.351562 0.40625 -0.335938 0.375 -0.328125 C 0.351562 -0.328125 0.328125 -0.320312 0.296875 -0.3125 C 0.273438 -0.3125 0.253906 -0.300781 0.234375 -0.28125 C 0.203125 -0.257812 0.1875 -0.234375 0.1875 -0.203125 C 0.1875 -0.171875 0.1875 -0.140625 0.1875 -0.109375 L 0.109375 -0.046875 L -0.3125 -0.5625 L -0.21875 -0.640625 C -0.175781 -0.597656 -0.125 -0.554688 -0.0625 -0.515625 C -0.0078125 -0.484375 0.046875 -0.460938 0.109375 -0.453125 C 0.179688 -0.441406 0.253906 -0.441406 0.328125 -0.453125 C 0.410156 -0.472656 0.484375 -0.507812 0.546875 -0.5625 C 0.578125 -0.59375 0.601562 -0.625 0.625 -0.65625 C 0.644531 -0.6875 0.65625 -0.71875 0.65625 -0.75 C 0.664062 -0.78125 0.664062 -0.8125 0.65625 -0.84375 C 0.644531 -0.882812 0.632812 -0.914062 0.625 -0.9375 C 0.582031 -0.976562 0.535156 -1.003906 0.484375 -1.015625 C 0.441406 -1.035156 0.390625 -1.039062 0.328125 -1.03125 C 0.273438 -1.03125 0.21875 -1.023438 0.15625 -1.015625 C 0.101562 -1.015625 0.0390625 -1.003906 -0.03125 -0.984375 C -0.101562 -0.972656 -0.164062 -0.960938 -0.21875 -0.953125 C -0.28125 -0.953125 -0.34375 -0.953125 -0.40625 -0.953125 C -0.476562 -0.953125 -0.539062 -0.960938 -0.59375 -0.984375 C -0.644531 -1.015625 -0.695312 -1.054688 -0.75 -1.109375 C -0.789062 -1.171875 -0.820312 -1.234375 -0.84375 -1.296875 C -0.863281 -1.359375 -0.867188 -1.421875 -0.859375 -1.484375 C -0.847656 -1.546875 -0.820312 -1.609375 -0.78125 -1.671875 C -0.75 -1.742188 -0.695312 -1.804688 -0.625 -1.859375 C -0.582031 -1.898438 -0.539062 -1.925781 -0.5 -1.9375 C -0.46875 -1.957031 -0.429688 -1.972656 -0.390625 -1.984375 C -0.359375 -1.992188 -0.328125 -2 -0.296875 -2 C -0.273438 -2.007812 -0.257812 -2.019531 -0.25 -2.03125 C -0.21875 -2.050781 -0.203125 -2.070312 -0.203125 -2.09375 C -0.210938 -2.113281 -0.226562 -2.140625 -0.25 -2.171875 L -0.171875 -2.25 L 0.25 -1.75 L 0.171875 -1.671875 C 0.109375 -1.722656 0.046875 -1.765625 -0.015625 -1.796875 C -0.078125 -1.828125 -0.140625 -1.847656 -0.203125 -1.859375 C -0.265625 -1.867188 -0.328125 -1.863281 -0.390625 -1.84375 C -0.453125 -1.832031 -0.503906 -1.804688 -0.546875 -1.765625 C -0.578125 -1.742188 -0.597656 -1.71875 -0.609375 -1.6875 C -0.628906 -1.65625 -0.640625 -1.625 -0.640625 -1.59375 C -0.648438 -1.5625 -0.648438 -1.53125 -0.640625 -1.5 C -0.628906 -1.46875 -0.613281 -1.441406 -0.59375 -1.421875 C -0.570312 -1.390625 -0.535156 -1.363281 -0.484375 -1.34375 C -0.441406 -1.332031 -0.394531 -1.328125 -0.34375 -1.328125 C -0.289062 -1.328125 -0.234375 -1.332031 -0.171875 -1.34375 C -0.109375 -1.363281 -0.046875 -1.382812 0.015625 -1.40625 C 0.0859375 -1.425781 0.15625 -1.4375 0.21875 -1.4375 C 0.289062 -1.445312 0.351562 -1.445312 0.40625 -1.4375 C 0.46875 -1.4375 0.53125 -1.425781 0.59375 -1.40625 C 0.65625 -1.382812 0.707031 -1.347656 0.75 -1.296875 Z M 0.75 -1.296875 "/></g></g></g><g fill="#622069" fill-opacity="1"><g transform="translate(3.747277, 5.882826)"><g><path d="M 0.984375 -0.609375 L 0.921875 -0.703125 C 0.953125 -0.722656 0.972656 -0.742188 0.984375 -0.765625 C 1.003906 -0.796875 1.007812 -0.820312 1 -0.84375 C 0.988281 -0.851562 0.972656 -0.863281 0.953125 -0.875 C 0.941406 -0.894531 0.925781 -0.90625 0.90625 -0.90625 L 0.234375 -1.078125 L 0.21875 -1.015625 L 0.421875 -0.671875 C 0.441406 -0.628906 0.46875 -0.597656 0.5 -0.578125 C 0.53125 -0.554688 0.554688 -0.539062 0.578125 -0.53125 C 0.597656 -0.53125 0.617188 -0.535156 0.640625 -0.546875 C 0.660156 -0.554688 0.691406 -0.570312 0.734375 -0.59375 L 0.796875 -0.5 L 0.046875 -0.03125 L -0.015625 -0.125 C 0.0351562 -0.15625 0.0703125 -0.179688 0.09375 -0.203125 C 0.125 -0.222656 0.140625 -0.242188 0.140625 -0.265625 C 0.148438 -0.296875 0.144531 -0.328125 0.125 -0.359375 C 0.113281 -0.390625 0.0976562 -0.425781 0.078125 -0.46875 L -0.5 -1.390625 C -0.519531 -1.421875 -0.539062 -1.445312 -0.5625 -1.46875 C -0.59375 -1.5 -0.617188 -1.515625 -0.640625 -1.515625 C -0.660156 -1.523438 -0.6875 -1.523438 -0.71875 -1.515625 C -0.75 -1.515625 -0.789062 -1.5 -0.84375 -1.46875 L -0.90625 -1.546875 L -0.15625 -2.015625 L -0.09375 -1.9375 C -0.132812 -1.90625 -0.164062 -1.878906 -0.1875 -1.859375 C -0.207031 -1.835938 -0.21875 -1.8125 -0.21875 -1.78125 C -0.226562 -1.757812 -0.222656 -1.726562 -0.203125 -1.6875 C -0.191406 -1.65625 -0.175781 -1.625 -0.15625 -1.59375 L 0.0625 -1.234375 C 0.113281 -1.378906 0.148438 -1.507812 0.171875 -1.625 C 0.179688 -1.6875 0.191406 -1.738281 0.203125 -1.78125 C 0.222656 -1.820312 0.234375 -1.859375 0.234375 -1.890625 C 0.242188 -1.929688 0.25 -1.96875 0.25 -2 C 0.257812 -2.03125 0.257812 -2.050781 0.25 -2.0625 C 0.238281 -2.09375 0.21875 -2.101562 0.1875 -2.09375 C 0.15625 -2.082031 0.117188 -2.066406 0.078125 -2.046875 L 0.015625 -2.125 L 0.65625 -2.515625 L 0.71875 -2.4375 C 0.675781 -2.414062 0.640625 -2.394531 0.609375 -2.375 C 0.585938 -2.351562 0.570312 -2.332031 0.5625 -2.3125 C 0.550781 -2.300781 0.535156 -2.28125 0.515625 -2.25 C 0.503906 -2.226562 0.5 -2.207031 0.5 -2.1875 L 0.328125 -1.453125 L 1.3125 -1.203125 C 1.363281 -1.191406 1.410156 -1.179688 1.453125 -1.171875 C 1.503906 -1.160156 1.546875 -1.15625 1.578125 -1.15625 C 1.617188 -1.164062 1.648438 -1.175781 1.671875 -1.1875 C 1.703125 -1.207031 1.726562 -1.222656 1.75 -1.234375 L 1.8125 -1.140625 Z M 0.984375 -0.609375 "/></g></g></g><g fill="#622069" fill-opacity="1"><g transform="translate(5.502731, 4.817522)"><g><path d="M 0.046875 -0.015625 L 0 -0.109375 C 0.0507812 -0.140625 0.09375 -0.160156 0.125 -0.171875 C 0.15625 -0.191406 0.171875 -0.210938 0.171875 -0.234375 C 0.179688 -0.265625 0.179688 -0.296875 0.171875 -0.328125 C 0.171875 -0.359375 0.160156 -0.398438 0.140625 -0.453125 L -0.328125 -1.4375 C -0.347656 -1.476562 -0.367188 -1.507812 -0.390625 -1.53125 C -0.410156 -1.5625 -0.429688 -1.578125 -0.453125 -1.578125 C -0.472656 -1.585938 -0.5 -1.59375 -0.53125 -1.59375 C -0.570312 -1.59375 -0.617188 -1.578125 -0.671875 -1.546875 L -0.71875 -1.640625 L 0.125 -2.046875 L 0.171875 -1.953125 C 0.117188 -1.921875 0.078125 -1.894531 0.046875 -1.875 C 0.0234375 -1.851562 0.0078125 -1.828125 0 -1.796875 C -0.0078125 -1.773438 -0.0078125 -1.75 0 -1.71875 C 0.0078125 -1.6875 0.0234375 -1.648438 0.046875 -1.609375 L 0.515625 -0.625 C 0.535156 -0.570312 0.550781 -0.53125 0.5625 -0.5 C 0.582031 -0.476562 0.601562 -0.460938 0.625 -0.453125 C 0.65625 -0.453125 0.6875 -0.453125 0.71875 -0.453125 C 0.75 -0.460938 0.789062 -0.484375 0.84375 -0.515625 L 0.890625 -0.421875 Z M 0.046875 -0.015625 "/></g></g></g><g fill="#622069" fill-opacity="1"><g transform="translate(6.386837, 4.375687)"><g><path d="M 1.46875 -0.5 L 0.046875 -0.015625 L 0.015625 -0.125 C 0.078125 -0.144531 0.117188 -0.160156 0.140625 -0.171875 C 0.160156 -0.191406 0.175781 -0.210938 0.1875 -0.234375 C 0.195312 -0.253906 0.203125 -0.28125 0.203125 -0.3125 C 0.203125 -0.351562 0.191406 -0.398438 0.171875 -0.453125 L -0.171875 -1.46875 C -0.179688 -1.507812 -0.195312 -1.539062 -0.21875 -1.5625 C -0.25 -1.59375 -0.273438 -1.613281 -0.296875 -1.625 C -0.316406 -1.632812 -0.335938 -1.640625 -0.359375 -1.640625 C -0.390625 -1.640625 -0.4375 -1.628906 -0.5 -1.609375 L -0.546875 -1.71875 L 0.34375 -2.03125 L 0.390625 -1.921875 C 0.347656 -1.898438 0.304688 -1.878906 0.265625 -1.859375 C 0.234375 -1.835938 0.207031 -1.816406 0.1875 -1.796875 C 0.175781 -1.773438 0.171875 -1.742188 0.171875 -1.703125 C 0.179688 -1.671875 0.191406 -1.632812 0.203125 -1.59375 L 0.546875 -0.578125 C 0.566406 -0.535156 0.582031 -0.5 0.59375 -0.46875 C 0.601562 -0.445312 0.617188 -0.429688 0.640625 -0.421875 C 0.671875 -0.421875 0.707031 -0.421875 0.75 -0.421875 C 0.800781 -0.429688 0.851562 -0.445312 0.90625 -0.46875 L 1.046875 -0.515625 C 1.085938 -0.535156 1.125 -0.554688 1.15625 -0.578125 C 1.1875 -0.609375 1.210938 -0.648438 1.234375 -0.703125 C 1.265625 -0.753906 1.285156 -0.8125 1.296875 -0.875 C 1.316406 -0.9375 1.332031 -1.019531 1.34375 -1.125 L 1.453125 -1.171875 Z M 1.46875 -0.5 "/></g></g></g><g fill="#622069" fill-opacity="1"><g transform="translate(8.016025, 3.806336)"><g><path d="M 1.515625 -0.3125 L 0.046875 -0.015625 L 0.03125 -0.125 C 0.09375 -0.132812 0.132812 -0.144531 0.15625 -0.15625 C 0.1875 -0.164062 0.207031 -0.179688 0.21875 -0.203125 C 0.238281 -0.234375 0.25 -0.265625 0.25 -0.296875 C 0.25 -0.328125 0.242188 -0.367188 0.234375 -0.421875 L 0.03125 -1.46875 C 0.0195312 -1.507812 0.0078125 -1.546875 0 -1.578125 C -0.0195312 -1.617188 -0.0390625 -1.644531 -0.0625 -1.65625 C -0.0820312 -1.664062 -0.109375 -1.671875 -0.140625 -1.671875 C -0.171875 -1.679688 -0.21875 -1.679688 -0.28125 -1.671875 L -0.3125 -1.78125 L 0.625 -1.96875 L 0.65625 -1.859375 C 0.601562 -1.847656 0.554688 -1.832031 0.515625 -1.8125 C 0.484375 -1.789062 0.457031 -1.769531 0.4375 -1.75 C 0.425781 -1.726562 0.414062 -1.695312 0.40625 -1.65625 C 0.40625 -1.625 0.410156 -1.585938 0.421875 -1.546875 L 0.625 -0.5 C 0.632812 -0.457031 0.644531 -0.421875 0.65625 -0.390625 C 0.664062 -0.367188 0.679688 -0.351562 0.703125 -0.34375 C 0.734375 -0.332031 0.769531 -0.328125 0.8125 -0.328125 C 0.851562 -0.335938 0.90625 -0.347656 0.96875 -0.359375 L 1.109375 -0.390625 C 1.140625 -0.390625 1.171875 -0.398438 1.203125 -0.421875 C 1.242188 -0.453125 1.28125 -0.488281 1.3125 -0.53125 C 1.351562 -0.582031 1.382812 -0.632812 1.40625 -0.6875 C 1.4375 -0.75 1.460938 -0.832031 1.484375 -0.9375 L 1.59375 -0.953125 Z M 1.515625 -0.3125 "/></g></g></g><g fill="#622069" fill-opacity="1"><g transform="translate(9.723504, 3.482729)"><g/></g></g><g fill="#622069" fill-opacity="1"><g transform="translate(10.578355, 3.383497)"><g><path d="M 1.40625 -0.515625 C 1.40625 -0.441406 1.382812 -0.367188 1.34375 -0.296875 C 1.3125 -0.234375 1.269531 -0.175781 1.21875 -0.125 C 1.164062 -0.0703125 1.097656 -0.03125 1.015625 0 C 0.941406 0.0195312 0.859375 0.03125 0.765625 0.03125 C 0.703125 0.03125 0.648438 0.0234375 0.609375 0.015625 C 0.566406 0.00390625 0.53125 -0.00390625 0.5 -0.015625 C 0.476562 -0.0234375 0.457031 -0.0351562 0.4375 -0.046875 C 0.414062 -0.0546875 0.390625 -0.0625 0.359375 -0.0625 C 0.328125 -0.0625 0.300781 -0.0507812 0.28125 -0.03125 C 0.257812 -0.0078125 0.238281 0.0078125 0.21875 0.03125 L 0.125 0.03125 L 0.125 -0.640625 L 0.234375 -0.640625 C 0.234375 -0.578125 0.242188 -0.507812 0.265625 -0.4375 C 0.296875 -0.375 0.332031 -0.316406 0.375 -0.265625 C 0.425781 -0.210938 0.484375 -0.164062 0.546875 -0.125 C 0.617188 -0.09375 0.695312 -0.078125 0.78125 -0.078125 C 0.820312 -0.078125 0.859375 -0.0820312 0.890625 -0.09375 C 0.929688 -0.113281 0.960938 -0.132812 0.984375 -0.15625 C 1.015625 -0.175781 1.035156 -0.203125 1.046875 -0.234375 C 1.066406 -0.265625 1.078125 -0.296875 1.078125 -0.328125 C 1.078125 -0.378906 1.0625 -0.425781 1.03125 -0.46875 C 1.007812 -0.507812 0.972656 -0.546875 0.921875 -0.578125 C 0.878906 -0.617188 0.832031 -0.65625 0.78125 -0.6875 C 0.726562 -0.71875 0.671875 -0.75 0.609375 -0.78125 C 0.546875 -0.8125 0.488281 -0.84375 0.4375 -0.875 C 0.382812 -0.914062 0.332031 -0.957031 0.28125 -1 C 0.238281 -1.039062 0.203125 -1.085938 0.171875 -1.140625 C 0.148438 -1.191406 0.132812 -1.253906 0.125 -1.328125 C 0.125 -1.398438 0.132812 -1.46875 0.15625 -1.53125 C 0.1875 -1.59375 0.226562 -1.644531 0.28125 -1.6875 C 0.332031 -1.726562 0.390625 -1.757812 0.453125 -1.78125 C 0.523438 -1.8125 0.601562 -1.828125 0.6875 -1.828125 C 0.75 -1.828125 0.800781 -1.820312 0.84375 -1.8125 C 0.882812 -1.800781 0.921875 -1.785156 0.953125 -1.765625 C 0.984375 -1.753906 1.007812 -1.742188 1.03125 -1.734375 C 1.0625 -1.722656 1.085938 -1.71875 1.109375 -1.71875 C 1.140625 -1.71875 1.160156 -1.726562 1.171875 -1.75 C 1.179688 -1.769531 1.1875 -1.796875 1.1875 -1.828125 L 1.296875 -1.84375 L 1.3125 -1.1875 L 1.203125 -1.171875 C 1.179688 -1.242188 1.15625 -1.3125 1.125 -1.375 C 1.09375 -1.445312 1.054688 -1.503906 1.015625 -1.546875 C 0.972656 -1.597656 0.921875 -1.632812 0.859375 -1.65625 C 0.804688 -1.6875 0.75 -1.703125 0.6875 -1.703125 C 0.65625 -1.703125 0.625 -1.695312 0.59375 -1.6875 C 0.5625 -1.675781 0.53125 -1.660156 0.5 -1.640625 C 0.476562 -1.617188 0.460938 -1.59375 0.453125 -1.5625 C 0.441406 -1.53125 0.4375 -1.5 0.4375 -1.46875 C 0.4375 -1.425781 0.445312 -1.382812 0.46875 -1.34375 C 0.5 -1.300781 0.535156 -1.265625 0.578125 -1.234375 C 0.628906 -1.203125 0.679688 -1.171875 0.734375 -1.140625 C 0.796875 -1.117188 0.859375 -1.09375 0.921875 -1.0625 C 0.984375 -1.03125 1.039062 -0.992188 1.09375 -0.953125 C 1.15625 -0.921875 1.207031 -0.882812 1.25 -0.84375 C 1.289062 -0.8125 1.328125 -0.765625 1.359375 -0.703125 C 1.390625 -0.648438 1.40625 -0.585938 1.40625 -0.515625 Z M 1.40625 -0.515625 "/></g></g></g><g fill="#622069" fill-opacity="1"><g transform="translate(12.036311, 3.367281)"><g><path d="M 1.703125 -1.125 C 1.691406 -1.0625 1.664062 -1 1.625 -0.9375 C 1.59375 -0.875 1.546875 -0.820312 1.484375 -0.78125 C 1.421875 -0.738281 1.347656 -0.707031 1.265625 -0.6875 C 1.179688 -0.664062 1.070312 -0.664062 0.9375 -0.6875 C 0.925781 -0.6875 0.910156 -0.6875 0.890625 -0.6875 C 0.878906 -0.6875 0.867188 -0.691406 0.859375 -0.703125 C 0.847656 -0.710938 0.832031 -0.71875 0.8125 -0.71875 L 0.75 -0.25 C 0.75 -0.195312 0.75 -0.15625 0.75 -0.125 C 0.757812 -0.101562 0.769531 -0.0820312 0.78125 -0.0625 C 0.800781 -0.0390625 0.828125 -0.0234375 0.859375 -0.015625 C 0.890625 -0.015625 0.929688 -0.0078125 0.984375 0 L 0.96875 0.109375 L 0.0625 0 L 0.078125 -0.109375 C 0.128906 -0.0976562 0.171875 -0.09375 0.203125 -0.09375 C 0.234375 -0.09375 0.257812 -0.0976562 0.28125 -0.109375 C 0.300781 -0.128906 0.316406 -0.15625 0.328125 -0.1875 C 0.335938 -0.21875 0.34375 -0.253906 0.34375 -0.296875 L 0.484375 -1.453125 C 0.484375 -1.492188 0.484375 -1.523438 0.484375 -1.546875 C 0.484375 -1.578125 0.472656 -1.597656 0.453125 -1.609375 C 0.429688 -1.617188 0.40625 -1.628906 0.375 -1.640625 C 0.34375 -1.648438 0.300781 -1.660156 0.25 -1.671875 L 0.265625 -1.78125 L 1.125 -1.671875 C 1.226562 -1.660156 1.3125 -1.632812 1.375 -1.59375 C 1.445312 -1.5625 1.507812 -1.519531 1.5625 -1.46875 C 1.625 -1.425781 1.660156 -1.375 1.671875 -1.3125 C 1.691406 -1.257812 1.703125 -1.195312 1.703125 -1.125 Z M 1.28125 -1.171875 C 1.28125 -1.210938 1.273438 -1.253906 1.265625 -1.296875 C 1.265625 -1.335938 1.253906 -1.375 1.234375 -1.40625 C 1.210938 -1.445312 1.179688 -1.476562 1.140625 -1.5 C 1.097656 -1.519531 1.039062 -1.53125 0.96875 -1.53125 C 0.96875 -1.53125 0.960938 -1.53125 0.953125 -1.53125 C 0.941406 -1.539062 0.9375 -1.546875 0.9375 -1.546875 C 0.925781 -1.535156 0.914062 -1.53125 0.90625 -1.53125 L 0.828125 -0.875 C 0.835938 -0.863281 0.847656 -0.859375 0.859375 -0.859375 C 0.859375 -0.859375 0.859375 -0.851562 0.859375 -0.84375 C 0.867188 -0.84375 0.878906 -0.84375 0.890625 -0.84375 C 0.960938 -0.84375 1.019531 -0.847656 1.0625 -0.859375 C 1.101562 -0.878906 1.140625 -0.898438 1.171875 -0.921875 C 1.203125 -0.953125 1.222656 -0.988281 1.234375 -1.03125 C 1.253906 -1.070312 1.269531 -1.117188 1.28125 -1.171875 Z M 1.28125 -1.171875 "/></g></g></g><g fill="#622069" fill-opacity="1"><g transform="translate(13.619184, 3.527158)"><g><path d="M 1.109375 0.28125 L 1.140625 0.171875 C 1.179688 0.191406 1.21875 0.203125 1.25 0.203125 C 1.28125 0.203125 1.304688 0.191406 1.328125 0.171875 C 1.359375 0.160156 1.378906 0.144531 1.390625 0.125 C 1.410156 0.101562 1.425781 0.0664062 1.4375 0.015625 L 1.546875 -0.421875 L 0.90625 -0.59375 L 0.796875 -0.15625 C 0.785156 -0.101562 0.773438 -0.0625 0.765625 -0.03125 C 0.753906 -0.0078125 0.753906 0.0078125 0.765625 0.03125 C 0.785156 0.0625 0.8125 0.0820312 0.84375 0.09375 C 0.875 0.101562 0.914062 0.117188 0.96875 0.140625 L 0.9375 0.25 L 0.046875 0.015625 L 0.078125 -0.09375 C 0.140625 -0.0820312 0.1875 -0.0703125 0.21875 -0.0625 C 0.25 -0.0625 0.269531 -0.0664062 0.28125 -0.078125 C 0.300781 -0.0976562 0.320312 -0.117188 0.34375 -0.140625 C 0.363281 -0.171875 0.378906 -0.210938 0.390625 -0.265625 L 0.65625 -1.3125 C 0.664062 -1.351562 0.671875 -1.390625 0.671875 -1.421875 C 0.671875 -1.460938 0.664062 -1.492188 0.65625 -1.515625 C 0.65625 -1.535156 0.640625 -1.550781 0.609375 -1.5625 C 0.578125 -1.582031 0.53125 -1.597656 0.46875 -1.609375 L 0.5 -1.71875 L 1.390625 -1.484375 L 1.359375 -1.375 C 1.304688 -1.394531 1.265625 -1.40625 1.234375 -1.40625 C 1.203125 -1.40625 1.171875 -1.398438 1.140625 -1.390625 C 1.117188 -1.378906 1.101562 -1.351562 1.09375 -1.3125 C 1.082031 -1.28125 1.070312 -1.242188 1.0625 -1.203125 L 0.953125 -0.765625 L 1.59375 -0.59375 L 1.703125 -1.03125 C 1.710938 -1.070312 1.71875 -1.113281 1.71875 -1.15625 C 1.726562 -1.195312 1.722656 -1.226562 1.703125 -1.25 C 1.691406 -1.269531 1.671875 -1.285156 1.640625 -1.296875 C 1.609375 -1.304688 1.570312 -1.320312 1.53125 -1.34375 L 1.5625 -1.453125 L 2.453125 -1.21875 L 2.421875 -1.109375 C 2.359375 -1.117188 2.3125 -1.125 2.28125 -1.125 C 2.25 -1.132812 2.222656 -1.128906 2.203125 -1.109375 C 2.179688 -1.097656 2.160156 -1.078125 2.140625 -1.046875 C 2.117188 -1.015625 2.101562 -0.976562 2.09375 -0.9375 L 1.828125 0.109375 C 1.816406 0.160156 1.8125 0.203125 1.8125 0.234375 C 1.8125 0.265625 1.816406 0.289062 1.828125 0.3125 C 1.835938 0.332031 1.859375 0.347656 1.890625 0.359375 C 1.921875 0.378906 1.96875 0.394531 2.03125 0.40625 L 2 0.515625 Z M 1.109375 0.28125 "/></g></g></g><g fill="#622069" fill-opacity="1"><g transform="translate(15.595994, 4.051829)"><g><path d="M 1.34375 0.578125 L 0.0625 0.03125 L 0.109375 -0.0625 C 0.148438 -0.0390625 0.1875 -0.0234375 0.21875 -0.015625 C 0.25 -0.015625 0.273438 -0.0234375 0.296875 -0.046875 C 0.328125 -0.0664062 0.351562 -0.0859375 0.375 -0.109375 C 0.394531 -0.140625 0.414062 -0.179688 0.4375 -0.234375 L 0.828125 -1.171875 C 0.859375 -1.222656 0.875 -1.269531 0.875 -1.3125 C 0.882812 -1.351562 0.890625 -1.382812 0.890625 -1.40625 C 0.890625 -1.425781 0.867188 -1.441406 0.828125 -1.453125 C 0.796875 -1.472656 0.757812 -1.492188 0.71875 -1.515625 L 0.765625 -1.625 L 2.0625 -1.078125 L 1.90625 -0.609375 L 1.8125 -0.65625 C 1.820312 -0.707031 1.828125 -0.753906 1.828125 -0.796875 C 1.828125 -0.835938 1.820312 -0.875 1.8125 -0.90625 C 1.800781 -0.945312 1.78125 -0.984375 1.75 -1.015625 C 1.71875 -1.046875 1.675781 -1.070312 1.625 -1.09375 L 1.296875 -1.234375 L 1.046875 -0.625 L 1.203125 -0.5625 C 1.253906 -0.539062 1.296875 -0.53125 1.328125 -0.53125 C 1.367188 -0.53125 1.398438 -0.535156 1.421875 -0.546875 C 1.453125 -0.566406 1.476562 -0.59375 1.5 -0.625 C 1.53125 -0.65625 1.5625 -0.691406 1.59375 -0.734375 L 1.6875 -0.6875 L 1.390625 0 L 1.296875 -0.046875 C 1.304688 -0.0976562 1.3125 -0.140625 1.3125 -0.171875 C 1.3125 -0.210938 1.304688 -0.25 1.296875 -0.28125 C 1.296875 -0.3125 1.28125 -0.335938 1.25 -0.359375 C 1.226562 -0.390625 1.191406 -0.414062 1.140625 -0.4375 L 0.984375 -0.5 L 0.796875 -0.0625 C 0.785156 -0.0195312 0.773438 0.0078125 0.765625 0.03125 C 0.765625 0.0507812 0.765625 0.0703125 0.765625 0.09375 C 0.773438 0.113281 0.785156 0.128906 0.796875 0.140625 C 0.804688 0.160156 0.832031 0.179688 0.875 0.203125 L 1 0.265625 C 1.070312 0.296875 1.132812 0.316406 1.1875 0.328125 C 1.238281 0.335938 1.285156 0.332031 1.328125 0.3125 C 1.378906 0.289062 1.425781 0.265625 1.46875 0.234375 C 1.519531 0.210938 1.570312 0.179688 1.625 0.140625 L 1.734375 0.1875 Z M 1.34375 0.578125 "/></g></g></g><g fill="#622069" fill-opacity="1"><g transform="translate(17.185687, 4.718486)"><g><path d="M 1.171875 0.71875 L 1.109375 -0.28125 C 1.097656 -0.28125 1.082031 -0.285156 1.0625 -0.296875 C 1.0625 -0.296875 1.054688 -0.296875 1.046875 -0.296875 C 1.035156 -0.304688 1.023438 -0.316406 1.015625 -0.328125 L 0.765625 0.0625 C 0.742188 0.101562 0.726562 0.140625 0.71875 0.171875 C 0.71875 0.203125 0.71875 0.226562 0.71875 0.25 C 0.726562 0.28125 0.742188 0.304688 0.765625 0.328125 C 0.796875 0.347656 0.832031 0.375 0.875 0.40625 L 0.8125 0.5 L 0.046875 0.03125 L 0.109375 -0.0625 C 0.148438 -0.0390625 0.1875 -0.0195312 0.21875 0 C 0.25 0.0078125 0.273438 0.0078125 0.296875 0 C 0.316406 -0.0078125 0.335938 -0.0234375 0.359375 -0.046875 C 0.378906 -0.0664062 0.398438 -0.0976562 0.421875 -0.140625 L 1.015625 -1.109375 C 1.035156 -1.148438 1.050781 -1.179688 1.0625 -1.203125 C 1.070312 -1.234375 1.070312 -1.257812 1.0625 -1.28125 C 1.0625 -1.300781 1.046875 -1.320312 1.015625 -1.34375 C 0.992188 -1.363281 0.960938 -1.382812 0.921875 -1.40625 L 0.984375 -1.5 L 1.625 -1.125 C 1.707031 -1.0625 1.785156 -1.003906 1.859375 -0.953125 C 1.941406 -0.898438 2.003906 -0.835938 2.046875 -0.765625 C 2.085938 -0.703125 2.113281 -0.628906 2.125 -0.546875 C 2.132812 -0.472656 2.113281 -0.394531 2.0625 -0.3125 C 2.019531 -0.25 1.976562 -0.195312 1.9375 -0.15625 C 1.894531 -0.125 1.847656 -0.0976562 1.796875 -0.078125 C 1.753906 -0.0546875 1.707031 -0.046875 1.65625 -0.046875 C 1.601562 -0.046875 1.550781 -0.0546875 1.5 -0.078125 L 1.609375 0.515625 C 1.609375 0.578125 1.613281 0.632812 1.625 0.6875 C 1.644531 0.738281 1.660156 0.78125 1.671875 0.8125 C 1.691406 0.84375 1.710938 0.875 1.734375 0.90625 C 1.765625 0.9375 1.800781 0.960938 1.84375 0.984375 L 1.78125 1.078125 Z M 1.6875 -0.515625 C 1.695312 -0.535156 1.707031 -0.566406 1.71875 -0.609375 C 1.738281 -0.648438 1.742188 -0.6875 1.734375 -0.71875 C 1.734375 -0.757812 1.71875 -0.800781 1.6875 -0.84375 C 1.664062 -0.882812 1.617188 -0.929688 1.546875 -0.984375 C 1.535156 -0.992188 1.519531 -1 1.5 -1 C 1.488281 -1.007812 1.476562 -1.019531 1.46875 -1.03125 C 1.457031 -1.019531 1.445312 -1.019531 1.4375 -1.03125 L 1.09375 -0.46875 C 1.113281 -0.457031 1.132812 -0.441406 1.15625 -0.421875 C 1.175781 -0.398438 1.203125 -0.382812 1.234375 -0.375 C 1.265625 -0.34375 1.296875 -0.328125 1.328125 -0.328125 C 1.367188 -0.328125 1.410156 -0.332031 1.453125 -0.34375 C 1.503906 -0.351562 1.546875 -0.375 1.578125 -0.40625 C 1.617188 -0.4375 1.65625 -0.472656 1.6875 -0.515625 Z M 1.6875 -0.515625 "/></g></g></g><g fill="#622069" fill-opacity="1"><g transform="translate(18.802595, 5.700358)"><g><path d="M 1.140625 0.9375 L 0.046875 0.046875 L 0.109375 -0.03125 C 0.148438 0 0.1875 0.0195312 0.21875 0.03125 C 0.25 0.0507812 0.28125 0.0546875 0.3125 0.046875 C 0.34375 0.0351562 0.367188 0.0195312 0.390625 0 C 0.421875 -0.0195312 0.453125 -0.0507812 0.484375 -0.09375 L 1.125 -0.890625 C 1.164062 -0.929688 1.195312 -0.96875 1.21875 -1 C 1.238281 -1.039062 1.25 -1.070312 1.25 -1.09375 C 1.25 -1.125 1.234375 -1.148438 1.203125 -1.171875 C 1.179688 -1.203125 1.148438 -1.234375 1.109375 -1.265625 L 1.1875 -1.34375 L 2.296875 -0.453125 L 2 -0.0625 L 1.921875 -0.125 C 1.941406 -0.175781 1.957031 -0.222656 1.96875 -0.265625 C 1.988281 -0.304688 2 -0.34375 2 -0.375 C 2 -0.40625 1.988281 -0.4375 1.96875 -0.46875 C 1.945312 -0.507812 1.914062 -0.550781 1.875 -0.59375 L 1.609375 -0.8125 L 1.1875 -0.3125 L 1.3125 -0.203125 C 1.351562 -0.171875 1.390625 -0.148438 1.421875 -0.140625 C 1.460938 -0.128906 1.5 -0.125 1.53125 -0.125 C 1.5625 -0.132812 1.585938 -0.148438 1.609375 -0.171875 C 1.640625 -0.191406 1.679688 -0.21875 1.734375 -0.25 L 1.8125 -0.1875 L 1.328125 0.390625 L 1.25 0.328125 C 1.269531 0.273438 1.289062 0.234375 1.3125 0.203125 C 1.332031 0.171875 1.34375 0.140625 1.34375 0.109375 C 1.34375 0.078125 1.332031 0.0390625 1.3125 0 C 1.289062 -0.03125 1.257812 -0.0625 1.21875 -0.09375 L 1.09375 -0.203125 L 0.796875 0.15625 C 0.773438 0.195312 0.753906 0.226562 0.734375 0.25 C 0.722656 0.269531 0.71875 0.289062 0.71875 0.3125 C 0.71875 0.332031 0.71875 0.347656 0.71875 0.359375 C 0.71875 0.378906 0.734375 0.398438 0.765625 0.421875 L 0.875 0.515625 C 0.9375 0.566406 0.992188 0.609375 1.046875 0.640625 C 1.097656 0.671875 1.144531 0.679688 1.1875 0.671875 C 1.238281 0.671875 1.289062 0.660156 1.34375 0.640625 C 1.394531 0.628906 1.457031 0.609375 1.53125 0.578125 L 1.609375 0.640625 Z M 1.140625 0.9375 "/></g></g></g></g></g><g clip-path="url(#daac334a45)"><path fill="#622069" d="M 52.433594 7.125 L 52.953125 8.175781 L 54.113281 8.34375 L 53.273438 9.164062 L 53.472656 10.316406 L 52.433594 9.773438 L 51.398438 10.316406 L 51.59375 9.164062 L 50.757812 8.34375 L 51.917969 8.175781 Z M 52.433594 7.125 " fill-opacity="1" fill-rule="nonzero"/></g><g clip-path="url(#ddff7294b7)"><path fill="#622069" d="M 55.984375 8.519531 L 56.261719 9.382812 L 57.132812 9.644531 L 56.398438 10.175781 L 56.417969 11.082031 L 55.683594 10.546875 L 54.828125 10.851562 L 55.109375 9.988281 L 54.558594 9.265625 L 55.46875 9.265625 Z M 55.984375 8.519531 " fill-opacity="1" fill-rule="nonzero"/></g><g clip-path="url(#0028beffda)"><path fill="#622069" d="M 48.886719 8.519531 L 48.609375 9.382812 L 47.738281 9.644531 L 48.472656 10.175781 L 48.449219 11.082031 L 49.183594 10.546875 L 50.039062 10.851562 L 49.757812 9.988281 L 50.308594 9.265625 L 49.402344 9.265625 Z M 48.886719 8.519531 " fill-opacity="1" fill-rule="nonzero"/></g><g clip-path="url(#26ebf452bc)"><g transform="matrix(1, 0, 0, 1, 39, 18)"><g clip-path="url(#2b4864c647)"><g fill="#622069" fill-opacity="1"><g transform="translate(2.369402, 2.176258)"><g><path d="M 0.5625 1.046875 L 0.015625 0.046875 L 0.078125 0.015625 C 0.0976562 0.046875 0.117188 0.0703125 0.140625 0.09375 C 0.171875 0.113281 0.195312 0.125 0.21875 0.125 C 0.238281 0.125 0.265625 0.117188 0.296875 0.109375 C 0.328125 0.0976562 0.363281 0.0859375 0.40625 0.078125 L 1.125 -0.3125 C 1.164062 -0.332031 1.195312 -0.351562 1.21875 -0.375 C 1.238281 -0.394531 1.253906 -0.410156 1.265625 -0.421875 C 1.273438 -0.441406 1.273438 -0.46875 1.265625 -0.5 C 1.253906 -0.53125 1.238281 -0.5625 1.21875 -0.59375 L 1.296875 -0.640625 L 1.84375 0.375 L 1.515625 0.578125 L 1.46875 0.5 C 1.507812 0.476562 1.539062 0.453125 1.5625 0.421875 C 1.59375 0.398438 1.609375 0.375 1.609375 0.34375 C 1.617188 0.3125 1.617188 0.28125 1.609375 0.25 C 1.609375 0.21875 1.597656 0.179688 1.578125 0.140625 L 1.453125 -0.09375 L 0.984375 0.15625 L 1.046875 0.265625 C 1.066406 0.296875 1.085938 0.320312 1.109375 0.34375 C 1.128906 0.363281 1.148438 0.375 1.171875 0.375 C 1.191406 0.375 1.21875 0.367188 1.25 0.359375 C 1.289062 0.359375 1.332031 0.351562 1.375 0.34375 L 1.40625 0.40625 L 0.890625 0.6875 L 0.859375 0.625 C 0.878906 0.59375 0.898438 0.566406 0.921875 0.546875 C 0.941406 0.523438 0.957031 0.503906 0.96875 0.484375 C 0.976562 0.460938 0.976562 0.4375 0.96875 0.40625 C 0.96875 0.382812 0.957031 0.359375 0.9375 0.328125 L 0.875 0.21875 L 0.546875 0.390625 C 0.515625 0.398438 0.488281 0.410156 0.46875 0.421875 C 0.457031 0.429688 0.441406 0.441406 0.421875 0.453125 C 0.410156 0.460938 0.40625 0.472656 0.40625 0.484375 C 0.414062 0.503906 0.425781 0.53125 0.4375 0.5625 L 0.5 0.671875 C 0.53125 0.722656 0.5625 0.765625 0.59375 0.796875 C 0.625 0.828125 0.65625 0.847656 0.6875 0.859375 C 0.71875 0.878906 0.753906 0.890625 0.796875 0.890625 C 0.835938 0.898438 0.894531 0.90625 0.96875 0.90625 L 1 0.984375 Z M 0.5625 1.046875 "/></g></g></g><g fill="#622069" fill-opacity="1"><g transform="translate(3.07724, 3.466863)"><g><path d="M 0.359375 -0.171875 L 0.546875 -0.28125 L 0.90625 0.265625 L 0.71875 0.375 Z M 0.359375 -0.171875 "/></g></g></g><g fill="#622069" fill-opacity="1"><g transform="translate(3.49754, 4.129984)"><g><path d="M 0.78125 0.96875 L 0.03125 0.03125 L 0.09375 -0.015625 C 0.113281 0.015625 0.132812 0.0351562 0.15625 0.046875 C 0.175781 0.0664062 0.195312 0.078125 0.21875 0.078125 C 0.25 0.0859375 0.273438 0.0820312 0.296875 0.0625 C 0.328125 0.0507812 0.351562 0.0351562 0.375 0.015625 L 1.0625 -0.53125 C 1.09375 -0.5625 1.113281 -0.582031 1.125 -0.59375 C 1.144531 -0.613281 1.15625 -0.632812 1.15625 -0.65625 C 1.15625 -0.6875 1.148438 -0.710938 1.140625 -0.734375 C 1.128906 -0.753906 1.113281 -0.78125 1.09375 -0.8125 L 1.171875 -0.875 L 1.640625 -0.28125 L 1.5625 -0.21875 C 1.53125 -0.25 1.503906 -0.273438 1.484375 -0.296875 C 1.460938 -0.316406 1.441406 -0.328125 1.421875 -0.328125 C 1.398438 -0.335938 1.375 -0.335938 1.34375 -0.328125 C 1.320312 -0.316406 1.296875 -0.296875 1.265625 -0.265625 L 0.578125 0.28125 C 0.554688 0.300781 0.539062 0.316406 0.53125 0.328125 C 0.519531 0.347656 0.515625 0.363281 0.515625 0.375 C 0.515625 0.394531 0.519531 0.421875 0.53125 0.453125 C 0.539062 0.484375 0.5625 0.519531 0.59375 0.5625 L 0.671875 0.65625 C 0.691406 0.675781 0.71875 0.695312 0.75 0.71875 C 0.789062 0.75 0.828125 0.765625 0.859375 0.765625 C 0.898438 0.765625 0.953125 0.757812 1.015625 0.75 C 1.078125 0.75 1.148438 0.734375 1.234375 0.703125 L 1.28125 0.765625 Z M 0.78125 0.96875 "/></g></g></g><g fill="#622069" fill-opacity="1"><g transform="translate(4.427296, 5.286989)"><g><path d="M 0.84375 0.828125 L 0.03125 0.03125 L 0.078125 -0.03125 C 0.109375 0 0.140625 0.0195312 0.171875 0.03125 C 0.203125 0.0507812 0.226562 0.0546875 0.25 0.046875 C 0.269531 0.046875 0.289062 0.0351562 0.3125 0.015625 C 0.332031 0.00390625 0.359375 -0.015625 0.390625 -0.046875 L 0.96875 -0.640625 C 1 -0.671875 1.023438 -0.695312 1.046875 -0.71875 C 1.066406 -0.75 1.078125 -0.769531 1.078125 -0.78125 C 1.078125 -0.800781 1.066406 -0.820312 1.046875 -0.84375 C 1.035156 -0.875 1.015625 -0.90625 0.984375 -0.9375 L 1.046875 -1 L 1.875 -0.1875 L 1.625 0.09375 L 1.5625 0.03125 C 1.570312 0 1.585938 -0.03125 1.609375 -0.0625 C 1.628906 -0.09375 1.640625 -0.125 1.640625 -0.15625 C 1.640625 -0.1875 1.628906 -0.21875 1.609375 -0.25 C 1.597656 -0.28125 1.570312 -0.316406 1.53125 -0.359375 L 1.34375 -0.53125 L 0.984375 -0.140625 L 1.078125 -0.0625 C 1.109375 -0.03125 1.132812 -0.0078125 1.15625 0 C 1.175781 0 1.195312 0 1.21875 0 C 1.25 0 1.28125 -0.00390625 1.3125 -0.015625 C 1.34375 -0.0351562 1.378906 -0.0546875 1.421875 -0.078125 L 1.46875 -0.03125 L 1.046875 0.390625 L 1 0.34375 C 1.019531 0.300781 1.035156 0.269531 1.046875 0.25 C 1.054688 0.226562 1.0625 0.203125 1.0625 0.171875 C 1.0625 0.140625 1.054688 0.113281 1.046875 0.09375 C 1.035156 0.0703125 1.015625 0.046875 0.984375 0.015625 L 0.890625 -0.0625 L 0.625 0.203125 C 0.601562 0.234375 0.582031 0.253906 0.5625 0.265625 C 0.550781 0.273438 0.539062 0.285156 0.53125 0.296875 C 0.53125 0.316406 0.535156 0.332031 0.546875 0.34375 C 0.554688 0.351562 0.570312 0.367188 0.59375 0.390625 L 0.6875 0.484375 C 0.726562 0.523438 0.765625 0.554688 0.796875 0.578125 C 0.835938 0.609375 0.875 0.625 0.90625 0.625 C 0.945312 0.625 0.988281 0.617188 1.03125 0.609375 C 1.070312 0.597656 1.125 0.585938 1.1875 0.578125 L 1.25 0.640625 Z M 0.84375 0.828125 "/></g></g></g><g fill="#622069" fill-opacity="1"><g transform="translate(5.489577, 6.327724)"><g><path d="M 0.671875 0.515625 L 0.71875 0.453125 C 0.769531 0.484375 0.804688 0.5 0.828125 0.5 C 0.859375 0.507812 0.882812 0.503906 0.90625 0.484375 C 0.90625 0.484375 0.90625 0.476562 0.90625 0.46875 C 0.914062 0.457031 0.921875 0.4375 0.921875 0.40625 C 0.929688 0.382812 0.941406 0.359375 0.953125 0.328125 C 0.972656 0.304688 0.984375 0.265625 0.984375 0.203125 L 0.625 -0.078125 C 0.582031 -0.0546875 0.550781 -0.0351562 0.53125 -0.015625 C 0.5 -0.00390625 0.46875 0.00390625 0.4375 0.015625 C 0.414062 0.0351562 0.40625 0.0507812 0.40625 0.0625 C 0.375 0.09375 0.367188 0.117188 0.390625 0.140625 C 0.410156 0.171875 0.445312 0.21875 0.5 0.28125 L 0.453125 0.34375 L 0.015625 0.015625 L 0.0625 -0.046875 C 0.0820312 -0.046875 0.101562 -0.0390625 0.125 -0.03125 C 0.144531 -0.03125 0.164062 -0.0234375 0.1875 -0.015625 C 0.21875 -0.015625 0.242188 -0.0195312 0.265625 -0.03125 C 0.296875 -0.0507812 0.332031 -0.078125 0.375 -0.109375 L 1.46875 -0.75 L 1.546875 -0.703125 L 1.234375 0.609375 C 1.222656 0.648438 1.21875 0.679688 1.21875 0.703125 C 1.21875 0.734375 1.222656 0.753906 1.234375 0.765625 C 1.242188 0.785156 1.253906 0.804688 1.265625 0.828125 C 1.285156 0.847656 1.300781 0.867188 1.3125 0.890625 L 1.265625 0.953125 Z M 1.140625 -0.390625 L 0.75 -0.15625 L 1.03125 0.0625 Z M 1.140625 -0.390625 "/></g></g></g><g fill="#622069" fill-opacity="1"><g transform="translate(6.794537, 7.308217)"><g><path d="M 0.96875 0.546875 L 0.890625 -0.265625 C 0.878906 -0.265625 0.867188 -0.269531 0.859375 -0.28125 C 0.847656 -0.28125 0.835938 -0.28125 0.828125 -0.28125 C 0.828125 -0.289062 0.828125 -0.296875 0.828125 -0.296875 L 0.640625 0.03125 C 0.617188 0.0703125 0.601562 0.101562 0.59375 0.125 C 0.59375 0.144531 0.59375 0.164062 0.59375 0.1875 C 0.601562 0.207031 0.613281 0.226562 0.625 0.25 C 0.644531 0.28125 0.675781 0.304688 0.71875 0.328125 L 0.6875 0.390625 L 0.046875 0.015625 L 0.078125 -0.046875 C 0.109375 -0.0234375 0.132812 -0.0078125 0.15625 0 C 0.1875 0 0.210938 -0.00390625 0.234375 -0.015625 C 0.253906 -0.0234375 0.269531 -0.0390625 0.28125 -0.0625 C 0.300781 -0.0820312 0.320312 -0.109375 0.34375 -0.140625 L 0.78125 -0.921875 C 0.800781 -0.960938 0.8125 -0.988281 0.8125 -1 C 0.820312 -1.019531 0.820312 -1.035156 0.8125 -1.046875 C 0.8125 -1.066406 0.800781 -1.085938 0.78125 -1.109375 C 0.769531 -1.128906 0.75 -1.148438 0.71875 -1.171875 L 0.765625 -1.25 L 1.28125 -0.953125 C 1.351562 -0.910156 1.421875 -0.863281 1.484375 -0.8125 C 1.546875 -0.769531 1.597656 -0.722656 1.640625 -0.671875 C 1.679688 -0.628906 1.703125 -0.570312 1.703125 -0.5 C 1.710938 -0.4375 1.695312 -0.367188 1.65625 -0.296875 C 1.625 -0.242188 1.59375 -0.203125 1.5625 -0.171875 C 1.53125 -0.148438 1.492188 -0.128906 1.453125 -0.109375 C 1.410156 -0.0976562 1.367188 -0.0859375 1.328125 -0.078125 C 1.296875 -0.078125 1.265625 -0.0820312 1.234375 -0.09375 L 1.3125 0.390625 C 1.320312 0.429688 1.332031 0.46875 1.34375 0.5 C 1.351562 0.539062 1.363281 0.578125 1.375 0.609375 C 1.382812 0.648438 1.398438 0.675781 1.421875 0.6875 C 1.453125 0.707031 1.476562 0.734375 1.5 0.765625 L 1.46875 0.828125 Z M 1.34375 -0.453125 C 1.363281 -0.484375 1.375 -0.515625 1.375 -0.546875 C 1.382812 -0.578125 1.390625 -0.609375 1.390625 -0.640625 C 1.390625 -0.671875 1.378906 -0.703125 1.359375 -0.734375 C 1.335938 -0.765625 1.296875 -0.796875 1.234375 -0.828125 C 1.234375 -0.828125 1.222656 -0.832031 1.203125 -0.84375 C 1.191406 -0.851562 1.179688 -0.859375 1.171875 -0.859375 C 1.148438 -0.859375 1.140625 -0.859375 1.140625 -0.859375 L 0.890625 -0.40625 C 0.898438 -0.394531 0.910156 -0.378906 0.921875 -0.359375 C 0.941406 -0.347656 0.957031 -0.335938 0.96875 -0.328125 C 1 -0.316406 1.03125 -0.304688 1.0625 -0.296875 C 1.101562 -0.296875 1.140625 -0.300781 1.171875 -0.3125 C 1.210938 -0.332031 1.242188 -0.347656 1.265625 -0.359375 C 1.296875 -0.378906 1.320312 -0.410156 1.34375 -0.453125 Z M 1.34375 -0.453125 "/></g></g></g><g fill="#622069" fill-opacity="1"><g transform="translate(8.211829, 8.101362)"><g><path d="M 1.890625 -0.703125 C 1.847656 -0.722656 1.816406 -0.734375 1.796875 -0.734375 C 1.785156 -0.742188 1.769531 -0.742188 1.75 -0.734375 C 1.738281 -0.722656 1.726562 -0.707031 1.71875 -0.6875 C 1.707031 -0.664062 1.695312 -0.640625 1.6875 -0.609375 L 1.234375 0.515625 L 1.109375 0.46875 L 0.734375 -0.859375 L 0.421875 -0.078125 C 0.398438 -0.046875 0.390625 -0.0195312 0.390625 0 C 0.390625 0.0195312 0.394531 0.0351562 0.40625 0.046875 C 0.414062 0.0546875 0.429688 0.0664062 0.453125 0.078125 C 0.484375 0.0976562 0.507812 0.113281 0.53125 0.125 L 0.5 0.203125 L 0.03125 0.015625 L 0.0625 -0.0625 C 0.101562 -0.0507812 0.128906 -0.0390625 0.140625 -0.03125 C 0.160156 -0.03125 0.179688 -0.03125 0.203125 -0.03125 C 0.222656 -0.03125 0.238281 -0.0390625 0.25 -0.0625 C 0.257812 -0.0820312 0.273438 -0.109375 0.296875 -0.140625 L 0.671875 -1.078125 C 0.660156 -1.109375 0.648438 -1.128906 0.640625 -1.140625 C 0.640625 -1.160156 0.628906 -1.175781 0.609375 -1.1875 C 0.597656 -1.207031 0.585938 -1.21875 0.578125 -1.21875 C 0.578125 -1.226562 0.5625 -1.238281 0.53125 -1.25 L 0.578125 -1.328125 L 1.03125 -1.15625 L 1.3125 -0.078125 L 1.5625 -0.671875 C 1.570312 -0.703125 1.578125 -0.726562 1.578125 -0.75 C 1.578125 -0.769531 1.570312 -0.789062 1.5625 -0.8125 C 1.5625 -0.832031 1.546875 -0.847656 1.515625 -0.859375 C 1.492188 -0.867188 1.46875 -0.878906 1.4375 -0.890625 L 1.484375 -0.96875 L 1.9375 -0.78125 Z M 1.890625 -0.703125 "/></g></g></g><g fill="#622069" fill-opacity="1"><g transform="translate(9.67258, 8.667375)"><g><path d="M 0.046875 0.015625 L 0.0625 -0.0625 C 0.101562 -0.0507812 0.140625 -0.046875 0.171875 -0.046875 C 0.203125 -0.0546875 0.222656 -0.0625 0.234375 -0.0625 C 0.253906 -0.0703125 0.269531 -0.0859375 0.28125 -0.109375 C 0.289062 -0.128906 0.300781 -0.15625 0.3125 -0.1875 L 0.5625 -1.046875 C 0.570312 -1.085938 0.578125 -1.117188 0.578125 -1.140625 C 0.578125 -1.171875 0.570312 -1.195312 0.5625 -1.21875 C 0.5625 -1.238281 0.546875 -1.253906 0.515625 -1.265625 C 0.492188 -1.273438 0.460938 -1.285156 0.421875 -1.296875 L 0.453125 -1.375 L 1.171875 -1.171875 L 1.140625 -1.09375 C 1.085938 -1.101562 1.046875 -1.109375 1.015625 -1.109375 C 0.992188 -1.117188 0.972656 -1.113281 0.953125 -1.09375 C 0.929688 -1.082031 0.914062 -1.0625 0.90625 -1.03125 C 0.90625 -1.007812 0.898438 -0.976562 0.890625 -0.9375 L 0.640625 -0.078125 C 0.628906 -0.046875 0.617188 -0.0195312 0.609375 0 C 0.609375 0.0195312 0.613281 0.0351562 0.625 0.046875 C 0.632812 0.0546875 0.648438 0.0703125 0.671875 0.09375 C 0.691406 0.113281 0.726562 0.128906 0.78125 0.140625 L 0.765625 0.21875 Z M 0.046875 0.015625 "/></g></g></g><g fill="#622069" fill-opacity="1"><g transform="translate(10.505684, 8.924885)"><g><path d="M 1.71875 -1.078125 C 1.675781 -1.078125 1.644531 -1.078125 1.625 -1.078125 C 1.613281 -1.085938 1.597656 -1.082031 1.578125 -1.0625 C 1.566406 -1.050781 1.554688 -1.035156 1.546875 -1.015625 C 1.535156 -1.003906 1.53125 -0.984375 1.53125 -0.953125 L 1.3125 0.25 L 1.1875 0.234375 L 0.546875 -1 L 0.40625 -0.171875 C 0.394531 -0.140625 0.390625 -0.113281 0.390625 -0.09375 C 0.390625 -0.0703125 0.394531 -0.0507812 0.40625 -0.03125 C 0.425781 -0.0195312 0.445312 -0.0078125 0.46875 0 C 0.488281 0.0078125 0.515625 0.015625 0.546875 0.015625 L 0.53125 0.09375 L 0.03125 0 L 0.046875 -0.078125 C 0.0859375 -0.0664062 0.117188 -0.0625 0.140625 -0.0625 C 0.160156 -0.0625 0.175781 -0.0664062 0.1875 -0.078125 C 0.207031 -0.0859375 0.222656 -0.0976562 0.234375 -0.109375 C 0.242188 -0.128906 0.253906 -0.15625 0.265625 -0.1875 L 0.4375 -1.1875 C 0.425781 -1.21875 0.414062 -1.238281 0.40625 -1.25 C 0.394531 -1.269531 0.382812 -1.285156 0.375 -1.296875 C 0.363281 -1.316406 0.351562 -1.328125 0.34375 -1.328125 C 0.332031 -1.328125 0.3125 -1.332031 0.28125 -1.34375 L 0.296875 -1.421875 L 0.765625 -1.328125 L 1.28125 -0.328125 L 1.390625 -0.96875 C 1.390625 -1 1.390625 -1.023438 1.390625 -1.046875 C 1.390625 -1.066406 1.382812 -1.085938 1.375 -1.109375 C 1.375 -1.128906 1.359375 -1.140625 1.328125 -1.140625 C 1.304688 -1.148438 1.28125 -1.15625 1.25 -1.15625 L 1.265625 -1.234375 L 1.734375 -1.15625 Z M 1.71875 -1.078125 "/></g></g></g><g fill="#622069" fill-opacity="1"><g transform="translate(12.062184, 9.213881)"><g><path d="M 1.703125 -0.625 C 1.671875 -0.625 1.640625 -0.625 1.609375 -0.625 C 1.585938 -0.625 1.570312 -0.613281 1.5625 -0.59375 C 1.550781 -0.582031 1.539062 -0.5625 1.53125 -0.53125 C 1.53125 -0.507812 1.523438 -0.476562 1.515625 -0.4375 L 1.5 -0.0625 C 1.414062 -0.0078125 1.320312 0.0234375 1.21875 0.046875 C 1.113281 0.0664062 1 0.078125 0.875 0.078125 C 0.738281 0.0664062 0.617188 0.0390625 0.515625 0 C 0.421875 -0.0507812 0.34375 -0.113281 0.28125 -0.1875 C 0.21875 -0.269531 0.171875 -0.351562 0.140625 -0.4375 C 0.117188 -0.53125 0.109375 -0.625 0.109375 -0.71875 C 0.109375 -0.8125 0.128906 -0.898438 0.171875 -0.984375 C 0.210938 -1.078125 0.269531 -1.160156 0.34375 -1.234375 C 0.414062 -1.304688 0.5 -1.359375 0.59375 -1.390625 C 0.695312 -1.429688 0.8125 -1.445312 0.9375 -1.4375 C 1 -1.4375 1.050781 -1.429688 1.09375 -1.421875 C 1.144531 -1.410156 1.1875 -1.394531 1.21875 -1.375 C 1.257812 -1.351562 1.289062 -1.335938 1.3125 -1.328125 C 1.34375 -1.316406 1.367188 -1.3125 1.390625 -1.3125 C 1.398438 -1.3125 1.40625 -1.316406 1.40625 -1.328125 C 1.414062 -1.335938 1.421875 -1.347656 1.421875 -1.359375 C 1.429688 -1.367188 1.4375 -1.378906 1.4375 -1.390625 C 1.4375 -1.398438 1.4375 -1.410156 1.4375 -1.421875 L 1.53125 -1.421875 L 1.546875 -0.90625 L 1.46875 -0.90625 C 1.445312 -0.96875 1.421875 -1.019531 1.390625 -1.0625 C 1.359375 -1.113281 1.320312 -1.160156 1.28125 -1.203125 C 1.25 -1.242188 1.207031 -1.273438 1.15625 -1.296875 C 1.113281 -1.316406 1.066406 -1.328125 1.015625 -1.328125 C 0.921875 -1.335938 0.84375 -1.320312 0.78125 -1.28125 C 0.726562 -1.25 0.675781 -1.207031 0.625 -1.15625 C 0.582031 -1.101562 0.550781 -1.035156 0.53125 -0.953125 C 0.507812 -0.878906 0.5 -0.796875 0.5 -0.703125 C 0.5 -0.628906 0.5 -0.550781 0.5 -0.46875 C 0.507812 -0.394531 0.53125 -0.320312 0.5625 -0.25 C 0.601562 -0.1875 0.648438 -0.132812 0.703125 -0.09375 C 0.753906 -0.0625 0.828125 -0.0390625 0.921875 -0.03125 C 0.972656 -0.03125 1.015625 -0.0351562 1.046875 -0.046875 C 1.085938 -0.0546875 1.128906 -0.0703125 1.171875 -0.09375 L 1.1875 -0.453125 C 1.195312 -0.492188 1.195312 -0.523438 1.1875 -0.546875 C 1.1875 -0.578125 1.175781 -0.597656 1.15625 -0.609375 C 1.144531 -0.628906 1.125 -0.640625 1.09375 -0.640625 C 1.070312 -0.648438 1.046875 -0.65625 1.015625 -0.65625 L 1.015625 -0.75 L 1.703125 -0.71875 Z M 1.703125 -0.625 "/></g></g></g><g fill="#622069" fill-opacity="1"><g transform="translate(13.801445, 9.265914)"><g/></g></g><g fill="#622069" fill-opacity="1"><g transform="translate(14.559629, 9.234215)"><g><path d="M 1.09375 -1.234375 C 1.101562 -1.171875 1.101562 -1.109375 1.09375 -1.046875 C 1.082031 -0.992188 1.054688 -0.945312 1.015625 -0.90625 C 0.972656 -0.875 0.914062 -0.84375 0.84375 -0.8125 C 0.769531 -0.78125 0.6875 -0.753906 0.59375 -0.734375 C 0.582031 -0.734375 0.566406 -0.734375 0.546875 -0.734375 C 0.535156 -0.734375 0.523438 -0.734375 0.515625 -0.734375 C 0.503906 -0.722656 0.5 -0.71875 0.5 -0.71875 L 0.5625 -0.34375 C 0.5625 -0.300781 0.566406 -0.269531 0.578125 -0.25 C 0.585938 -0.238281 0.597656 -0.222656 0.609375 -0.203125 C 0.617188 -0.191406 0.632812 -0.1875 0.65625 -0.1875 C 0.6875 -0.1875 0.71875 -0.1875 0.75 -0.1875 L 0.765625 -0.109375 L 0.046875 0 L 0.03125 -0.078125 C 0.0703125 -0.0859375 0.101562 -0.0976562 0.125 -0.109375 C 0.15625 -0.117188 0.175781 -0.128906 0.1875 -0.140625 C 0.207031 -0.160156 0.21875 -0.179688 0.21875 -0.203125 C 0.21875 -0.234375 0.21875 -0.265625 0.21875 -0.296875 L 0.078125 -1.21875 C 0.0664062 -1.257812 0.0546875 -1.289062 0.046875 -1.3125 C 0.046875 -1.332031 0.0351562 -1.347656 0.015625 -1.359375 C 0.00390625 -1.367188 -0.0078125 -1.367188 -0.03125 -1.359375 C -0.0625 -1.359375 -0.0976562 -1.351562 -0.140625 -1.34375 L -0.15625 -1.4375 L 0.546875 -1.546875 C 0.609375 -1.554688 0.671875 -1.554688 0.734375 -1.546875 C 0.804688 -1.535156 0.867188 -1.515625 0.921875 -1.484375 C 0.972656 -1.460938 1.015625 -1.425781 1.046875 -1.375 C 1.078125 -1.332031 1.09375 -1.285156 1.09375 -1.234375 Z M 0.734375 -1.171875 C 0.734375 -1.203125 0.726562 -1.234375 0.71875 -1.265625 C 0.707031 -1.304688 0.6875 -1.335938 0.65625 -1.359375 C 0.632812 -1.378906 0.609375 -1.394531 0.578125 -1.40625 C 0.546875 -1.414062 0.503906 -1.414062 0.453125 -1.40625 C 0.441406 -1.40625 0.429688 -1.40625 0.421875 -1.40625 C 0.410156 -1.382812 0.40625 -1.375 0.40625 -1.375 L 0.484375 -0.828125 C 0.484375 -0.828125 0.488281 -0.832031 0.5 -0.84375 C 0.507812 -0.84375 0.519531 -0.84375 0.53125 -0.84375 C 0.582031 -0.851562 0.625 -0.867188 0.65625 -0.890625 C 0.6875 -0.910156 0.707031 -0.929688 0.71875 -0.953125 C 0.738281 -0.984375 0.75 -1.015625 0.75 -1.046875 C 0.75 -1.085938 0.742188 -1.128906 0.734375 -1.171875 Z M 0.734375 -1.171875 "/></g></g></g><g fill="#622069" fill-opacity="1"><g transform="translate(15.920458, 9.037345)"><g><path d="M 1.203125 -0.328125 L 0.046875 -0.015625 L 0.03125 -0.09375 C 0.0703125 -0.101562 0.101562 -0.113281 0.125 -0.125 C 0.144531 -0.144531 0.15625 -0.164062 0.15625 -0.1875 C 0.164062 -0.207031 0.171875 -0.226562 0.171875 -0.25 C 0.171875 -0.269531 0.164062 -0.296875 0.15625 -0.328125 L -0.0625 -1.171875 C -0.0703125 -1.210938 -0.0820312 -1.242188 -0.09375 -1.265625 C -0.101562 -1.296875 -0.113281 -1.316406 -0.125 -1.328125 C -0.144531 -1.335938 -0.164062 -1.34375 -0.1875 -1.34375 C -0.21875 -1.34375 -0.253906 -1.335938 -0.296875 -1.328125 L -0.328125 -1.421875 L 0.390625 -1.609375 L 0.421875 -1.515625 C 0.378906 -1.503906 0.347656 -1.492188 0.328125 -1.484375 C 0.304688 -1.472656 0.289062 -1.457031 0.28125 -1.4375 C 0.269531 -1.414062 0.257812 -1.390625 0.25 -1.359375 C 0.25 -1.335938 0.253906 -1.304688 0.265625 -1.265625 L 0.484375 -0.421875 C 0.492188 -0.390625 0.503906 -0.363281 0.515625 -0.34375 C 0.523438 -0.332031 0.539062 -0.320312 0.5625 -0.3125 C 0.582031 -0.3125 0.601562 -0.3125 0.625 -0.3125 C 0.65625 -0.3125 0.695312 -0.316406 0.75 -0.328125 L 0.875 -0.359375 C 0.90625 -0.367188 0.9375 -0.382812 0.96875 -0.40625 C 1 -0.425781 1.023438 -0.453125 1.046875 -0.484375 C 1.066406 -0.523438 1.085938 -0.570312 1.109375 -0.625 C 1.128906 -0.675781 1.140625 -0.75 1.140625 -0.84375 L 1.21875 -0.859375 Z M 1.203125 -0.328125 "/></g></g></g><g fill="#622069" fill-opacity="1"><g transform="translate(17.357534, 8.654769)"><g><path d="M 0.78125 -0.3125 L 0.75 -0.390625 C 0.8125 -0.421875 0.847656 -0.441406 0.859375 -0.453125 C 0.878906 -0.472656 0.882812 -0.5 0.875 -0.53125 C 0.875 -0.53125 0.867188 -0.535156 0.859375 -0.546875 C 0.859375 -0.554688 0.847656 -0.570312 0.828125 -0.59375 C 0.816406 -0.613281 0.796875 -0.632812 0.765625 -0.65625 C 0.742188 -0.675781 0.710938 -0.707031 0.671875 -0.75 L 0.25 -0.578125 C 0.25 -0.523438 0.25 -0.484375 0.25 -0.453125 C 0.25 -0.429688 0.25 -0.40625 0.25 -0.375 C 0.25 -0.351562 0.25 -0.335938 0.25 -0.328125 C 0.269531 -0.285156 0.296875 -0.265625 0.328125 -0.265625 C 0.367188 -0.265625 0.421875 -0.273438 0.484375 -0.296875 L 0.515625 -0.21875 L 0.015625 0 L -0.015625 -0.078125 C 0.00390625 -0.0976562 0.0195312 -0.113281 0.03125 -0.125 C 0.0390625 -0.132812 0.0507812 -0.148438 0.0625 -0.171875 C 0.0820312 -0.191406 0.09375 -0.21875 0.09375 -0.25 C 0.101562 -0.28125 0.101562 -0.328125 0.09375 -0.390625 L 0.109375 -1.640625 L 0.1875 -1.6875 L 1.15625 -0.75 C 1.175781 -0.71875 1.195312 -0.691406 1.21875 -0.671875 C 1.25 -0.660156 1.273438 -0.65625 1.296875 -0.65625 C 1.316406 -0.65625 1.335938 -0.660156 1.359375 -0.671875 C 1.390625 -0.679688 1.410156 -0.679688 1.421875 -0.671875 L 1.453125 -0.59375 Z M 0.25 -1.171875 L 0.25 -0.703125 L 0.578125 -0.84375 Z M 0.25 -1.171875 "/></g></g></g><g fill="#622069" fill-opacity="1"><g transform="translate(18.863081, 8.03033)"><g><path d="M 0.640625 -1.53125 C 0.578125 -1.613281 0.507812 -1.664062 0.4375 -1.6875 C 0.363281 -1.707031 0.285156 -1.691406 0.203125 -1.640625 L 0.125 -1.59375 L 0.65625 -0.671875 C 0.664062 -0.640625 0.675781 -0.613281 0.6875 -0.59375 C 0.707031 -0.582031 0.726562 -0.570312 0.75 -0.5625 C 0.769531 -0.5625 0.796875 -0.5625 0.828125 -0.5625 C 0.859375 -0.570312 0.894531 -0.585938 0.9375 -0.609375 L 0.96875 -0.546875 L 0.3125 -0.171875 L 0.28125 -0.234375 C 0.3125 -0.253906 0.335938 -0.273438 0.359375 -0.296875 C 0.378906 -0.328125 0.390625 -0.347656 0.390625 -0.359375 C 0.398438 -0.378906 0.398438 -0.398438 0.390625 -0.421875 C 0.378906 -0.453125 0.367188 -0.484375 0.359375 -0.515625 L -0.171875 -1.4375 L -0.265625 -1.375 C -0.304688 -1.351562 -0.335938 -1.328125 -0.359375 -1.296875 C -0.390625 -1.265625 -0.410156 -1.234375 -0.421875 -1.203125 C -0.441406 -1.171875 -0.445312 -1.128906 -0.4375 -1.078125 C -0.425781 -1.035156 -0.40625 -0.988281 -0.375 -0.9375 L -0.453125 -0.890625 L -0.671875 -1.296875 L 0.46875 -1.953125 L 0.703125 -1.5625 Z M 0.640625 -1.53125 "/></g></g></g><g fill="#622069" fill-opacity="1"><g transform="translate(20.16567, 7.281752)"><g><path d="M 0.296875 -1.53125 C 0.253906 -1.5625 0.21875 -1.585938 0.1875 -1.609375 C 0.15625 -1.640625 0.125 -1.65625 0.09375 -1.65625 C 0.0703125 -1.65625 0.046875 -1.648438 0.015625 -1.640625 C -0.015625 -1.628906 -0.0507812 -1.609375 -0.09375 -1.578125 L -0.296875 -1.421875 L 0.015625 -1 L 0.109375 -1.0625 C 0.140625 -1.09375 0.160156 -1.117188 0.171875 -1.140625 C 0.191406 -1.171875 0.203125 -1.195312 0.203125 -1.21875 C 0.203125 -1.238281 0.195312 -1.265625 0.1875 -1.296875 C 0.175781 -1.335938 0.160156 -1.375 0.140625 -1.40625 L 0.203125 -1.453125 L 0.5625 -0.96875 L 0.484375 -0.921875 C 0.453125 -0.960938 0.425781 -0.988281 0.40625 -1 C 0.382812 -1.007812 0.359375 -1.019531 0.328125 -1.03125 C 0.304688 -1.039062 0.28125 -1.039062 0.25 -1.03125 C 0.226562 -1.019531 0.203125 -1 0.171875 -0.96875 L 0.078125 -0.90625 L 0.3125 -0.578125 C 0.332031 -0.554688 0.347656 -0.535156 0.359375 -0.515625 C 0.378906 -0.492188 0.398438 -0.476562 0.421875 -0.46875 C 0.441406 -0.46875 0.460938 -0.46875 0.484375 -0.46875 C 0.515625 -0.476562 0.550781 -0.5 0.59375 -0.53125 L 0.640625 -0.46875 L 0.03125 -0.03125 L -0.015625 -0.09375 C 0.0234375 -0.113281 0.0507812 -0.132812 0.0625 -0.15625 C 0.0820312 -0.1875 0.09375 -0.210938 0.09375 -0.234375 C 0.09375 -0.253906 0.0859375 -0.273438 0.078125 -0.296875 C 0.0664062 -0.316406 0.0507812 -0.335938 0.03125 -0.359375 L -0.484375 -1.078125 C -0.503906 -1.109375 -0.523438 -1.132812 -0.546875 -1.15625 C -0.566406 -1.175781 -0.585938 -1.1875 -0.609375 -1.1875 C -0.628906 -1.1875 -0.648438 -1.179688 -0.671875 -1.171875 C -0.703125 -1.160156 -0.738281 -1.144531 -0.78125 -1.125 L -0.828125 -1.203125 L 0.109375 -1.890625 L 0.359375 -1.578125 Z M 0.296875 -1.53125 "/></g></g></g><g fill="#622069" fill-opacity="1"><g transform="translate(21.2817, 6.469845)"><g><path d="M 0.671875 -1.640625 C 0.734375 -1.578125 0.785156 -1.5 0.828125 -1.40625 C 0.867188 -1.3125 0.890625 -1.210938 0.890625 -1.109375 C 0.890625 -1.015625 0.867188 -0.921875 0.828125 -0.828125 C 0.785156 -0.742188 0.71875 -0.65625 0.625 -0.5625 C 0.539062 -0.488281 0.453125 -0.429688 0.359375 -0.390625 C 0.265625 -0.347656 0.171875 -0.328125 0.078125 -0.328125 C -0.015625 -0.335938 -0.109375 -0.363281 -0.203125 -0.40625 C -0.296875 -0.445312 -0.375 -0.5 -0.4375 -0.5625 C -0.507812 -0.632812 -0.5625 -0.71875 -0.59375 -0.8125 C -0.632812 -0.90625 -0.648438 -1.003906 -0.640625 -1.109375 C -0.640625 -1.210938 -0.617188 -1.3125 -0.578125 -1.40625 C -0.546875 -1.5 -0.492188 -1.582031 -0.421875 -1.65625 C -0.328125 -1.75 -0.226562 -1.8125 -0.125 -1.84375 C -0.03125 -1.875 0.0625 -1.882812 0.15625 -1.875 C 0.25 -1.875 0.335938 -1.851562 0.421875 -1.8125 C 0.515625 -1.769531 0.597656 -1.710938 0.671875 -1.640625 Z M 0.390625 -1.375 C 0.359375 -1.414062 0.320312 -1.445312 0.28125 -1.46875 C 0.25 -1.5 0.210938 -1.53125 0.171875 -1.5625 C 0.128906 -1.601562 0.0820312 -1.628906 0.03125 -1.640625 C -0.0078125 -1.648438 -0.0507812 -1.65625 -0.09375 -1.65625 C -0.132812 -1.664062 -0.175781 -1.664062 -0.21875 -1.65625 C -0.257812 -1.644531 -0.300781 -1.617188 -0.34375 -1.578125 C -0.382812 -1.546875 -0.410156 -1.507812 -0.421875 -1.46875 C -0.429688 -1.425781 -0.429688 -1.382812 -0.421875 -1.34375 C -0.421875 -1.300781 -0.410156 -1.257812 -0.390625 -1.21875 C -0.378906 -1.175781 -0.363281 -1.128906 -0.34375 -1.078125 C -0.320312 -1.035156 -0.289062 -0.992188 -0.25 -0.953125 C -0.21875 -0.921875 -0.1875 -0.890625 -0.15625 -0.859375 C -0.132812 -0.828125 -0.101562 -0.796875 -0.0625 -0.765625 C -0.03125 -0.734375 0.00390625 -0.703125 0.046875 -0.671875 C 0.0859375 -0.640625 0.128906 -0.617188 0.171875 -0.609375 C 0.222656 -0.597656 0.269531 -0.585938 0.3125 -0.578125 C 0.351562 -0.566406 0.394531 -0.566406 0.4375 -0.578125 C 0.476562 -0.585938 0.519531 -0.609375 0.5625 -0.640625 C 0.613281 -0.691406 0.640625 -0.75 0.640625 -0.8125 C 0.648438 -0.875 0.644531 -0.9375 0.625 -1 C 0.613281 -1.070312 0.582031 -1.140625 0.53125 -1.203125 C 0.488281 -1.265625 0.441406 -1.320312 0.390625 -1.375 Z M 0.390625 -1.375 "/></g></g></g><g fill="#622069" fill-opacity="1"><g transform="translate(22.539114, 5.25667)"><g><path d="M 0.6875 -0.875 L -0.125 -0.90625 C -0.125 -0.894531 -0.128906 -0.890625 -0.140625 -0.890625 C -0.140625 -0.878906 -0.140625 -0.867188 -0.140625 -0.859375 C -0.148438 -0.859375 -0.15625 -0.859375 -0.15625 -0.859375 L 0.140625 -0.625 C 0.171875 -0.601562 0.195312 -0.585938 0.21875 -0.578125 C 0.238281 -0.566406 0.257812 -0.5625 0.28125 -0.5625 C 0.300781 -0.5625 0.320312 -0.566406 0.34375 -0.578125 C 0.375 -0.597656 0.398438 -0.625 0.421875 -0.65625 L 0.484375 -0.609375 L 0.03125 -0.03125 L -0.03125 -0.078125 C -0.0078125 -0.109375 0.00390625 -0.132812 0.015625 -0.15625 C 0.0234375 -0.1875 0.0234375 -0.210938 0.015625 -0.234375 C 0.015625 -0.253906 0.00390625 -0.273438 -0.015625 -0.296875 C -0.0351562 -0.316406 -0.0546875 -0.335938 -0.078125 -0.359375 L -0.796875 -0.921875 C -0.828125 -0.953125 -0.847656 -0.96875 -0.859375 -0.96875 C -0.878906 -0.976562 -0.894531 -0.976562 -0.90625 -0.96875 C -0.925781 -0.96875 -0.945312 -0.957031 -0.96875 -0.9375 C -0.988281 -0.925781 -1.007812 -0.90625 -1.03125 -0.875 L -1.109375 -0.9375 L -0.75 -1.40625 C -0.695312 -1.46875 -0.640625 -1.523438 -0.578125 -1.578125 C -0.515625 -1.628906 -0.457031 -1.675781 -0.40625 -1.71875 C -0.351562 -1.757812 -0.289062 -1.773438 -0.21875 -1.765625 C -0.15625 -1.765625 -0.09375 -1.738281 -0.03125 -1.6875 C 0.0195312 -1.644531 0.0546875 -1.601562 0.078125 -1.5625 C 0.0976562 -1.53125 0.113281 -1.492188 0.125 -1.453125 C 0.132812 -1.410156 0.132812 -1.367188 0.125 -1.328125 C 0.125 -1.296875 0.113281 -1.257812 0.09375 -1.21875 L 0.578125 -1.234375 C 0.628906 -1.234375 0.671875 -1.238281 0.703125 -1.25 C 0.742188 -1.257812 0.78125 -1.265625 0.8125 -1.265625 C 0.851562 -1.273438 0.882812 -1.289062 0.90625 -1.3125 C 0.925781 -1.332031 0.953125 -1.351562 0.984375 -1.375 L 1.046875 -1.328125 Z M -0.234375 -1.40625 C -0.265625 -1.425781 -0.289062 -1.441406 -0.3125 -1.453125 C -0.34375 -1.460938 -0.375 -1.46875 -0.40625 -1.46875 C -0.4375 -1.476562 -0.472656 -1.472656 -0.515625 -1.453125 C -0.554688 -1.429688 -0.59375 -1.398438 -0.625 -1.359375 C -0.632812 -1.347656 -0.644531 -1.335938 -0.65625 -1.328125 C -0.664062 -1.316406 -0.671875 -1.304688 -0.671875 -1.296875 C -0.671875 -1.273438 -0.671875 -1.265625 -0.671875 -1.265625 L -0.25 -0.9375 C -0.238281 -0.945312 -0.222656 -0.957031 -0.203125 -0.96875 C -0.191406 -0.976562 -0.179688 -0.988281 -0.171875 -1 C -0.148438 -1.03125 -0.132812 -1.0625 -0.125 -1.09375 C -0.125 -1.132812 -0.125 -1.171875 -0.125 -1.203125 C -0.132812 -1.234375 -0.144531 -1.265625 -0.15625 -1.296875 C -0.164062 -1.335938 -0.191406 -1.375 -0.234375 -1.40625 Z M -0.234375 -1.40625 "/></g></g></g><g fill="#622069" fill-opacity="1"><g transform="translate(23.564954, 3.983092)"><g><path d="M 0.609375 -1.09375 L 0.546875 -1.125 C 0.566406 -1.15625 0.582031 -1.179688 0.59375 -1.203125 C 0.601562 -1.234375 0.601562 -1.257812 0.59375 -1.28125 C 0.59375 -1.3125 0.582031 -1.332031 0.5625 -1.34375 C 0.550781 -1.363281 0.523438 -1.382812 0.484375 -1.40625 L -0.3125 -1.875 L 0.46875 -0.828125 L 0.4375 -0.765625 L -0.90625 -0.921875 L -0.0625 -0.4375 C -0.0195312 -0.414062 0.0078125 -0.40625 0.03125 -0.40625 C 0.0625 -0.40625 0.0859375 -0.40625 0.109375 -0.40625 C 0.128906 -0.414062 0.144531 -0.429688 0.15625 -0.453125 C 0.175781 -0.472656 0.195312 -0.492188 0.21875 -0.515625 L 0.28125 -0.484375 L 0 -0.015625 L -0.0625 -0.046875 C -0.0390625 -0.0664062 -0.0234375 -0.09375 -0.015625 -0.125 C -0.015625 -0.15625 -0.015625 -0.175781 -0.015625 -0.1875 C -0.015625 -0.207031 -0.0195312 -0.226562 -0.03125 -0.25 C -0.0507812 -0.269531 -0.0820312 -0.289062 -0.125 -0.3125 L -0.90625 -0.765625 C -0.945312 -0.785156 -0.976562 -0.800781 -1 -0.8125 C -1.019531 -0.820312 -1.035156 -0.820312 -1.046875 -0.8125 C -1.066406 -0.8125 -1.085938 -0.800781 -1.109375 -0.78125 C -1.128906 -0.769531 -1.148438 -0.75 -1.171875 -0.71875 L -1.25 -0.765625 L -0.953125 -1.265625 L 0.0625 -1.140625 L -0.546875 -1.984375 L -0.265625 -2.46875 L -0.1875 -2.421875 C -0.207031 -2.390625 -0.222656 -2.359375 -0.234375 -2.328125 C -0.242188 -2.296875 -0.242188 -2.269531 -0.234375 -2.25 C -0.234375 -2.238281 -0.222656 -2.222656 -0.203125 -2.203125 C -0.191406 -2.191406 -0.164062 -2.175781 -0.125 -2.15625 L 0.65625 -1.703125 C 0.695312 -1.679688 0.726562 -1.664062 0.75 -1.65625 C 0.769531 -1.65625 0.789062 -1.65625 0.8125 -1.65625 C 0.832031 -1.664062 0.851562 -1.679688 0.875 -1.703125 C 0.894531 -1.722656 0.914062 -1.75 0.9375 -1.78125 L 1 -1.75 Z M 0.609375 -1.09375 "/></g></g></g></g></g></g></svg>